<svg xmlns="http://www.w3.org/2000/svg" width="120" height="57" viewBox="0 0 120 57" fill="none">
<path d="M120 57C120 57 110.15 57 98 57C85.8497 57 76 57 76 57C76 44.7708 85.8497 37 98 37C110.15 37 120 44.7708 120 57Z" fill="#BFB9FF"/>
<circle cx="59.5" cy="12.5" r="12.5" fill="#675AF9"/>
<circle cx="98" cy="26" r="8" fill="#BFB9FF"/>
<path d="M44 57C44 57 34.1503 57 22 57C9.84974 57 0 57 0 57C0 44.7708 9.84974 37 22 37C34.1503 37 44 44.7708 44 57Z" fill="#BFB9FF"/>
<circle cx="22" cy="26" r="8" fill="#BFB9FF"/>
<path d="M91 57C91 57 77.1208 57 60 57C42.8792 57 29 57 29 57C29 39.8792 42.8792 29 60 29C77.1208 29 91 39.8792 91 57Z" fill="#675AF9"/>
</svg>