<svg width="96" height="99" viewBox="0 0 96 99" fill="none" xmlns="http://www.w3.org/2000/svg">
<path d="M60.6308 63.4585C60.6308 63.4585 100.032 35.0253 95.6615 2.48394C95.6182 1.93135 95.3992 1.40714 95.0364 0.988048C94.6335 0.614522 94.1162 0.38829 93.5684 0.346151C61.7694 -4.12479 33.9893 36.1919 33.9893 36.1919C9.88749 33.3061 11.6401 38.112 0.644183 64.5246C-1.46012 69.5593 1.9503 71.2952 5.69004 69.8774L17.6795 65.3507L32.1362 80.131L27.7099 92.4052C26.3256 96.2343 28.0169 99.7228 32.9455 97.5739C58.7553 86.3212 63.4551 88.1185 60.6308 63.4585ZM66.2627 30.4371C64.6569 28.7777 63.7591 26.559 63.7591 24.2498C63.7591 21.9406 64.6569 19.7219 66.2627 18.0625C67.0478 17.2533 67.9874 16.61 69.0258 16.1707C70.0642 15.7313 71.1802 15.505 72.3077 15.505C73.4352 15.505 74.5512 15.7313 75.5896 16.1707C76.6279 16.61 77.5676 17.2533 78.3527 18.0625C79.9585 19.7219 80.8563 21.9406 80.8563 24.2498C80.8563 26.559 79.9585 28.7777 78.3527 30.4371C77.5676 31.2463 76.6279 31.8896 75.5896 32.3289C74.5512 32.7683 73.4352 32.9946 72.3077 32.9946C71.1802 32.9946 70.0642 32.7683 69.0258 32.3289C67.9874 31.8896 67.0478 31.2463 66.2627 30.4371Z" fill="url(#paint0_linear_2361_1019)"/>
<defs>
<linearGradient id="paint0_linear_2361_1019" x1="15.3" y1="81.4478" x2="100.233" y2="4.68308" gradientUnits="userSpaceOnUse">
<stop stop-color="#5CAAFA"/>
<stop offset="1" stop-color="#675AF9"/>
</linearGradient>
</defs>
</svg>
