<svg width="204" height="165" viewBox="0 0 204 165" fill="none" xmlns="http://www.w3.org/2000/svg">
<rect width="204" height="165" fill="#DFDCFF"/>
<path d="M140 48C140 39.1634 147.163 32 156 32C164.837 32 172 39.1634 172 48V129C172 131.209 170.209 133 168 133H144C141.791 133 140 131.209 140 129V48Z" fill="white"/>
<path d="M140 62H172V133H140V62Z" fill="#675AF9"/>
<path d="M84 48C84 39.1634 91.1634 32 100 32C108.837 32 116 39.1634 116 48V129C116 131.209 114.209 133 112 133H88C85.7909 133 84 131.209 84 129V48Z" fill="white"/>
<path d="M84 80H116V133H84V80Z" fill="#675AF9"/>
<path d="M32 48C32 39.1634 39.1634 32 48 32C56.8366 32 64 39.1634 64 48V129C64 131.209 62.2091 133 60 133H36C33.7909 133 32 131.209 32 129V48Z" fill="white"/>
<path d="M32 101H64V133H32V101Z" fill="#675AF9"/>
</svg>
