<svg width="97" height="84" viewBox="0 0 97 84" fill="none" xmlns="http://www.w3.org/2000/svg">
<path d="M75.2985 19.4503C77.4446 16.2346 76.5775 11.8881 73.3618 9.74207C70.1462 7.59603 65.7997 8.46312 63.6536 11.6788L75.2985 19.4503ZM40.8531 45.8433L36.9674 51.6657L48.6123 59.4372L52.498 53.6148L40.8531 45.8433ZM63.6536 11.6788L40.8531 45.8433L52.498 53.6148L75.2985 19.4503L63.6536 11.6788Z" fill="#F8B016"/>
<path d="M16.7222 22.0537C15.6472 18.3401 11.7653 16.2012 8.05175 17.2762C4.33823 18.3513 2.19932 22.2332 3.27434 25.9467L16.7222 22.0537ZM8.94885 45.5484L10.8954 52.2723L24.3432 48.3793L22.3967 41.6554L8.94885 45.5484ZM3.27434 25.9467L8.94885 45.5484L22.3967 41.6554L16.7222 22.0537L3.27434 25.9467Z" fill="#F8B016"/>
<path d="M87.3146 72.6102C90.8187 70.977 92.3354 66.8124 90.7022 63.3083C89.069 59.8042 84.9045 58.2875 81.4004 59.9207L87.3146 72.6102ZM63.7103 68.1655L57.3656 71.1226L63.2798 83.8121L69.6245 80.855L63.7103 68.1655ZM81.4004 59.9207L63.7103 68.1655L69.6245 80.855L87.3146 72.6102L81.4004 59.9207Z" fill="#F8B016"/>
</svg>
