<svg xmlns="http://www.w3.org/2000/svg" width="190" height="36" viewBox="0 0 190 36" fill="none">
  <path fill-rule="evenodd" clip-rule="evenodd" d="M0 0H70C79.9411 0 88 8.05888 88 18C88 27.9411 79.9411 36 70 36H0V0ZM16.1659 24.728H12.2779V10.472H16.1659C17.1499 10.472 18.0619 10.664 18.9019 11.048C19.7659 11.408 20.5219 11.912 21.1699 12.56C21.8179 13.208 22.3219 13.976 22.6819 14.864C23.0419 15.728 23.2219 16.664 23.2219 17.672C23.2219 18.656 23.0419 19.58 22.6819 20.444C22.3219 21.284 21.8179 22.028 21.1699 22.676C20.5219 23.324 19.7659 23.828 18.9019 24.188C18.0619 24.548 17.1499 24.728 16.1659 24.728ZM6.08594 5V30.2H16.3099C18.1819 30.2 19.9219 29.876 21.5299 29.228C23.1379 28.58 24.5419 27.692 25.7419 26.564C26.9659 25.412 27.9139 24.08 28.5859 22.568C29.2819 21.056 29.6299 19.424 29.6299 17.672C29.6299 15.896 29.2819 14.24 28.5859 12.704C27.9139 11.168 26.9659 9.824 25.7419 8.672C24.5419 7.52 23.1379 6.62 21.5299 5.972C19.9219 5.324 18.1819 5 16.3099 5H6.08594ZM32.9102 5V30.2H39.1022V21.164H46.1942C47.8262 21.164 49.2902 20.816 50.5862 20.12C51.8822 19.424 52.9022 18.476 53.6462 17.276C54.3902 16.052 54.7622 14.684 54.7622 13.172C54.7622 11.588 54.3902 10.184 53.6462 8.96C52.9022 7.736 51.8822 6.776 50.5862 6.08C49.3142 5.36 47.8502 5 46.1942 5H32.9102ZM45.4742 16.052H39.1022V10.292H45.4742C46.3862 10.292 47.1182 10.568 47.6702 11.12C48.2222 11.648 48.4982 12.344 48.4982 13.208C48.4982 14.048 48.2222 14.732 47.6702 15.26C47.1182 15.788 46.3862 16.052 45.4742 16.052ZM64.1334 24.728H68.0214C69.0054 24.728 69.9174 24.548 70.7574 24.188C71.6214 23.828 72.3774 23.324 73.0254 22.676C73.6734 22.028 74.1774 21.284 74.5374 20.444C74.8974 19.58 75.0774 18.656 75.0774 17.672C75.0774 16.664 74.8974 15.728 74.5374 14.864C74.1774 13.976 73.6734 13.208 73.0254 12.56C72.3774 11.912 71.6214 11.408 70.7574 11.048C69.9174 10.664 69.0054 10.472 68.0214 10.472H64.1334V24.728ZM57.9414 30.2V5H68.1654C70.0374 5 71.7774 5.324 73.3854 5.972C74.9934 6.62 76.3974 7.52 77.5974 8.672C78.8214 9.824 79.7694 11.168 80.4414 12.704C81.1374 14.24 81.4854 15.896 81.4854 17.672C81.4854 19.424 81.1374 21.056 80.4414 22.568C79.7694 24.08 78.8214 25.412 77.5974 26.564C76.3974 27.692 74.9934 28.58 73.3854 29.228C71.7774 29.876 70.0374 30.2 68.1654 30.2H57.9414ZM144.299 30.9134V5.58302H150.96V8.40291C151.77 7.30089 152.742 6.45816 153.877 5.87474C155.011 5.29131 156.292 4.9996 157.718 4.9996C158.949 5.03201 159.873 5.22649 160.489 5.58302V11.4173C160.003 11.1904 159.468 11.0283 158.885 10.9311C158.301 10.8014 157.702 10.7366 157.086 10.7366C155.789 10.7366 154.606 11.0607 153.536 11.709C152.467 12.3572 151.608 13.281 150.96 14.4803V30.9134H144.299ZM121.305 29.6493C123.38 30.8162 125.681 31.3996 128.209 31.3996C130.251 31.3996 132.082 31.1079 133.703 30.5245C135.356 29.941 136.961 29.0173 138.516 27.7532L134.141 23.7664C133.46 24.4147 132.633 24.9171 131.661 25.2736C130.721 25.6302 129.684 25.8084 128.549 25.8084C127.415 25.8084 126.345 25.5815 125.341 25.1278C124.368 24.674 123.542 24.042 122.861 23.2316C122.213 22.4213 121.743 21.5138 121.451 20.509H140.218V18.7587C140.218 16.1657 139.667 13.8482 138.565 11.8062C137.495 9.76424 136.021 8.14361 134.141 6.94435C132.261 5.74509 130.105 5.14545 127.674 5.14545C125.243 5.14545 123.039 5.72888 121.062 6.89573C119.085 8.06258 117.513 9.63459 116.346 11.6118C115.212 13.5889 114.645 15.8092 114.645 18.2725C114.645 20.7359 115.244 22.9561 116.443 24.9333C117.643 26.9105 119.263 28.4825 121.305 29.6493ZM133.654 15.7443H121.354C121.613 14.7071 122.018 13.8158 122.569 13.0703C123.153 12.2924 123.866 11.6928 124.709 11.2714C125.551 10.8501 126.491 10.6394 127.528 10.6394C128.533 10.6394 129.441 10.8663 130.251 11.32C131.094 11.7414 131.807 12.341 132.39 13.1189C133.006 13.8644 133.428 14.7396 133.654 15.7443ZM90.9964 26.1974V30.9134H112.583V25.3222H99.5047L112.243 10.299V5.58302H91.0937V11.1742H103.735L90.9964 26.1974ZM168.642 29.6493C170.684 30.8162 172.969 31.3996 175.497 31.3996C178.058 31.3996 180.359 30.8162 182.401 29.6493C184.443 28.4825 186.048 26.9105 187.215 24.9333C188.414 22.9561 189.013 20.7359 189.013 18.2725C189.013 15.8092 188.414 13.5889 187.215 11.6118C186.048 9.60218 184.427 8.01396 182.353 6.84711C180.311 5.68026 178.026 5.09684 175.497 5.09684C172.969 5.09684 170.668 5.68026 168.594 6.84711C166.552 8.01396 164.931 9.60218 163.732 11.6118C162.565 13.5889 161.981 15.8092 161.981 18.2725C161.981 20.7359 162.581 22.9561 163.78 24.9333C164.98 26.9105 166.6 28.4825 168.642 29.6493ZM179.047 24.6416C178.009 25.2898 176.826 25.614 175.497 25.614C174.201 25.614 173.018 25.2898 171.948 24.6416C170.879 23.9933 170.036 23.1182 169.42 22.0162C168.804 20.8817 168.496 19.6339 168.496 18.2725C168.496 16.8788 168.804 15.6309 169.42 14.5289C170.036 13.4269 170.879 12.5517 171.948 11.9035C173.018 11.2228 174.201 10.8825 175.497 10.8825C176.826 10.8825 178.009 11.2228 179.047 11.9035C180.116 12.5517 180.959 13.4269 181.575 14.5289C182.223 15.6309 182.547 16.8788 182.547 18.2725C182.547 19.6339 182.223 20.8817 181.575 22.0162C180.959 23.1182 180.116 23.9933 179.047 24.6416Z" fill="#675AF9"/>
</svg>