<svg xmlns="http://www.w3.org/2000/svg" width="100" height="24" viewBox="0 0 100 24" fill="none">
  <g clip-path="url(#clip0_1927_500)">
    <mask id="mask0_1927_500" style="mask-type:luminance" maskUnits="userSpaceOnUse" x="0" y="0" width="100" height="24">
      <path d="M100 0H0V23.1948H100V0Z" fill="white"/>
    </mask>
    <g mask="url(#mask0_1927_500)">
      <path d="M0 22.9084V2.05518H5.48128C7.72344 2.05518 9.41695 2.51349 10.5619 3.43011C11.7163 4.33719 12.2935 5.65961 12.2935 7.39741C12.2935 8.65774 11.9739 9.70324 11.3346 10.534C10.6954 11.3646 9.79377 11.8946 8.6298 12.1238C9.94649 12.2956 11.0436 12.8685 11.9215 13.8424C12.7992 14.8067 13.2381 15.9144 13.2381 17.1652C13.2381 18.9411 12.6609 20.3447 11.5064 21.3759C10.3615 22.3975 8.76338 22.9084 6.71205 22.9084H0ZM0.772821 12.6107V22.135H6.79795C8.56305 22.135 9.94642 21.7005 10.9483 20.8316C11.9596 19.9532 12.4653 18.7406 12.4653 17.1938C12.4653 15.8762 11.9787 14.7924 11.0055 13.9426C10.0323 13.0833 8.73 12.6393 7.09848 12.6107H0.772821ZM0.772821 11.8373H5.76752C7.66616 11.8373 9.09729 11.4744 10.0609 10.7488C11.0246 10.0136 11.5064 8.87734 11.5064 7.34012C11.5064 4.38016 9.5553 2.87631 5.65302 2.82858H0.772821V11.8373Z" fill="black"/>
      <path d="M18.0458 11.0207C18.5514 9.81762 19.2957 8.86756 20.2784 8.17054C21.2611 7.47358 22.3488 7.12504 23.5414 7.12504C25.2015 7.12504 26.4323 7.59769 27.2337 8.54292C28.0447 9.47868 28.455 10.8966 28.4645 12.7967V22.9082H27.6917V12.768C27.6822 11.1066 27.3435 9.87968 26.6756 9.08723C26.0077 8.28517 24.9486 7.88411 23.4984 7.88411C22.1627 7.88411 21.0035 8.36153 20.0208 9.31637C19.0476 10.2616 18.3892 11.4838 18.0458 12.9829V22.9082H17.2729V0.90918H18.0458V11.0207Z" fill="black"/>
      <path d="M43.3195 22.9081C43.1287 22.2493 43.0333 21.304 43.0333 20.0724C42.4227 21.0653 41.5879 21.8339 40.5288 22.3782C39.4698 22.9225 38.2724 23.1946 36.9366 23.1946C35.5055 23.1946 34.351 22.8078 33.4733 22.0345C32.605 21.2515 32.1709 20.2347 32.1709 18.9838C32.1709 17.5612 32.8102 16.4249 34.0886 15.5751C35.3767 14.7158 37.0845 14.2766 39.2122 14.2575H43.0333V11.9945C43.0333 10.696 42.623 9.68871 41.8025 8.97255C40.9916 8.25646 39.8275 7.89838 38.3105 7.89838C36.8984 7.89838 35.7202 8.26123 34.7756 8.98685C33.831 9.71255 33.3588 10.6101 33.3588 11.6795L32.5859 11.6508C32.5859 10.3905 33.1393 9.32109 34.2461 8.44262C35.3528 7.56421 36.7077 7.125 38.3105 7.125C39.9802 7.125 41.3064 7.54513 42.2891 8.38533C43.2718 9.21606 43.7775 10.3905 43.8061 11.9086V19.3132C43.8061 21.0128 43.9397 22.1682 44.2069 22.7792V22.9081H43.3195ZM36.9366 22.4355C38.3869 22.4355 39.632 22.1108 40.6719 21.4616C41.7214 20.8123 42.5085 19.9004 43.0333 18.7261V15.0452H39.4555C37.242 15.0452 35.5484 15.4844 34.3749 16.3629C33.4208 17.079 32.9437 17.9718 32.9437 19.0411C32.9437 19.9864 33.3206 20.7884 34.0743 21.4473C34.8281 22.1061 35.7822 22.4355 36.9366 22.4355Z" fill="black"/>
      <path d="M55.6134 7.97003L54.6116 7.88407C53.2949 7.88407 52.193 8.31374 51.3057 9.17308C50.4183 10.0229 49.8363 11.2164 49.5596 12.7536V22.9081H48.7869V7.41142H49.5596V10.6339C49.9794 9.555 50.6092 8.70043 51.4488 8.07023C52.2884 7.4401 53.3426 7.125 54.6116 7.125C55.06 7.125 55.4226 7.17752 55.6992 7.28255L55.6134 7.97003Z" fill="black"/>
      <path d="M68.0219 22.9081C67.8312 22.2493 67.7359 21.304 67.7359 20.0724C67.1253 21.0653 66.2902 21.8339 65.2314 22.3782C64.1724 22.9225 62.975 23.1946 61.6392 23.1946C60.2081 23.1946 59.0537 22.8078 58.1759 22.0345C57.3076 21.2515 56.8735 20.2347 56.8735 18.9838C56.8735 17.5612 57.5128 16.4249 58.7913 15.5751C60.0793 14.7158 61.7871 14.2766 63.9148 14.2575H67.7359V11.9945C67.7359 10.696 67.3259 9.68871 66.5054 8.97255C65.6942 8.25646 64.5302 7.89838 63.0131 7.89838C61.6011 7.89838 60.4228 8.26123 59.4782 8.98685C58.5337 9.71255 58.0614 10.6101 58.0614 11.6795L57.2886 11.6508C57.2886 10.3905 57.8419 9.32109 58.9487 8.44262C60.0555 7.56421 61.4103 7.125 63.0131 7.125C64.6828 7.125 66.009 7.54513 66.9915 8.38533C67.9743 9.21606 68.4802 10.3905 68.5087 11.9086V19.3132C68.5087 21.0128 68.6425 22.1682 68.9094 22.7792V22.9081H68.0219ZM61.6392 22.4355C63.0895 22.4355 64.3346 22.1108 65.3745 21.4616C66.4239 20.8123 67.2113 19.9004 67.7359 18.7261V15.0452H64.158C61.9446 15.0452 60.251 15.4844 59.0775 16.3629C58.1234 17.079 57.6464 17.9718 57.6464 19.0411C57.6464 19.9864 58.0232 20.7884 58.777 21.4473C59.5307 22.1061 60.4848 22.4355 61.6392 22.4355Z" fill="black"/>
      <path d="M75.2219 3.22949V7.41157H78.7425V8.19932H75.2219V19.1989C75.2219 20.2969 75.3981 21.1085 75.7511 21.6336C76.114 22.1588 76.7153 22.4213 77.5544 22.4213C77.9743 22.4213 78.4848 22.3784 79.0862 22.2924L79.2147 23.0229C78.9001 23.1375 78.361 23.1947 77.5974 23.1947C76.4716 23.1947 75.6656 22.8844 75.1789 22.2638C74.6921 21.6336 74.4445 20.6453 74.4345 19.2991V8.19932H71.5723V7.41157H74.4345V3.22949H75.2219Z" fill="black"/>
      <path d="M83.1451 22.9083C82.6954 22.9083 82.3537 22.7714 82.1192 22.4977C81.8848 22.2043 81.7676 21.8719 81.7676 21.5003C81.7676 21.1093 81.8848 20.7573 82.1192 20.4444L89.5053 10.5889L90.8239 9.41556L97.5656 0.43998C97.8391 0.14666 98.2007 0 98.6497 0C99.0603 0 99.3828 0.127106 99.6172 0.381317C99.8517 0.635528 99.9788 0.948404 99.998 1.31994C100.018 1.69148 99.91 2.05324 99.6755 2.40523L92.5537 11.9088L91.2934 13.0234L84.2 22.4683C83.9073 22.7617 83.555 22.9083 83.1451 22.9083ZM98.4742 22.9083C98.2199 22.9083 97.9954 22.8692 97.8 22.791C97.6239 22.6932 97.4576 22.5466 97.3014 22.351L90.4722 12.8768L89.3881 11.9675L82.5 2.40523C82.2656 2.09235 82.1682 1.75015 82.2073 1.3786C82.2464 1.00707 82.3828 0.684411 82.6172 0.410648C82.8715 0.136882 83.2033 0 83.6139 0C84.1219 0 84.4835 0.14666 84.6987 0.43998L91.2053 9.47424L92.3192 10.3835L99.5583 20.4444C99.7927 20.7573 99.9007 21.1093 99.8808 21.5003C99.8616 21.8915 99.7245 22.2239 99.4702 22.4977C99.2358 22.7714 98.904 22.9083 98.4742 22.9083Z" fill="black"/>
    </g>
  </g>
  <defs>
    <clipPath id="clip0_1927_500">
      <rect width="100" height="23.8411" fill="white"/>
    </clipPath>
  </defs>
</svg>