<svg width="40" height="36" viewBox="0 0 40 36" fill="none" xmlns="http://www.w3.org/2000/svg">
<g id="Group 1000001375">
<path id="Vector" d="M28.612 6.63471C29.4998 4.61184 28.5797 2.25223 26.5568 1.36438C24.534 0.47653 22.1743 1.39665 21.2865 3.41952L28.612 6.63471ZM15.3138 17.0276L13.7062 20.6903L21.0317 23.9055L22.6393 20.2428L15.3138 17.0276ZM21.2865 3.41952L15.3138 17.0276L22.6393 20.2428L28.612 6.63471L21.2865 3.41952Z" fill="#210076"/>
<path id="Vector_2" d="M8.00005 8.22449C7.71564 6.03374 5.70913 4.48833 3.51837 4.77274C1.32762 5.05714 -0.217784 7.06365 0.0666191 9.25441L8.00005 8.22449ZM1.31454 18.8671L1.82949 22.8338L9.76292 21.8039L9.24796 17.8372L1.31454 18.8671ZM0.0666191 9.25441L1.31454 18.8671L9.24796 17.8372L8.00005 8.22449L0.0666191 9.25441Z" fill="#210076"/>
<path id="Vector_3" d="M35.4947 32.0109C37.5897 31.3101 38.72 29.0436 38.0192 26.9486C37.3184 24.8536 35.052 23.7233 32.9569 24.4241L35.4947 32.0109ZM27.0358 26.4047L23.2424 27.6736L25.7802 35.2604L29.5736 33.9915L27.0358 26.4047ZM32.9569 24.4241L27.0358 26.4047L29.5736 33.9915L35.4947 32.0109L32.9569 24.4241Z" fill="#210076"/>
</g>
</svg>
