<svg width="191" height="36" viewBox="0 0 191 36" fill="none" xmlns="http://www.w3.org/2000/svg">
<g id="Vector">
<path d="M0 0.533333C0 0.238781 0.238781 0 0.533333 0H70C79.9411 0 88 8.05887 88 18Lnan nanL88 18C88 27.9411 79.9411 36 70 36H0.266661C0.119385 36 0 35.8806 0 35.7333V0.533333Z" fill="#210076"/>
<path d="M12.7708 24.9148H16.7811C17.9404 24.9148 18.9815 24.5961 19.9042 23.9587C20.8269 23.3214 21.5604 22.4597 22.1045 21.3739C22.6724 20.2644 22.9563 19.0486 22.9563 17.7267C22.9563 16.3811 22.6724 15.1654 22.1045 14.0795C21.5604 12.9936 20.8269 12.132 19.9042 11.4946C18.9815 10.8572 17.9404 10.5385 16.7811 10.5385H12.7708V24.9148ZM6.66667 30.12V5.33333H16.7811C18.5319 5.33333 20.1526 5.65202 21.6432 6.28939C23.1574 6.92676 24.4823 7.812 25.618 8.9451C26.7773 10.0782 27.6764 11.4002 28.3152 12.911C28.954 14.3982 29.2734 16.0034 29.2734 17.7267C29.2734 19.4499 28.954 21.067 28.3152 22.5778C27.6764 24.065 26.7773 25.3751 25.618 26.5082C24.4823 27.6413 23.1574 28.5266 21.6432 29.1639C20.1526 29.8013 18.5319 30.12 16.7811 30.12H6.66667Z" fill="#F3F9FF"/>
<path d="M33.6302 30.12V5.33333H45.7676C47.5421 5.33333 49.0799 5.68743 50.3812 6.39562C51.7062 7.10381 52.7235 8.07167 53.4333 9.2992C54.1668 10.5267 54.5335 11.9313 54.5335 13.5129C54.5335 15.0001 54.1668 16.3457 53.4333 17.5496C52.7235 18.7535 51.7062 19.7096 50.3812 20.4178C49.0799 21.126 47.5421 21.4801 45.7676 21.4801H39.7344V30.12H33.6302ZM39.7344 16.629H44.6674C45.9214 16.629 46.8441 16.3339 47.4356 15.7437C48.0508 15.13 48.3583 14.3746 48.3583 13.4775C48.3583 12.5805 48.0508 11.8369 47.4356 11.2467C46.8441 10.6566 45.9332 10.3615 44.7029 10.3615H39.7344V16.629Z" fill="#F3F9FF"/>
<path d="M64.9305 24.9148H68.9408C70.1001 24.9148 71.1411 24.5961 72.0638 23.9587C72.9865 23.3214 73.72 22.4597 74.2642 21.3739C74.832 20.2644 75.1159 19.0486 75.1159 17.7267C75.1159 16.3811 74.832 15.1654 74.2642 14.0795C73.72 12.9936 72.9865 12.132 72.0638 11.4946C71.1411 10.8572 70.1001 10.5385 68.9408 10.5385H64.9305V24.9148ZM58.8263 30.12V5.33333H68.9408C70.6916 5.33333 72.3122 5.65202 73.8028 6.28939C75.317 6.92676 76.642 7.812 77.7776 8.9451C78.9369 10.0782 79.836 11.4002 80.4748 12.911C81.1136 14.3982 81.433 16.0034 81.433 17.7267C81.433 19.4499 81.1136 21.067 80.4748 22.5778C79.836 24.065 78.9369 25.3751 77.7776 26.5082C76.642 27.6413 75.317 28.5266 73.8028 29.1639C72.3122 29.8013 70.6916 30.12 68.9408 30.12H58.8263Z" fill="#F3F9FF"/>
<path d="M93.3333 30.1756V25.4119L106.017 10.237H93.4302V4.58932H114.489V9.35298L101.805 24.5279H114.828V30.1756H93.3333Z" fill="#210076"/>
<path d="M130.388 30.6667C127.87 30.6667 125.579 30.0773 123.513 28.8987C121.48 27.7201 119.866 26.1322 118.672 24.1351C117.478 22.1379 116.881 19.8952 116.881 17.407C116.881 14.9188 117.446 12.6761 118.575 10.6789C119.737 8.68181 121.303 7.09392 123.271 5.91529C125.24 4.73665 127.435 4.14733 129.855 4.14733C132.276 4.14733 134.422 4.75302 136.294 5.9644C138.166 7.17577 139.635 8.81277 140.7 10.8754C141.797 12.938 142.346 15.2789 142.346 17.8981V19.6661H123.659C123.949 20.681 124.417 21.5977 125.063 22.4162C125.74 23.2347 126.563 23.8731 127.532 24.3315C128.532 24.7899 129.597 25.019 130.727 25.019C131.856 25.019 132.889 24.839 133.825 24.4788C134.793 24.1187 135.616 23.6112 136.294 22.9564L140.651 26.9834C139.102 28.2603 137.504 29.1934 135.858 29.7827C134.245 30.372 132.421 30.6667 130.388 30.6667ZM123.562 14.8533H135.81C135.584 13.8383 135.165 12.9544 134.551 12.2014C133.97 11.4156 133.26 10.8099 132.421 10.3843C131.614 9.92593 130.711 9.69675 129.71 9.69675C128.677 9.69675 127.741 9.90956 126.902 10.3352C126.063 10.7608 125.353 11.3665 124.772 12.1522C124.223 12.9053 123.82 13.8056 123.562 14.8533Z" fill="#210076"/>
<path d="M146.409 30.1756V4.58932H153.042V7.43769C153.849 6.32454 154.817 5.4733 155.946 4.88398C157.076 4.29466 158.351 4 159.771 4C160.997 4.03274 161.917 4.22918 162.53 4.58932V10.4825C162.046 10.2533 161.514 10.0896 160.933 9.99141C160.352 9.86045 159.755 9.79497 159.142 9.79497C157.851 9.79497 156.673 10.1224 155.608 10.7772C154.542 11.432 153.687 12.3651 153.042 13.5764V30.1756H146.409Z" fill="#210076"/>
<path d="M177.475 30.6667C174.958 30.6667 172.682 30.0773 170.649 28.8987C168.616 27.7201 167.002 26.1322 165.808 24.1351C164.614 22.1379 164.016 19.8952 164.016 17.407C164.016 14.9188 164.597 12.6761 165.759 10.6789C166.953 8.64907 168.567 7.04482 170.601 5.86618C172.666 4.68754 174.958 4.09822 177.475 4.09822C179.992 4.09822 182.268 4.68754 184.301 5.86618C186.367 7.04482 187.98 8.64907 189.142 10.6789C190.337 12.6761 190.934 14.9188 190.934 17.407C190.934 19.8952 190.337 22.1379 189.142 24.1351C187.98 26.1322 186.383 27.7201 184.35 28.8987C182.316 30.0773 180.025 30.6667 177.475 30.6667ZM177.475 24.8226C178.798 24.8226 179.976 24.4952 181.009 23.8404C182.074 23.1856 182.913 22.3016 183.527 21.1885C184.172 20.0426 184.495 18.7821 184.495 17.407C184.495 15.9992 184.172 14.7387 183.527 13.6255C182.913 12.5124 182.074 11.6284 181.009 10.9736C179.976 10.2861 178.798 9.9423 177.475 9.9423C176.184 9.9423 175.006 10.2861 173.941 10.9736C172.876 11.6284 172.037 12.5124 171.424 13.6255C170.81 14.7387 170.504 15.9992 170.504 17.407C170.504 18.7821 170.81 20.0426 171.424 21.1885C172.037 22.3016 172.876 23.1856 173.941 23.8404C175.006 24.4952 176.184 24.8226 177.475 24.8226Z" fill="#210076"/>
</g>
</svg>
