<svg width="242" height="19" viewBox="0 0 242 19" fill="none" xmlns="http://www.w3.org/2000/svg">
<g id="dual-underline 1" clip-path="url(#clip0_820_2635)">
<path id="Vector" d="M240.951 13.5043C241.51 10.9478 236.486 11.2215 234.91 10.5069C216.181 6.77516 181.565 5.02254 162.479 4.34845C147.053 3.86178 131.651 2.92153 116.213 2.84669C104.831 2.53877 93.4535 3.28155 82.0684 3.13002C58.0729 3.36879 33.9565 3.59779 10.167 7.0229C7.70127 7.58836 5.07312 7.68964 2.72078 8.62713C-3.27061 12.9704 7.94257 12.7965 10.4076 12.3043C81.5149 5.31446 82.4774 6.83227 136.628 7.76898C160.599 9.29876 184.414 10.7363 221.195 14.4972C223.68 14.4539 222.978 12.5614 222.817 11.6144C226.423 12.0541 230.015 12.5992 233.589 13.2489C235.443 13.6776 237.304 14.0864 239.143 14.5748C239.524 14.6682 239.927 14.6088 240.265 14.4091C240.603 14.2094 240.849 13.8853 240.951 13.5063L240.951 13.5043Z" fill="#F8B215"/>
</g>
<defs>
<clipPath id="clip0_820_2635">
<rect width="240" height="14.4435" fill="white" transform="matrix(0.999848 -0.0174524 -0.0174524 -0.999848 1.12109 18.7806)"/>
</clipPath>
</defs>
</svg>
