<svg xmlns="http://www.w3.org/2000/svg" width="120" height="32" viewBox="0 0 120 32" fill="none">
  <g clip-path="url(#clip0_484_128)">
    <path fill-rule="evenodd" clip-rule="evenodd" d="M72.0127 9.02539V20.2623H76.53V22.268H70.1019V9.02539H72.0127Z" fill="#800020"/>
    <path fill-rule="evenodd" clip-rule="evenodd" d="M79.7062 12.394C79.2795 12.8239 78.9429 13.3372 78.7168 13.9029C78.4906 14.4685 78.3795 15.0749 78.3902 15.6853C78.3811 16.2873 78.4887 16.8851 78.707 17.4448C78.9252 18.0044 79.2498 18.5149 79.6623 18.9471C80.0747 19.3793 80.5669 19.7247 81.1107 19.9636C81.6545 20.2025 82.2393 20.3303 82.8317 20.3395C83.4241 20.3488 84.0125 20.2395 84.5633 20.0177C85.1141 19.7959 85.6165 19.4661 86.0419 19.0471C86.4672 18.628 86.8072 18.128 87.0423 17.5754C87.2775 17.0229 87.4032 16.4287 87.4124 15.8268V15.6853C87.4368 14.4755 86.9885 13.3052 86.1655 12.4305C85.3426 11.5558 84.2121 11.048 83.0215 11.0183C82.4062 11.0088 81.7953 11.1257 81.2256 11.3621C80.6559 11.5985 80.1391 11.9495 79.7062 12.394ZM78.3523 20.391C77.5872 19.6409 77.0159 18.7108 76.689 17.683C76.362 16.6551 76.2894 15.5613 76.4777 14.4981C76.6659 13.435 77.1092 12.4354 77.7682 11.5878C78.4272 10.7402 79.2817 10.0707 80.2561 9.63862C81.2304 9.2065 82.2946 9.02507 83.3544 9.11037C84.4142 9.19568 85.437 9.54509 86.3322 10.1277C87.2274 10.7103 87.9675 11.5081 88.487 12.4506C89.0065 13.3931 89.2893 14.4511 89.3104 15.5311V15.6982C89.3413 17.0016 88.9853 18.2843 88.2886 19.3792C87.5919 20.4741 86.5869 21.3305 85.4045 21.8369C84.222 22.3433 82.9169 22.4762 81.659 22.2183C80.4012 21.9604 79.2489 21.3236 78.3523 20.391Z" fill="#800020"/>
    <path fill-rule="evenodd" clip-rule="evenodd" d="M93.7013 17.2409H96.7888V12.0982L93.7013 17.2409ZM98.6869 9.02539V22.3837H96.7761V19.2723H92.4865L90.639 22.3837H88.374L96.3332 9.02539H98.6869Z" fill="#800020"/>
    <path fill-rule="evenodd" clip-rule="evenodd" d="M110.012 9.02539V22.3837H108.013L102.622 12.831V22.3837H100.711V9.02539H102.711L108.101 18.5781V9.02539H110.012Z" fill="#800020"/>
    <path fill-rule="evenodd" clip-rule="evenodd" d="M115.44 22.4742C114.609 22.4491 113.798 22.2055 113.087 21.7671C112.317 21.3351 111.724 20.6373 111.417 19.8L113.251 19.1057C113.425 19.5426 113.755 19.8964 114.175 20.0957C114.592 20.3108 115.049 20.4335 115.516 20.4557C116.189 20.5178 116.859 20.3154 117.389 19.89C117.577 19.7502 117.732 19.5711 117.846 19.3648C117.96 19.1585 118.028 18.9299 118.047 18.6943C118.085 17.8457 117.225 17.1643 115.466 16.6501C112.72 15.8529 111.379 14.4901 111.467 12.5744C111.518 11.2373 112.075 10.2345 113.137 9.5659C114.012 9.04185 115.023 8.80393 116.035 8.88449C117.402 8.94877 118.503 9.43734 119.325 10.363L117.895 11.7387C117.427 11.2116 116.782 10.9416 115.947 10.8902C115.434 10.8513 114.919 10.9304 114.441 11.1216C114.138 11.2398 113.878 11.4501 113.697 11.7239C113.515 11.9978 113.422 12.3217 113.428 12.6516C113.39 13.4873 114.251 14.1558 116.01 14.6701C117.592 15.1329 118.705 15.8015 119.363 16.7015C119.808 17.289 120.032 18.0183 119.996 18.7586C119.969 19.2808 119.832 19.791 119.594 20.2547C119.356 20.7183 119.023 21.1245 118.617 21.4457C117.789 22.1295 116.747 22.4897 115.681 22.4614L115.44 22.4742Z" fill="#800020"/>
    <path fill-rule="evenodd" clip-rule="evenodd" d="M17.6774 6.47949V9.26944H11.1733V14.2836H16.1969V17.0736H11.1733V24.9291H8.41479V6.47949H17.6774Z" fill="#2B5582"/>
    <path fill-rule="evenodd" clip-rule="evenodd" d="M22.1694 6.47949V24.9291H12.9069V22.1392H19.4236V6.47949H22.1694Z" fill="#800020"/>
    <path d="M30.5842 15.5183V15.454C30.5868 15.2394 30.5783 15.0248 30.5589 14.8111C30.504 13.7905 30.3471 12.7782 30.0907 11.7898C29.701 10.2445 29.0869 8.76691 28.2686 7.40557C26.5628 4.56627 24.0092 2.3546 20.98 1.09284C19.7943 0.608541 18.5526 0.280173 17.2851 0.115712C16.9561 0.0642844 16.6271 0.0514277 16.2728 0.0257139L14.7796 0C14.7037 0 14.6278 0.0128569 14.5519 0.0128569C14.4595 0.023851 14.3664 0.0281476 14.2735 0.0257139C13.9951 0.0385708 13.7167 0.0771415 13.451 0.102855L13.2485 0.128569C12.5567 0.229739 11.872 0.375748 11.1986 0.565703C10.9455 0.629988 10.6924 0.719986 10.4394 0.809985L9.68015 1.09284C9.51565 1.15712 9.33849 1.23426 9.17399 1.3114C6.45923 2.55256 4.15313 4.56094 2.53076 7.09701C1.70589 8.39113 1.06677 9.79811 0.63269 11.2755C0.416923 12.0165 0.25619 12.7729 0.151846 13.5383C0.0504768 14.3011 -0.000252599 15.07 9.45685e-07 15.8397L0.0126545 16.4183C0.0126545 16.5983 0.0253079 16.7654 0.0379617 16.9454V17.0097C0.0632693 17.4082 0.113884 17.8068 0.1645 18.1668C0.281763 18.9374 0.455174 19.698 0.683304 20.4425C0.908903 21.174 1.18807 21.8875 1.51845 22.5767C1.84977 23.259 2.22163 23.9202 2.63199 24.5567C4.27537 27.0191 6.57539 28.9546 9.26257 30.1366C9.42707 30.2137 9.59157 30.2908 9.75607 30.3551L10.2496 30.548C10.3634 30.5866 10.4773 30.6251 10.5786 30.6508C10.7937 30.728 11.0214 30.7923 11.2366 30.8565C11.8999 31.0496 12.5767 31.1915 13.2612 31.2808L13.4763 31.3065C13.742 31.3451 14.0077 31.3708 14.2735 31.3837L14.438 31.3965C14.5558 31.4072 14.674 31.4115 14.7923 31.4094H15.5895C15.8172 31.4094 16.045 31.3965 16.2728 31.3837L16.5765 31.358C16.8042 31.3451 17.032 31.3194 17.2471 31.2937C19.6574 30.9791 21.9578 30.0795 23.9536 28.6709C25.6206 27.4834 27.0434 25.9767 28.142 24.2352C28.6009 23.5188 28.9948 22.7614 29.3188 21.9724C29.6076 21.3066 29.8446 20.6188 30.0274 19.9153C30.2972 18.9371 30.4668 17.9333 30.5336 16.9197C30.5589 16.6497 30.5715 16.3797 30.5715 16.1097L30.5842 15.5183ZM30.1413 15.8783V16.3025C30.144 16.5086 30.1356 16.7146 30.116 16.9197C30.0535 17.9075 29.888 18.8858 29.6225 19.8382C29.2194 21.321 28.5827 22.7277 27.7371 24.0038C26.6468 25.6541 25.234 27.0589 23.5867 28.1309C22.6479 28.7374 21.6465 29.2376 20.6004 29.6223C19.4864 30.0345 18.3258 30.3023 17.1459 30.4194C16.848 30.4596 16.5479 30.481 16.2475 30.4837H15.9311C15.7287 30.4837 15.5262 30.4966 15.3111 30.4837L14.8302 30.4708C14.7286 30.4687 14.6272 30.4601 14.5265 30.4451L14.362 30.4323C14.1289 30.4186 13.8966 30.3928 13.6661 30.3551L13.4257 30.3166C12.788 30.2152 12.1581 30.0691 11.5403 29.8794C11.3217 29.8226 11.1063 29.7539 10.8949 29.6737C10.7937 29.6351 10.7051 29.6094 10.6165 29.5709L10.1483 29.378L9.6928 29.1852C7.21519 28.0398 5.10881 26.2028 3.61898 23.8881C3.2442 23.2996 2.91018 22.6852 2.61933 22.0496C2.03735 20.7651 1.64508 19.4005 1.45519 17.9997C1.36432 17.3006 1.31783 16.5963 1.31599 15.8911C1.33048 15.1809 1.38965 14.4723 1.49315 13.7697C1.60422 13.0743 1.76063 12.387 1.96134 11.7126C2.16808 11.0418 2.42616 10.3884 2.73322 9.75838C4.21606 6.66942 6.73245 4.21746 9.83199 2.84137C9.97118 2.77709 10.123 2.7128 10.2749 2.64852L10.9582 2.39138C11.1859 2.31424 11.4137 2.2371 11.6415 2.17282C12.2443 1.99484 12.857 1.85317 13.4763 1.74854L13.704 1.72282C13.9318 1.69711 14.1722 1.65854 14.4 1.64568L14.5519 1.63283C14.6525 1.61788 14.7539 1.60929 14.8555 1.60711L16.2221 1.59425C16.3273 1.6047 16.4329 1.609 16.5385 1.60711C16.7283 1.61997 16.9181 1.63283 17.0953 1.64568L17.2345 1.65854C17.4807 1.67931 17.7257 1.71365 17.9684 1.76139L18.1202 1.78711C18.214 1.79801 18.307 1.81519 18.3986 1.83854L18.8288 1.92853C19.1113 1.97882 19.3902 2.04753 19.664 2.13424L19.8664 2.19853L20.4738 2.39138C21.5048 2.75663 22.4934 3.23517 23.4222 3.8185C25.0601 4.85364 26.476 6.21353 27.5852 7.81699C29.0139 9.88042 29.8705 12.2961 30.0654 14.8111C30.0882 15.0032 30.1009 15.1963 30.1034 15.3897V15.6083H30.0907L30.1413 15.8783Z" fill="#2B5582"/>
    <path d="M33.5452 22.4866V9.02539H40.606V10.1568H34.5701V15.1067H39.4418V16.2253H34.5701V22.4866H33.5452Z" fill="#2B5582"/>
    <path d="M48.2741 22.4866H41.226V9.02539H42.2509V21.4066H48.2741V22.4866Z" fill="#2B5582"/>
    <path d="M55.8412 22.4866H48.8436V9.02539H55.9044V10.1568H49.8939V15.1453H54.6644V16.251H49.8939V21.3552H55.8285V22.4866H55.8412Z" fill="#2B5582"/>
    <path d="M60.928 15.8395L64.7241 22.4866H63.5094L60.3333 16.9452H60.2827L57.0813 22.4866H55.8791L59.6879 15.8781L55.7273 9.02539H56.9294L60.2573 14.811H60.308L63.6865 9.02539H64.9013L60.928 15.8395Z" fill="#2B5582"/>
    <path d="M65.205 22.4862V9.05078H66.2679V22.4862H65.205Z" fill="#2B5582"/>
  </g>
  <defs>
    <clipPath id="clip0_484_128">
      <rect width="120" height="31.4094" fill="white"/>
    </clipPath>
  </defs>
</svg>