<svg width="206" height="31" viewBox="0 0 206 31" fill="none" xmlns="http://www.w3.org/2000/svg">
<g id="Group 75">
<g id="DPDZERO">
<path d="M3.43361 27.2203H10.1426C11.8693 27.2203 13.4687 26.923 14.9407 26.3285C16.4127 25.734 17.7007 24.8989 18.8047 23.8231C19.9087 22.7473 20.758 21.4875 21.3524 20.0437C21.9752 18.5998 22.2866 17.0286 22.2866 15.33C22.2866 13.6314 21.9752 12.0602 21.3524 10.6163C20.758 9.17252 19.9087 7.91272 18.8047 6.83693C17.7007 5.76114 16.4127 4.92598 14.9407 4.33147C13.4687 3.73695 11.8693 3.43969 10.1426 3.43969H3.43361V27.2203ZM0.164062 30.1929V0.467117H9.97271C12.2373 0.467117 14.3179 0.835151 16.2146 1.57122C18.1112 2.30729 19.753 3.34061 21.1401 4.67119C22.5555 6.00177 23.6454 7.57299 24.4097 9.38485C25.2023 11.1967 25.5986 13.1784 25.5986 15.33C25.5986 17.4816 25.2164 19.4633 24.4521 21.2752C23.6878 23.087 22.598 24.6582 21.1826 25.9888C19.7955 27.3194 18.1395 28.3527 16.2146 29.0888C14.3179 29.8249 12.2373 30.1929 9.97271 30.1929H0.164062Z" fill="#1A535C"/>
<path d="M31.5741 30.1929V0.467117H44.4824C46.4357 0.467117 48.12 0.820996 49.5354 1.52875C50.9791 2.23651 52.0972 3.24152 52.8898 4.54379C53.6824 5.81776 54.0788 7.3182 54.0788 9.04512C54.0788 10.772 53.6824 12.2866 52.8898 13.5889C52.0972 14.8629 50.9791 15.8679 49.5354 16.604C48.0917 17.3117 46.4073 17.6656 44.4824 17.6656H34.8436V30.1929H31.5741ZM34.8436 14.8204H44.2277C46.2375 14.8204 47.8369 14.3108 49.0258 13.2917C50.2147 12.2442 50.8092 10.8428 50.8092 9.08759C50.8092 7.33236 50.2147 5.94515 49.0258 4.92598C47.8369 3.90681 46.2375 3.39723 44.2277 3.39723H34.8436V14.8204Z" fill="#1A535C"/>
<path d="M63.1851 27.2203H69.8941C71.6208 27.2203 73.2202 26.923 74.6922 26.3285C76.1642 25.734 77.4522 24.8989 78.5562 23.8231C79.6602 22.7473 80.5095 21.4875 81.1039 20.0437C81.7267 18.5998 82.0381 17.0286 82.0381 15.33C82.0381 13.6314 81.7267 12.0602 81.1039 10.6163C80.5095 9.17252 79.6602 7.91272 78.5562 6.83693C77.4522 5.76114 76.1642 4.92598 74.6922 4.33147C73.2202 3.73695 71.6208 3.43969 69.8941 3.43969H63.1851V27.2203ZM59.9156 30.1929V0.467117H69.7242C71.9888 0.467117 74.0695 0.835151 75.9661 1.57122C77.8627 2.30729 79.5045 3.34061 80.8916 4.67119C82.307 6.00177 83.3969 7.57299 84.1612 9.38485C84.9538 11.1967 85.3501 13.1784 85.3501 15.33C85.3501 17.4816 84.9679 19.4633 84.2036 21.2752C83.4393 23.087 82.3495 24.6582 80.9341 25.9888C79.547 27.3194 77.891 28.3527 75.9661 29.0888C74.0695 29.8249 71.9888 30.1929 69.7242 30.1929H59.9156Z" fill="#1A535C"/>
<path d="M88.9477 30.1929V25.9888L105.338 5.81776H89.0751V0.467117H113.363V4.67119L96.973 24.8422H113.533V30.1929H88.9477Z" fill="#1A535C"/>
<path d="M117.787 30.1929V0.467117H140.632V5.81776H123.944V12.6122H134.942V17.793H123.944V24.8422H140.801V30.1929H117.787Z" fill="#1A535C"/>
<path d="M146.004 30.1929V0.467117H160.526C162.536 0.467117 164.305 0.863461 165.834 1.65615C167.391 2.42052 168.594 3.49632 169.443 4.88352C170.321 6.27072 170.759 7.87025 170.759 9.68211C170.759 11.5789 170.236 13.2492 169.188 14.693C168.141 16.1368 166.74 17.2126 164.985 17.9204L171.566 30.1929H164.687L158.87 18.8122H152.161V30.1929H146.004ZM152.161 13.7588H159.974C161.361 13.7588 162.465 13.3907 163.286 12.6547C164.135 11.9186 164.56 10.9561 164.56 9.76703C164.56 8.578 164.135 7.61546 163.286 6.87939C162.465 6.14332 161.361 5.77529 159.974 5.77529H152.161V13.7588Z" fill="#1A535C"/>
<path d="M190.237 30.66C188.029 30.66 185.977 30.2778 184.08 29.5134C182.183 28.7207 180.513 27.6308 179.07 26.2436C177.654 24.8281 176.536 23.2003 175.715 21.3601C174.923 19.4916 174.526 17.4816 174.526 15.33C174.526 13.1784 174.923 11.1825 175.715 9.34238C176.536 7.47391 177.654 5.84607 179.07 4.45887C180.513 3.04335 182.183 1.95341 184.08 1.18903C185.977 0.396343 188.029 0 190.237 0C192.445 0 194.497 0.396343 196.394 1.18903C198.319 1.95341 199.989 3.04335 201.404 4.45887C202.848 5.84607 203.966 7.47391 204.759 9.34238C205.552 11.1825 205.948 13.1784 205.948 15.33C205.948 17.4816 205.552 19.4916 204.759 21.3601C203.966 23.2003 202.848 24.8281 201.404 26.2436C199.989 27.6308 198.319 28.7207 196.394 29.5134C194.497 30.2778 192.445 30.66 190.237 30.66ZM190.237 25.0121C191.596 25.0121 192.841 24.7715 193.974 24.2902C195.106 23.7806 196.097 23.1012 196.946 22.2519C197.795 21.3742 198.46 20.3409 198.942 19.1519C199.423 17.9629 199.664 16.6889 199.664 15.33C199.664 13.9428 199.423 12.6688 198.942 11.5081C198.46 10.3191 197.795 9.29992 196.946 8.45061C196.097 7.57299 195.106 6.89354 193.974 6.41227C192.841 5.90269 191.596 5.64789 190.237 5.64789C188.907 5.64789 187.675 5.90269 186.543 6.41227C185.411 6.89354 184.42 7.57299 183.571 8.45061C182.721 9.29992 182.056 10.3191 181.575 11.5081C181.094 12.6688 180.853 13.9286 180.853 15.2875C180.853 16.6747 181.094 17.9629 181.575 19.1519C182.056 20.3409 182.721 21.3742 183.571 22.2519C184.42 23.1012 185.411 23.7806 186.543 24.2902C187.675 24.7715 188.907 25.0121 190.237 25.0121Z" fill="#1A535C"/>
</g>
</g>
</svg>
