<svg xmlns="http://www.w3.org/2000/svg" width="120" height="37" viewBox="0 0 120 37" fill="none">
  <g clip-path="url(#clip0_484_109)">
    <path d="M38.0843 13.4229L36.8937 15.6898C35.5817 14.981 34.3702 14.5971 33.4621 14.5971C32.8363 14.5971 32.3923 14.8393 32.3923 15.3453C32.3923 16.843 38.1248 16.1144 38.1039 19.9192C38.1039 22.1656 36.147 23.4001 33.5228 23.4001C31.7062 23.4001 29.9504 22.874 28.6381 21.8621L29.7485 19.6359C30.9797 20.5061 32.3923 20.9919 33.6034 20.9919C34.2899 20.9919 34.7941 20.7492 34.7941 20.2433C34.7941 18.6441 29.1628 19.4741 29.1832 15.6491C29.1832 13.4028 31.0804 12.1885 33.6034 12.1885C35.1779 12.1885 36.7519 12.6337 38.0843 13.4229Z" fill="#014751"/>
    <path d="M50.3499 16.3796V23.2603H46.8782V17.3513C46.8782 16.0761 46.1311 15.2868 44.961 15.2868C43.6893 15.2868 42.8815 16.1977 42.7406 17.4929V23.2603H39.2485V12.3522H42.7406V14.1333C43.5074 12.8582 44.7591 12.211 46.3737 12.1904C48.7755 12.1904 50.3499 13.8298 50.3499 16.3796Z" fill="#014751"/>
    <path d="M58.2118 19.5613V18.5897H56.012C54.9622 18.5897 54.4379 18.9539 54.4379 19.7633C54.4379 20.5531 55.0032 21.0586 55.9714 21.0586C57.0617 21.0586 57.9903 20.4516 58.2118 19.5613ZM61.643 16.1413V23.2647H58.2325V22.0101C57.526 22.9411 56.3753 23.4264 54.902 23.4264C52.5808 23.4264 51.1682 22.0101 51.1682 20.0064C51.1682 17.9421 52.6415 16.7281 55.346 16.7076H58.2118V16.5458C58.2118 15.4731 57.5058 14.8255 56.0933 14.8255C55.1846 14.8255 53.9935 15.1491 52.843 15.7364L51.8542 13.4292C53.5499 12.64 55.0834 12.1943 56.9002 12.1943C59.8873 12.1943 61.6234 13.672 61.643 16.1413Z" fill="#014751"/>
    <path d="M71.7561 17.7536C71.7561 16.0941 70.7669 14.9204 69.314 14.9204C67.9015 14.9204 66.9124 16.0941 66.9124 17.7536C66.9124 19.4538 67.9015 20.6069 69.314 20.6069C70.7669 20.6069 71.7561 19.4332 71.7561 17.7536ZM75.2692 17.8546C75.2692 21.1736 73.2909 23.3793 70.2426 23.3793C68.8301 23.3793 67.6795 22.8126 66.9124 21.8011V27.1841H63.4211V12.3501H66.9124V13.787C67.6795 12.7952 68.7892 12.2285 70.1625 12.2285C73.2303 12.2285 75.2692 14.4748 75.2692 17.8546Z" fill="#014751"/>
    <path d="M94.4434 16.6827V23.2599H92.8694V17.1077C92.8694 15.2055 91.7591 14.0922 89.9221 14.0922C87.7223 14.153 86.4511 15.7316 86.4511 18.0186V23.2599H84.8563V17.1077C84.8563 15.2055 83.7662 14.0922 81.9096 14.0922C79.7294 14.153 78.4173 15.7316 78.4173 18.0186V23.2599H76.8623V12.5945H78.4173V15.0031C79.1238 13.3436 80.5571 12.5543 82.4748 12.5342C84.4728 12.5342 85.8449 13.5662 86.2896 15.3267C86.9552 13.4451 88.449 12.5543 90.4879 12.5342C92.9703 12.5342 94.4434 14.1123 94.4434 16.6827Z" fill="#014751"/>
    <path d="M97.1181 12.5943H98.672V23.2597H97.1181V12.5943ZM98.9142 9.5381C98.9142 10.1656 98.4707 10.6309 97.8852 10.6309C97.2998 10.6309 96.8557 10.1656 96.8557 9.5381C96.8557 8.91101 97.2998 8.44531 97.8852 8.44531C98.4707 8.44531 98.9142 8.91101 98.9142 9.5381Z" fill="#014751"/>
    <path d="M111.441 16.6827V23.2599H109.867V17.1077C109.867 15.2257 108.737 14.1123 106.859 14.1123C104.761 14.1329 103.469 15.5086 103.287 17.5323V23.2599H101.712V12.5945H103.287V14.9423C104.034 13.323 105.466 12.5543 107.404 12.5342C109.947 12.5342 111.441 14.1123 111.441 16.6827Z" fill="#014751"/>
    <path d="M119.625 22.5367C118.878 23.0426 118.07 23.326 117.223 23.3466C115.669 23.3466 114.518 22.4156 114.518 20.3104V14.219H112.984V12.944H114.518V10.1309H116.072V12.944L119.443 12.9238V14.219H116.072V20.0271C116.072 21.3228 116.577 21.8082 117.486 21.8082C118.03 21.8082 118.595 21.6258 119.181 21.2616L119.625 22.5367Z" fill="#014751"/>
    <path d="M3.56846 12.7958C2.44323 9.6771 3.58852 7.16927 4.41412 5.90725C5.52539 4.20841 7.2734 3.12657 8.67426 2.72252C8.67779 4.81843 8.67471 8.30187 8.67342 9.33387C7.80112 9.59007 5.25455 10.5023 3.56846 12.7958ZM9.09079 0.755604C6.9978 1.44127 4.95667 2.94772 3.34864 4.98941C1.31713 7.45261 0.164423 10.4415 0.015701 13.6446L0.0143924 13.6945C0.00697817 13.862 0.00261693 14.0298 0.00130852 14.1956L0 14.3263C0 14.4921 0.00348921 14.6569 0.00959512 14.8218L0.0109036 14.8751C0.232896 20.8931 4.19955 26.2467 9.88323 28.197L10.3949 28.3724V17.9173L10.0498 17.8797C9.48376 17.8181 8.92026 17.6925 8.37555 17.5076C6.70166 16.9374 5.26371 15.8118 4.30203 14.3263C5.2672 12.8343 6.7117 11.7075 8.39383 11.1385C8.93159 10.9566 9.48813 10.8338 10.0498 10.773L10.3949 10.7353V0.280273L9.88323 0.455627C9.61677 0.546583 9.34116 0.651092 9.09079 0.755604Z" fill="#AFE137"/>
    <path d="M14.3162 33.7251C14.3127 31.6292 14.3162 28.1458 14.3167 27.1138C15.1893 26.8575 17.7364 25.9453 19.4212 23.6522C20.5481 26.7705 19.402 29.2779 18.5764 30.5408C17.4664 32.2388 15.7175 33.3206 14.3162 33.7251ZM22.9818 21.6267L22.9792 21.5721C22.7585 15.555 18.7918 10.2013 13.1077 8.25054L12.5966 8.0752V18.5307L12.9415 18.5679C13.5076 18.6295 14.0707 18.7546 14.615 18.9396C16.2889 19.5102 17.7268 20.6354 18.6885 22.1213C17.7233 23.6137 16.2788 24.7406 14.5971 25.3091C14.0593 25.491 13.5028 25.6139 12.9415 25.6751L12.5966 25.7123V36.1682L13.1077 35.9924C13.3846 35.8966 13.6577 35.793 13.9001 35.6924C15.9936 35.0059 18.0347 33.499 19.6418 31.4578C21.6738 28.995 22.8261 26.0061 22.9753 22.7995L22.9757 22.7527C22.9835 22.5844 22.9883 22.4173 22.9896 22.2297L22.991 22.1213C22.991 21.956 22.9874 21.7907 22.9818 21.6267Z" fill="#AFE137"/>
  </g>
  <defs>
    <clipPath id="clip0_484_109">
      <rect width="120" height="36.4486" fill="white"/>
    </clipPath>
  </defs>
</svg>