<svg width="1152" height="200" viewBox="0 0 1152 200" fill="none" xmlns="http://www.w3.org/2000/svg">
<mask id="path-1-inside-1_884_1652" fill="white">
<path d="M389 0H763V200H389V0Z"/>
</mask>
<path d="M389 0H763V200H389V0Z" fill="white"/>
<path d="M391 200V0H387V200H391Z" fill="#1A535C" fill-opacity="0.2" mask="url(#path-1-inside-1_884_1652)"/>
<path d="M431.016 139V122.2H438.504C439.544 122.2 440.464 122.384 441.264 122.752C442.064 123.12 442.68 123.64 443.112 124.312C443.56 124.968 443.784 125.736 443.784 126.616C443.784 127.48 443.536 128.24 443.04 128.896C442.544 129.536 441.88 130.016 441.048 130.336C442.072 130.64 442.88 131.144 443.472 131.848C444.064 132.536 444.36 133.36 444.36 134.32C444.36 135.248 444.128 136.064 443.664 136.768C443.2 137.472 442.552 138.024 441.72 138.424C440.888 138.808 439.92 139 438.816 139H431.016ZM433.896 129.28H438.192C439.024 129.28 439.68 129.064 440.16 128.632C440.656 128.2 440.904 127.624 440.904 126.904C440.904 126.184 440.656 125.616 440.16 125.2C439.68 124.768 439.024 124.552 438.192 124.552H433.896V129.28ZM433.896 136.648H438.456C439.368 136.648 440.096 136.416 440.64 135.952C441.184 135.472 441.456 134.84 441.456 134.056C441.456 133.288 441.184 132.672 440.64 132.208C440.112 131.728 439.384 131.488 438.456 131.488H433.896V136.648ZM452.653 139.216C451.517 139.216 450.485 138.944 449.557 138.4C448.645 137.856 447.925 137.12 447.397 136.192C446.869 135.248 446.605 134.184 446.605 133C446.605 131.816 446.869 130.76 447.397 129.832C447.925 128.888 448.645 128.144 449.557 127.6C450.469 127.056 451.501 126.784 452.653 126.784C453.805 126.784 454.829 127.056 455.725 127.6C456.637 128.144 457.357 128.888 457.885 129.832C458.413 130.76 458.677 131.816 458.677 133C458.677 134.184 458.413 135.248 457.885 136.192C457.357 137.12 456.637 137.856 455.725 138.4C454.829 138.944 453.805 139.216 452.653 139.216ZM452.653 136.912C453.309 136.912 453.885 136.744 454.381 136.408C454.893 136.072 455.293 135.608 455.581 135.016C455.869 134.408 456.013 133.736 456.013 133C456.013 132.248 455.869 131.584 455.581 131.008C455.293 130.416 454.893 129.952 454.381 129.616C453.885 129.264 453.309 129.088 452.653 129.088C451.997 129.088 451.413 129.264 450.901 129.616C450.389 129.952 449.989 130.416 449.701 131.008C449.413 131.584 449.269 132.248 449.269 133C449.269 133.752 449.413 134.424 449.701 135.016C449.989 135.608 450.389 136.072 450.901 136.408C451.413 136.744 451.997 136.912 452.653 136.912ZM461.477 139V126.976H464.189V129.568C464.541 128.656 464.997 127.96 465.557 127.48C466.117 127 466.765 126.76 467.501 126.76C467.725 126.776 467.925 126.8 468.101 126.832C468.277 126.848 468.469 126.904 468.677 127V129.376C468.469 129.28 468.229 129.208 467.957 129.16C467.701 129.112 467.445 129.088 467.189 129.088C466.533 129.088 465.941 129.264 465.413 129.616C464.901 129.968 464.493 130.456 464.189 131.08V139H461.477ZM470.899 139V126.976H473.611V129.568C473.963 128.656 474.419 127.96 474.979 127.48C475.539 127 476.187 126.76 476.923 126.76C477.147 126.776 477.347 126.8 477.523 126.832C477.699 126.848 477.891 126.904 478.099 127V129.376C477.891 129.28 477.651 129.208 477.379 129.16C477.123 129.112 476.867 129.088 476.611 129.088C475.955 129.088 475.363 129.264 474.835 129.616C474.323 129.968 473.915 130.456 473.611 131.08V139H470.899ZM485.254 139.216C484.118 139.216 483.086 138.944 482.158 138.4C481.246 137.856 480.526 137.12 479.998 136.192C479.47 135.248 479.206 134.184 479.206 133C479.206 131.816 479.47 130.76 479.998 129.832C480.526 128.888 481.246 128.144 482.158 127.6C483.07 127.056 484.102 126.784 485.254 126.784C486.406 126.784 487.43 127.056 488.326 127.6C489.238 128.144 489.958 128.888 490.486 129.832C491.014 130.76 491.278 131.816 491.278 133C491.278 134.184 491.014 135.248 490.486 136.192C489.958 137.12 489.238 137.856 488.326 138.4C487.43 138.944 486.406 139.216 485.254 139.216ZM485.254 136.912C485.91 136.912 486.486 136.744 486.982 136.408C487.494 136.072 487.894 135.608 488.182 135.016C488.47 134.408 488.614 133.736 488.614 133C488.614 132.248 488.47 131.584 488.182 131.008C487.894 130.416 487.494 129.952 486.982 129.616C486.486 129.264 485.91 129.088 485.254 129.088C484.598 129.088 484.014 129.264 483.502 129.616C482.99 129.952 482.59 130.416 482.302 131.008C482.014 131.584 481.87 132.248 481.87 133C481.87 133.752 482.014 134.424 482.302 135.016C482.59 135.608 482.99 136.072 483.502 136.408C484.014 136.744 484.598 136.912 485.254 136.912ZM495.956 139L492.716 126.976H495.308L497.42 135.448L499.916 126.976H502.196L504.668 135.448L506.78 126.976H509.3L506.06 139H503.468L501.02 130.528L498.596 139H495.956ZM516.874 139.24C515.722 139.24 514.682 138.968 513.754 138.424C512.826 137.864 512.09 137.12 511.546 136.192C511.002 135.248 510.73 134.184 510.73 133C510.73 131.816 510.986 130.76 511.498 129.832C512.01 128.904 512.706 128.168 513.586 127.624C514.482 127.064 515.474 126.784 516.562 126.784C517.682 126.784 518.666 127.056 519.514 127.6C520.378 128.144 521.05 128.88 521.53 129.808C522.026 130.736 522.274 131.8 522.274 133V133.648H513.394C513.49 134.304 513.698 134.888 514.018 135.4C514.354 135.896 514.778 136.288 515.29 136.576C515.818 136.864 516.386 137.008 516.994 137.008C517.554 137.008 518.082 136.912 518.578 136.72C519.09 136.512 519.514 136.232 519.85 135.88L521.626 137.488C520.89 138.096 520.138 138.544 519.37 138.832C518.618 139.104 517.786 139.24 516.874 139.24ZM513.418 131.968H519.706C519.61 131.392 519.41 130.88 519.106 130.432C518.818 129.984 518.45 129.632 518.002 129.376C517.57 129.12 517.09 128.992 516.562 128.992C516.034 128.992 515.546 129.12 515.098 129.376C514.666 129.616 514.306 129.96 514.018 130.408C513.73 130.856 513.53 131.376 513.418 131.968ZM525.039 139V126.976H527.751V129.568C528.103 128.656 528.559 127.96 529.119 127.48C529.679 127 530.327 126.76 531.063 126.76C531.287 126.776 531.487 126.8 531.663 126.832C531.839 126.848 532.031 126.904 532.239 127V129.376C532.031 129.28 531.791 129.208 531.519 129.16C531.263 129.112 531.007 129.088 530.751 129.088C530.095 129.088 529.503 129.264 528.975 129.616C528.463 129.968 528.055 130.456 527.751 131.08V139H525.039ZM538.588 139.24C537.564 139.24 536.604 139.104 535.708 138.832C534.828 138.544 534.068 138.136 533.428 137.608L534.7 135.808C535.5 136.304 536.188 136.656 536.764 136.864C537.356 137.072 537.956 137.176 538.564 137.176C539.284 137.176 539.868 137.024 540.316 136.72C540.764 136.416 540.988 136.024 540.988 135.544C540.988 135.176 540.852 134.888 540.58 134.68C540.324 134.456 539.9 134.288 539.308 134.176L537.196 133.816C536.028 133.592 535.156 133.208 534.58 132.664C534.004 132.12 533.716 131.4 533.716 130.504C533.716 129.752 533.908 129.104 534.292 128.56C534.692 128 535.236 127.568 535.924 127.264C536.628 126.944 537.444 126.784 538.372 126.784C539.204 126.784 540.012 126.904 540.796 127.144C541.58 127.384 542.348 127.744 543.1 128.224L541.828 130.024C541.22 129.624 540.612 129.336 540.004 129.16C539.412 128.968 538.812 128.872 538.204 128.872C537.58 128.872 537.076 129 536.692 129.256C536.324 129.496 536.14 129.832 536.14 130.264C536.14 130.648 536.26 130.944 536.5 131.152C536.756 131.344 537.196 131.488 537.82 131.584L539.956 131.992C541.156 132.2 542.044 132.584 542.62 133.144C543.212 133.688 543.508 134.416 543.508 135.328C543.508 136.064 543.292 136.728 542.86 137.32C542.428 137.912 541.844 138.384 541.108 138.736C540.372 139.072 539.532 139.24 538.588 139.24ZM555.463 139.24C554.439 139.24 553.479 139.104 552.583 138.832C551.703 138.544 550.943 138.136 550.303 137.608L551.575 135.808C552.375 136.304 553.063 136.656 553.639 136.864C554.231 137.072 554.831 137.176 555.439 137.176C556.159 137.176 556.743 137.024 557.191 136.72C557.639 136.416 557.863 136.024 557.863 135.544C557.863 135.176 557.727 134.888 557.455 134.68C557.199 134.456 556.775 134.288 556.183 134.176L554.071 133.816C552.903 133.592 552.031 133.208 551.455 132.664C550.879 132.12 550.591 131.4 550.591 130.504C550.591 129.752 550.783 129.104 551.167 128.56C551.567 128 552.111 127.568 552.799 127.264C553.503 126.944 554.319 126.784 555.247 126.784C556.079 126.784 556.887 126.904 557.671 127.144C558.455 127.384 559.223 127.744 559.975 128.224L558.703 130.024C558.095 129.624 557.487 129.336 556.879 129.16C556.287 128.968 555.687 128.872 555.079 128.872C554.455 128.872 553.951 129 553.567 129.256C553.199 129.496 553.015 129.832 553.015 130.264C553.015 130.648 553.135 130.944 553.375 131.152C553.631 131.344 554.071 131.488 554.695 131.584L556.831 131.992C558.031 132.2 558.919 132.584 559.495 133.144C560.087 133.688 560.383 134.416 560.383 135.328C560.383 136.064 560.167 136.728 559.735 137.32C559.303 137.912 558.719 138.384 557.983 138.736C557.247 139.072 556.407 139.24 555.463 139.24ZM568.577 139.24C567.425 139.24 566.385 138.968 565.457 138.424C564.529 137.864 563.793 137.12 563.249 136.192C562.705 135.248 562.433 134.184 562.433 133C562.433 131.816 562.689 130.76 563.201 129.832C563.713 128.904 564.409 128.168 565.289 127.624C566.185 127.064 567.177 126.784 568.265 126.784C569.385 126.784 570.369 127.056 571.217 127.6C572.081 128.144 572.753 128.88 573.233 129.808C573.729 130.736 573.977 131.8 573.977 133V133.648H565.097C565.193 134.304 565.401 134.888 565.721 135.4C566.057 135.896 566.481 136.288 566.993 136.576C567.521 136.864 568.089 137.008 568.697 137.008C569.257 137.008 569.785 136.912 570.281 136.72C570.793 136.512 571.217 136.232 571.553 135.88L573.329 137.488C572.593 138.096 571.841 138.544 571.073 138.832C570.321 139.104 569.489 139.24 568.577 139.24ZM565.121 131.968H571.409C571.313 131.392 571.113 130.88 570.809 130.432C570.521 129.984 570.153 129.632 569.705 129.376C569.273 129.12 568.793 128.992 568.265 128.992C567.737 128.992 567.249 129.12 566.801 129.376C566.369 129.616 566.009 129.96 565.721 130.408C565.433 130.856 565.233 131.376 565.121 131.968ZM576.743 139V126.976H579.455V129.568C579.807 128.656 580.263 127.96 580.823 127.48C581.383 127 582.031 126.76 582.767 126.76C582.991 126.776 583.191 126.8 583.367 126.832C583.543 126.848 583.735 126.904 583.943 127V129.376C583.735 129.28 583.495 129.208 583.223 129.16C582.967 129.112 582.711 129.088 582.455 129.088C581.799 129.088 581.207 129.264 580.679 129.616C580.167 129.968 579.759 130.456 579.455 131.08V139H576.743ZM589.996 139L585.1 126.976H588.052L591.412 135.712L594.748 126.976H597.58L592.636 139H589.996ZM604.764 139.24C603.612 139.24 602.572 138.968 601.644 138.424C600.716 137.864 599.98 137.12 599.436 136.192C598.892 135.248 598.62 134.184 598.62 133C598.62 131.816 598.876 130.76 599.388 129.832C599.9 128.904 600.596 128.168 601.476 127.624C602.372 127.064 603.364 126.784 604.452 126.784C605.572 126.784 606.556 127.056 607.404 127.6C608.268 128.144 608.94 128.88 609.42 129.808C609.916 130.736 610.164 131.8 610.164 133V133.648H601.284C601.38 134.304 601.588 134.888 601.908 135.4C602.244 135.896 602.668 136.288 603.18 136.576C603.708 136.864 604.276 137.008 604.884 137.008C605.444 137.008 605.972 136.912 606.468 136.72C606.98 136.512 607.404 136.232 607.74 135.88L609.516 137.488C608.78 138.096 608.028 138.544 607.26 138.832C606.508 139.104 605.676 139.24 604.764 139.24ZM601.308 131.968H607.596C607.5 131.392 607.3 130.88 606.996 130.432C606.708 129.984 606.34 129.632 605.892 129.376C605.46 129.12 604.98 128.992 604.452 128.992C603.924 128.992 603.436 129.12 602.988 129.376C602.556 129.616 602.196 129.96 601.908 130.408C601.62 130.856 601.42 131.376 601.308 131.968ZM617.849 139.12C616.841 139.12 615.929 138.848 615.113 138.304C614.297 137.744 613.641 137.008 613.145 136.096C612.665 135.168 612.425 134.136 612.425 133C612.425 131.848 612.673 130.816 613.169 129.904C613.665 128.976 614.337 128.24 615.185 127.696C616.049 127.152 617.001 126.88 618.041 126.88C618.729 126.88 619.369 127.016 619.961 127.288C620.569 127.544 621.097 127.928 621.545 128.44V121.792L624.257 121.312V139H621.569V137.416C621.137 137.96 620.601 138.384 619.961 138.688C619.321 138.976 618.617 139.12 617.849 139.12ZM618.689 136.84C619.265 136.84 619.801 136.728 620.297 136.504C620.793 136.264 621.209 135.936 621.545 135.52V130.456C621.193 130.04 620.769 129.72 620.273 129.496C619.777 129.272 619.249 129.16 618.689 129.16C618.001 129.16 617.385 129.328 616.841 129.664C616.313 129.984 615.889 130.432 615.569 131.008C615.249 131.584 615.089 132.248 615.089 133C615.089 133.72 615.249 134.376 615.569 134.968C615.889 135.544 616.313 136 616.841 136.336C617.385 136.672 618.001 136.84 618.689 136.84Z" fill="#1A535C"/>
<path d="M431.352 103V97.72L445.56 83.656C446.104 83.144 446.536 82.648 446.856 82.168C447.176 81.656 447.416 81.144 447.576 80.632C447.736 80.12 447.816 79.608 447.816 79.096C447.816 78.008 447.336 77.112 446.376 76.408C445.448 75.672 444.28 75.304 442.872 75.304C441.368 75.304 439.96 75.624 438.648 76.264C437.336 76.872 435.912 77.928 434.376 79.432L430.248 74.392C432.168 72.568 434.2 71.192 436.344 70.264C438.52 69.336 440.776 68.872 443.112 68.872C445.512 68.872 447.592 69.288 449.352 70.12C451.144 70.92 452.536 72.056 453.528 73.528C454.52 74.968 455.016 76.664 455.016 78.616C455.016 79.672 454.856 80.696 454.536 81.688C454.248 82.648 453.784 83.592 453.144 84.52C452.504 85.448 451.672 86.408 450.648 87.4L440.952 96.76L455.496 96.712V103H431.352ZM465.045 103.528C463.829 103.528 462.773 103.096 461.877 102.232C461.013 101.336 460.581 100.28 460.581 99.064C460.581 97.848 461.013 96.808 461.877 95.944C462.773 95.048 463.829 94.6 465.045 94.6C466.261 94.6 467.301 95.048 468.165 95.944C469.061 96.808 469.509 97.848 469.509 99.064C469.509 100.28 469.061 101.336 468.165 102.232C467.301 103.096 466.261 103.528 465.045 103.528ZM487.856 103.528C485.264 103.528 482.976 103.112 480.992 102.28C479.04 101.416 477.504 100.232 476.384 98.728C475.296 97.224 474.752 95.48 474.752 93.496C474.752 92.312 475.008 91.208 475.52 90.184C476.064 89.16 476.816 88.264 477.776 87.496C478.736 86.728 479.84 86.152 481.088 85.768C479.488 85.128 478.192 84.168 477.2 82.888C476.208 81.608 475.712 80.184 475.712 78.616C475.712 76.76 476.24 75.096 477.296 73.624C478.384 72.152 479.84 71 481.664 70.168C483.488 69.304 485.552 68.872 487.856 68.872C490.16 68.872 492.224 69.304 494.048 70.168C495.904 71 497.36 72.152 498.416 73.624C499.472 75.096 500 76.76 500 78.616C500 80.184 499.504 81.608 498.512 82.888C497.52 84.168 496.224 85.128 494.624 85.768C496.512 86.376 498.032 87.368 499.184 88.744C500.368 90.12 500.96 91.704 500.96 93.496C500.96 95.48 500.4 97.224 499.28 98.728C498.192 100.232 496.656 101.416 494.672 102.28C492.72 103.112 490.448 103.528 487.856 103.528ZM487.856 83.272C488.784 83.272 489.616 83.096 490.352 82.744C491.088 82.392 491.664 81.912 492.08 81.304C492.496 80.664 492.704 79.944 492.704 79.144C492.704 78.344 492.496 77.64 492.08 77.032C491.664 76.392 491.088 75.896 490.352 75.544C489.616 75.192 488.784 75.016 487.856 75.016C486.928 75.016 486.096 75.192 485.36 75.544C484.624 75.896 484.048 76.392 483.632 77.032C483.216 77.64 483.008 78.344 483.008 79.144C483.008 79.944 483.216 80.664 483.632 81.304C484.048 81.912 484.624 82.392 485.36 82.744C486.096 83.096 486.928 83.272 487.856 83.272ZM487.856 97.336C488.976 97.336 489.952 97.16 490.784 96.808C491.616 96.424 492.272 95.896 492.752 95.224C493.232 94.552 493.472 93.8 493.472 92.968C493.472 92.104 493.232 91.352 492.752 90.712C492.272 90.04 491.616 89.528 490.784 89.176C489.952 88.792 488.976 88.6 487.856 88.6C486.768 88.6 485.792 88.792 484.928 89.176C484.096 89.528 483.44 90.04 482.96 90.712C482.48 91.352 482.24 92.104 482.24 92.968C482.24 93.8 482.48 94.552 482.96 95.224C483.44 95.896 484.096 96.424 484.928 96.808C485.792 97.16 486.768 97.336 487.856 97.336ZM518.814 103V69.4L526.59 68.2V103H518.814ZM541.409 103.432C539.617 103.432 538.017 103.096 536.609 102.424C535.233 101.752 534.145 100.824 533.345 99.64C532.577 98.456 532.193 97.096 532.193 95.56C532.193 93.128 533.105 91.256 534.929 89.944C536.785 88.6 539.361 87.928 542.657 87.928C544.641 87.928 546.561 88.168 548.417 88.648V87.4C548.417 86.12 548.001 85.176 547.169 84.568C546.369 83.928 545.169 83.608 543.569 83.608C542.577 83.608 541.457 83.768 540.209 84.088C538.993 84.408 537.553 84.92 535.889 85.624L533.105 79.912C535.185 78.984 537.185 78.296 539.105 77.848C541.057 77.368 543.009 77.128 544.961 77.128C548.481 77.128 551.217 77.976 553.169 79.672C555.121 81.336 556.097 83.688 556.097 86.728V103H548.417V101.464C547.393 102.168 546.305 102.68 545.153 103C544.033 103.288 542.785 103.432 541.409 103.432ZM539.585 95.416C539.585 96.216 539.937 96.84 540.641 97.288C541.345 97.736 542.321 97.96 543.569 97.96C544.497 97.96 545.361 97.864 546.161 97.672C546.993 97.48 547.745 97.176 548.417 96.76V93.496C547.681 93.304 546.929 93.16 546.161 93.064C545.393 92.968 544.609 92.92 543.809 92.92C542.465 92.92 541.425 93.144 540.689 93.592C539.953 94.008 539.585 94.616 539.585 95.416ZM562.639 103V69.4L570.415 68.2V87.976L580.543 77.608H589.231L577.951 89.08L589.999 103H580.159L570.415 91.624V103H562.639ZM593.199 103V69.4L600.975 67.72V79.336C602.895 77.864 605.167 77.128 607.791 77.128C609.775 77.128 611.519 77.56 613.023 78.424C614.559 79.288 615.759 80.488 616.623 82.024C617.487 83.56 617.919 85.336 617.919 87.352V103H610.143V88.408C610.143 87 609.727 85.88 608.895 85.048C608.063 84.216 606.943 83.8 605.535 83.8C604.543 83.8 603.663 83.976 602.895 84.328C602.159 84.68 601.519 85.176 600.975 85.816V103H593.199Z" fill="#15B776"/>
<mask id="path-5-inside-2_884_1652" fill="white">
<path d="M778 0H1152V200H778V0Z"/>
</mask>
<path d="M778 0H1152V200H778V0Z" fill="white"/>
<path d="M780 200V0H776V200H780Z" fill="#1A535C" fill-opacity="0.2" mask="url(#path-5-inside-2_884_1652)"/>
<path d="M822.016 139V122.2H829.48C830.584 122.2 831.56 122.416 832.408 122.848C833.256 123.28 833.912 123.88 834.376 124.648C834.856 125.4 835.096 126.28 835.096 127.288C835.096 128.376 834.792 129.328 834.184 130.144C833.592 130.944 832.784 131.528 831.76 131.896L835.312 139H832.12L828.88 132.28H824.896V139H822.016ZM824.896 129.976H829.216C830.112 129.976 830.832 129.736 831.376 129.256C831.92 128.76 832.192 128.112 832.192 127.312C832.192 126.496 831.92 125.848 831.376 125.368C830.832 124.872 830.112 124.624 829.216 124.624H824.896V129.976ZM842.788 139.24C841.636 139.24 840.596 138.968 839.668 138.424C838.74 137.864 838.004 137.12 837.46 136.192C836.916 135.248 836.644 134.184 836.644 133C836.644 131.816 836.9 130.76 837.412 129.832C837.924 128.904 838.62 128.168 839.5 127.624C840.396 127.064 841.388 126.784 842.476 126.784C843.596 126.784 844.58 127.056 845.428 127.6C846.292 128.144 846.964 128.88 847.444 129.808C847.94 130.736 848.188 131.8 848.188 133V133.648H839.308C839.404 134.304 839.612 134.888 839.932 135.4C840.268 135.896 840.692 136.288 841.204 136.576C841.732 136.864 842.3 137.008 842.908 137.008C843.468 137.008 843.996 136.912 844.492 136.72C845.004 136.512 845.428 136.232 845.764 135.88L847.54 137.488C846.804 138.096 846.052 138.544 845.284 138.832C844.532 139.104 843.7 139.24 842.788 139.24ZM839.332 131.968H845.62C845.524 131.392 845.324 130.88 845.02 130.432C844.732 129.984 844.364 129.632 843.916 129.376C843.484 129.12 843.004 128.992 842.476 128.992C841.948 128.992 841.46 129.12 841.012 129.376C840.58 129.616 840.22 129.96 839.932 130.408C839.644 130.856 839.444 131.376 839.332 131.968ZM855.872 139.12C854.864 139.12 853.952 138.848 853.136 138.304C852.32 137.744 851.664 137.008 851.168 136.096C850.688 135.168 850.448 134.136 850.448 133C850.448 131.848 850.696 130.816 851.192 129.904C851.688 128.976 852.36 128.24 853.208 127.696C854.072 127.152 855.024 126.88 856.064 126.88C856.752 126.88 857.392 127.016 857.984 127.288C858.592 127.544 859.12 127.928 859.568 128.44V121.792L862.28 121.312V139H859.592V137.416C859.16 137.96 858.624 138.384 857.984 138.688C857.344 138.976 856.64 139.12 855.872 139.12ZM856.712 136.84C857.288 136.84 857.824 136.728 858.32 136.504C858.816 136.264 859.232 135.936 859.568 135.52V130.456C859.216 130.04 858.792 129.72 858.296 129.496C857.8 129.272 857.272 129.16 856.712 129.16C856.024 129.16 855.408 129.328 854.864 129.664C854.336 129.984 853.912 130.432 853.592 131.008C853.272 131.584 853.112 132.248 853.112 133C853.112 133.72 853.272 134.376 853.592 134.968C853.912 135.544 854.336 136 854.864 136.336C855.408 136.672 856.024 136.84 856.712 136.84ZM869.753 139.192C868.921 139.192 868.193 139.008 867.569 138.64C866.945 138.272 866.449 137.768 866.081 137.128C865.729 136.488 865.553 135.744 865.553 134.896V126.976H868.289V134.104C868.289 135 868.521 135.712 868.985 136.24C869.465 136.752 870.113 137.008 870.929 137.008C871.473 137.008 871.961 136.888 872.393 136.648C872.841 136.408 873.225 136.048 873.545 135.568V126.976H876.257V139H873.545V137.056C873.081 137.76 872.529 138.296 871.889 138.664C871.249 139.016 870.537 139.192 869.753 139.192ZM885.138 139.216C884.002 139.216 882.97 138.944 882.042 138.4C881.13 137.84 880.402 137.088 879.858 136.144C879.33 135.2 879.066 134.152 879.066 133C879.066 131.832 879.33 130.784 879.858 129.856C880.402 128.912 881.13 128.168 882.042 127.624C882.97 127.064 884.002 126.784 885.138 126.784C886.066 126.784 886.946 126.96 887.778 127.312C888.626 127.664 889.346 128.168 889.938 128.824L888.258 130.576C887.842 130.112 887.378 129.76 886.866 129.52C886.354 129.28 885.81 129.16 885.234 129.16C884.578 129.16 883.986 129.336 883.458 129.688C882.946 130.024 882.538 130.48 882.234 131.056C881.93 131.632 881.778 132.28 881.778 133C881.778 133.72 881.93 134.376 882.234 134.968C882.538 135.544 882.946 136 883.458 136.336C883.986 136.672 884.578 136.84 885.234 136.84C885.81 136.84 886.354 136.72 886.866 136.48C887.378 136.24 887.842 135.896 888.258 135.448L889.938 137.176C889.346 137.832 888.626 138.336 887.778 138.688C886.946 139.04 886.066 139.216 885.138 139.216ZM897.598 139.24C896.382 139.24 895.462 138.96 894.838 138.4C894.214 137.824 893.902 136.984 893.902 135.88V129.136H891.502V126.976H893.902V123.664L896.614 123.088V126.976H899.95V129.136H896.614V135.28C896.614 135.872 896.742 136.296 896.998 136.552C897.254 136.792 897.686 136.912 898.294 136.912C898.566 136.912 898.814 136.896 899.038 136.864C899.278 136.816 899.574 136.736 899.926 136.624V138.904C899.59 139.016 899.206 139.096 898.774 139.144C898.358 139.208 897.966 139.24 897.598 139.24ZM902.328 139V126.976H905.04V139H902.328ZM903.696 124.528C903.232 124.528 902.832 124.368 902.496 124.048C902.176 123.712 902.016 123.32 902.016 122.872C902.016 122.408 902.176 122.016 902.496 121.696C902.832 121.36 903.232 121.192 903.696 121.192C904.16 121.192 904.552 121.36 904.872 121.696C905.208 122.016 905.376 122.4 905.376 122.848C905.376 123.312 905.208 123.712 904.872 124.048C904.552 124.368 904.16 124.528 903.696 124.528ZM913.895 139.216C912.759 139.216 911.727 138.944 910.799 138.4C909.887 137.856 909.167 137.12 908.639 136.192C908.111 135.248 907.847 134.184 907.847 133C907.847 131.816 908.111 130.76 908.639 129.832C909.167 128.888 909.887 128.144 910.799 127.6C911.711 127.056 912.743 126.784 913.895 126.784C915.047 126.784 916.071 127.056 916.967 127.6C917.879 128.144 918.599 128.888 919.127 129.832C919.655 130.76 919.919 131.816 919.919 133C919.919 134.184 919.655 135.248 919.127 136.192C918.599 137.12 917.879 137.856 916.967 138.4C916.071 138.944 915.047 139.216 913.895 139.216ZM913.895 136.912C914.551 136.912 915.127 136.744 915.623 136.408C916.135 136.072 916.535 135.608 916.823 135.016C917.111 134.408 917.255 133.736 917.255 133C917.255 132.248 917.111 131.584 916.823 131.008C916.535 130.416 916.135 129.952 915.623 129.616C915.127 129.264 914.551 129.088 913.895 129.088C913.239 129.088 912.655 129.264 912.143 129.616C911.631 129.952 911.231 130.416 910.943 131.008C910.655 131.584 910.511 132.248 910.511 133C910.511 133.752 910.655 134.424 910.943 135.016C911.231 135.608 911.631 136.072 912.143 136.408C912.655 136.744 913.239 136.912 913.895 136.912ZM922.719 139V126.976H925.431V128.944C925.895 128.224 926.447 127.688 927.087 127.336C927.727 126.968 928.439 126.784 929.223 126.784C930.055 126.784 930.783 126.968 931.407 127.336C932.031 127.688 932.519 128.184 932.871 128.824C933.239 129.464 933.423 130.216 933.423 131.08V139H930.687V131.848C930.687 130.968 930.447 130.272 929.967 129.76C929.487 129.232 928.847 128.968 928.047 128.968C927.503 128.968 927.007 129.096 926.559 129.352C926.127 129.592 925.751 129.952 925.431 130.432V139H922.719ZM942.054 139V126.976H944.766V139H942.054ZM943.422 124.528C942.958 124.528 942.558 124.368 942.222 124.048C941.902 123.712 941.742 123.32 941.742 122.872C941.742 122.408 941.902 122.016 942.222 121.696C942.558 121.36 942.958 121.192 943.422 121.192C943.886 121.192 944.278 121.36 944.598 121.696C944.934 122.016 945.102 122.4 945.102 122.848C945.102 123.312 944.934 123.712 944.598 124.048C944.278 124.368 943.886 124.528 943.422 124.528ZM948.125 139V126.976H950.837V128.944C951.301 128.224 951.853 127.688 952.493 127.336C953.133 126.968 953.845 126.784 954.629 126.784C955.461 126.784 956.189 126.968 956.813 127.336C957.437 127.688 957.925 128.184 958.277 128.824C958.645 129.464 958.829 130.216 958.829 131.08V139H956.093V131.848C956.093 130.968 955.853 130.272 955.373 129.76C954.893 129.232 954.253 128.968 953.453 128.968C952.909 128.968 952.413 129.096 951.965 129.352C951.533 129.592 951.157 129.952 950.837 130.432V139H948.125ZM967.821 139V122.2H970.629L979.389 134.416L979.341 122.2H982.053V139H979.485L970.485 126.448L970.533 139H967.821ZM986.079 139V122.2H993.591C994.727 122.2 995.711 122.424 996.543 122.872C997.391 123.304 998.047 123.912 998.511 124.696C998.975 125.48 999.207 126.392 999.207 127.432C999.207 128.424 998.975 129.312 998.511 130.096C998.047 130.88 997.391 131.496 996.543 131.944C995.711 132.376 994.727 132.592 993.591 132.592H988.959V139H986.079ZM988.959 130.24H993.135C994.159 130.24 994.943 129.984 995.487 129.472C996.031 128.944 996.303 128.256 996.303 127.408C996.303 126.576 996.031 125.904 995.487 125.392C994.943 124.88 994.167 124.624 993.159 124.624H988.959V130.24ZM998.339 139L1004.94 122.2H1008.28L1014.78 139H1011.68L1009.96 134.296H1003.07L1001.34 139H998.339ZM1003.91 132.04H1009.16L1006.52 124.936L1003.91 132.04Z" fill="#1A535C"/>
<path d="M827.824 103V77.272L820.864 80.056V73.336L830.704 69.4H835.6V103H827.824ZM853.65 103.528C848.946 103.528 844.85 102.024 841.362 99.016L845.778 93.88C847.186 95.032 848.546 95.864 849.858 96.376C851.17 96.888 852.562 97.144 854.034 97.144C855.218 97.144 856.242 96.952 857.106 96.568C857.97 96.152 858.642 95.576 859.122 94.84C859.634 94.104 859.89 93.256 859.89 92.296C859.89 90.888 859.298 89.72 858.114 88.792C856.962 87.864 855.49 87.4 853.698 87.4C852.77 87.4 851.842 87.528 850.914 87.784C849.986 88.04 849.042 88.44 848.082 88.984L842.898 87.448L843.714 69.4H865.698V75.688H849.906L849.57 83.224C850.594 82.712 851.65 82.328 852.738 82.072C853.826 81.816 854.962 81.688 856.146 81.688C858.418 81.688 860.402 82.12 862.098 82.984C863.794 83.816 865.106 85 866.034 86.536C866.994 88.072 867.474 89.864 867.474 91.912C867.474 94.216 866.898 96.248 865.746 98.008C864.594 99.736 862.978 101.096 860.898 102.088C858.818 103.048 856.402 103.528 853.65 103.528ZM880.203 86.44C877.803 86.44 875.883 85.656 874.443 84.088C873.035 82.488 872.331 80.376 872.331 77.752C872.331 75.16 873.051 73.08 874.491 71.512C875.931 69.912 877.835 69.112 880.203 69.112C882.571 69.112 884.475 69.912 885.915 71.512C887.355 73.08 888.075 75.16 888.075 77.752C888.075 80.376 887.355 82.488 885.915 84.088C884.507 85.656 882.603 86.44 880.203 86.44ZM880.203 82.408C881.259 82.408 882.075 82.008 882.651 81.208C883.259 80.376 883.563 79.224 883.563 77.752C883.563 76.344 883.259 75.224 882.651 74.392C882.043 73.56 881.227 73.144 880.203 73.144C879.179 73.144 878.363 73.56 877.755 74.392C877.179 75.224 876.891 76.344 876.891 77.752C876.891 79.224 877.179 80.376 877.755 81.208C878.331 82.008 879.147 82.408 880.203 82.408ZM878.235 103L897.291 69.4H903.003L883.899 103H878.235ZM901.611 103.24C899.211 103.24 897.291 102.456 895.851 100.888C894.443 99.288 893.739 97.176 893.739 94.552C893.739 91.96 894.459 89.88 895.899 88.312C897.339 86.712 899.243 85.912 901.611 85.912C903.979 85.912 905.883 86.712 907.323 88.312C908.763 89.88 909.483 91.96 909.483 94.552C909.483 97.176 908.763 99.288 907.323 100.888C905.915 102.456 904.011 103.24 901.611 103.24ZM901.611 99.208C902.667 99.208 903.483 98.808 904.059 98.008C904.667 97.176 904.971 96.024 904.971 94.552C904.971 93.144 904.667 92.024 904.059 91.192C903.451 90.36 902.635 89.944 901.611 89.944C900.587 89.944 899.771 90.36 899.163 91.192C898.587 92.024 898.299 93.144 898.299 94.552C898.299 96.024 898.587 97.176 899.163 98.008C899.739 98.808 900.555 99.208 901.611 99.208Z" fill="#15B776"/>
<path d="M0 0H374V200H0V0Z" fill="white"/>
<path d="M43.896 139V122.2H46.776V139H43.896ZM50.3597 139V126.976H53.0717V128.944C53.5357 128.224 54.0877 127.688 54.7277 127.336C55.3677 126.968 56.0797 126.784 56.8637 126.784C57.6957 126.784 58.4237 126.968 59.0477 127.336C59.6717 127.688 60.1597 128.184 60.5117 128.824C60.8797 129.464 61.0637 130.216 61.0637 131.08V139H58.3277V131.848C58.3277 130.968 58.0877 130.272 57.6077 129.76C57.1277 129.232 56.4877 128.968 55.6877 128.968C55.1437 128.968 54.6477 129.096 54.1997 129.352C53.7677 129.592 53.3917 129.952 53.0717 130.432V139H50.3597ZM68.1831 139L74.7831 122.2H78.1191L84.6231 139H81.5271L79.7991 134.296H72.9111L71.1831 139H68.1831ZM73.7511 132.04H79.0071L76.3671 124.936L73.7511 132.04ZM92.9938 139.264C91.5698 139.264 90.3218 138.96 89.2498 138.352C88.1938 137.744 87.3778 136.88 86.8018 135.76C86.2258 134.64 85.9378 133.32 85.9378 131.8V122.2H88.8178V131.8C88.8178 132.792 88.9858 133.648 89.3218 134.368C89.6738 135.088 90.1618 135.656 90.7858 136.072C91.4098 136.472 92.1458 136.672 92.9938 136.672C93.8418 136.672 94.5778 136.472 95.2018 136.072C95.8418 135.656 96.3298 135.088 96.6658 134.368C97.0018 133.648 97.1698 132.792 97.1698 131.8V122.2H100.05V131.8C100.05 133.32 99.7618 134.64 99.1858 135.76C98.6258 136.88 97.8178 137.744 96.7618 138.352C95.7058 138.96 94.4498 139.264 92.9938 139.264ZM103.735 139V122.2H107.479L112.399 132.4L117.295 122.2H121.039V139H118.327V125.848L112.375 137.8L106.399 125.776V139H103.735Z" fill="#1A535C"/>
<path d="M56.64 103.528C53.952 103.528 51.44 103.048 49.104 102.088C46.8 101.128 44.896 99.8 43.392 98.104L48.384 93.496C49.632 94.84 50.832 95.768 51.984 96.28C53.168 96.792 54.688 97.048 56.544 97.048C57.76 97.048 58.816 96.888 59.712 96.568C60.64 96.216 61.344 95.736 61.824 95.128C62.336 94.488 62.592 93.752 62.592 92.92C62.592 92.184 62.4 91.56 62.016 91.048C61.664 90.536 61.152 90.136 60.48 89.848C59.84 89.56 59.072 89.416 58.176 89.416H53.856V83.32H57.408C58.784 83.32 59.856 83 60.624 82.36C61.392 81.688 61.776 80.76 61.776 79.576C61.776 78.776 61.536 78.072 61.056 77.464C60.608 76.824 59.984 76.328 59.184 75.976C58.416 75.624 57.52 75.448 56.496 75.448C54.864 75.448 53.472 75.736 52.32 76.312C51.2 76.856 49.984 77.848 48.672 79.288L43.632 74.728C45.232 72.904 47.184 71.48 49.488 70.456C51.824 69.4 54.256 68.872 56.784 68.872C59.248 68.872 61.408 69.288 63.264 70.12C65.12 70.92 66.576 72.056 67.632 73.528C68.688 74.968 69.216 76.648 69.216 78.568C69.216 80.392 68.624 81.992 67.44 83.368C66.256 84.744 64.72 85.704 62.832 86.248C65.04 86.664 66.8 87.528 68.112 88.84C69.424 90.12 70.08 91.688 70.08 93.544C70.08 95.464 69.504 97.176 68.352 98.68C67.2 100.184 65.616 101.368 63.6 102.232C61.584 103.096 59.264 103.528 56.64 103.528ZM90.7635 103.528C87.7235 103.528 85.0515 102.808 82.7475 101.368C80.4755 99.928 78.6995 97.912 77.4195 95.32C76.1715 92.696 75.5475 89.656 75.5475 86.2C75.5475 82.712 76.1715 79.672 77.4195 77.08C78.6995 74.488 80.4755 72.472 82.7475 71.032C85.0515 69.592 87.7235 68.872 90.7635 68.872C93.8035 68.872 96.4595 69.592 98.7315 71.032C101.035 72.472 102.811 74.488 104.059 77.08C105.339 79.672 105.979 82.712 105.979 86.2C105.979 89.656 105.339 92.696 104.059 95.32C102.811 97.912 101.035 99.928 98.7315 101.368C96.4595 102.808 93.8035 103.528 90.7635 103.528ZM90.7635 96.808C92.3315 96.808 93.6755 96.392 94.7955 95.56C95.9475 94.696 96.8275 93.464 97.4355 91.864C98.0755 90.264 98.3955 88.376 98.3955 86.2C98.3955 83.992 98.0755 82.104 97.4355 80.536C96.8275 78.936 95.9475 77.72 94.7955 76.888C93.6755 76.024 92.3315 75.592 90.7635 75.592C89.1955 75.592 87.8355 76.024 86.6835 76.888C85.5635 77.72 84.6835 78.936 84.0435 80.536C83.4355 82.104 83.1315 83.992 83.1315 86.2C83.1315 88.376 83.4355 90.264 84.0435 91.864C84.6835 93.464 85.5635 94.696 86.6835 95.56C87.8355 96.392 89.1955 96.808 90.7635 96.808ZM126.012 103.528C122.972 103.528 120.3 102.808 117.996 101.368C115.724 99.928 113.948 97.912 112.668 95.32C111.42 92.696 110.796 89.656 110.796 86.2C110.796 82.712 111.42 79.672 112.668 77.08C113.948 74.488 115.724 72.472 117.996 71.032C120.3 69.592 122.972 68.872 126.012 68.872C129.052 68.872 131.708 69.592 133.98 71.032C136.284 72.472 138.06 74.488 139.308 77.08C140.588 79.672 141.228 82.712 141.228 86.2C141.228 89.656 140.588 92.696 139.308 95.32C138.06 97.912 136.284 99.928 133.98 101.368C131.708 102.808 129.052 103.528 126.012 103.528ZM126.012 96.808C127.58 96.808 128.924 96.392 130.044 95.56C131.196 94.696 132.076 93.464 132.684 91.864C133.324 90.264 133.644 88.376 133.644 86.2C133.644 83.992 133.324 82.104 132.684 80.536C132.076 78.936 131.196 77.72 130.044 76.888C128.924 76.024 127.58 75.592 126.012 75.592C124.444 75.592 123.084 76.024 121.932 76.888C120.812 77.72 119.932 78.936 119.292 80.536C118.684 82.104 118.38 83.992 118.38 86.2C118.38 88.376 118.684 90.264 119.292 91.864C119.932 93.464 120.812 94.696 121.932 95.56C123.084 96.392 124.444 96.808 126.012 96.808ZM170.587 103.48C168.059 103.48 165.771 102.904 163.723 101.752C161.707 100.6 160.107 99.032 158.923 97.048C157.739 95.032 157.147 92.792 157.147 90.328C157.147 87.832 157.739 85.592 158.923 83.608C160.107 81.624 161.707 80.056 163.723 78.904C165.771 77.72 168.059 77.128 170.587 77.128C172.667 77.128 174.651 77.544 176.539 78.376C178.427 79.176 180.027 80.328 181.339 81.832L176.587 86.776C175.691 85.752 174.779 85.016 173.851 84.568C172.923 84.088 171.899 83.848 170.779 83.848C169.659 83.848 168.651 84.136 167.755 84.712C166.859 85.256 166.155 86.024 165.643 87.016C165.131 87.976 164.875 89.08 164.875 90.328C164.875 91.544 165.131 92.648 165.643 93.64C166.187 94.6 166.923 95.368 167.851 95.944C168.779 96.488 169.819 96.76 170.971 96.76C172.027 96.76 173.003 96.536 173.899 96.088C174.795 95.64 175.659 94.952 176.491 94.024L181.099 98.824C179.819 100.296 178.251 101.448 176.395 102.28C174.539 103.08 172.603 103.48 170.587 103.48ZM186.094 103V77.608H193.87V80.152C194.702 79.128 195.678 78.36 196.798 77.848C197.918 77.304 199.166 77.032 200.542 77.032C201.918 77.064 202.894 77.272 203.47 77.656V84.424C202.958 84.168 202.382 83.976 201.742 83.848C201.102 83.72 200.446 83.656 199.774 83.656C198.558 83.656 197.422 83.944 196.366 84.52C195.342 85.064 194.51 85.848 193.87 86.872V103H186.094Z" fill="#15B776"/>
</svg>
