<svg width="24" height="24" viewBox="0 0 24 24" fill="none" xmlns="http://www.w3.org/2000/svg">
<g clip-path="url(#clip0_2344_809)">
<path d="M0.5227 8.01117H5.43765V23.8201H0.5227V8.01117ZM2.98031 0.152832C4.55119 0.152832 5.8278 1.42945 5.8278 3.00296C5.8278 4.57489 4.55119 5.85151 2.98031 5.85151C1.40574 5.85151 0.132812 4.57489 0.132812 3.00296C0.132812 1.42945 1.40574 0.152832 2.98031 0.152832Z" fill="#210076"/>
<path d="M8.51562 8.0111H13.2285V10.1729H13.2957C13.9517 8.92944 15.5549 7.61963 17.9446 7.61963C22.9201 7.61963 23.8385 10.8928 23.8385 15.1495V23.82H18.9272V16.1321C18.9272 14.2983 18.8953 11.9403 16.374 11.9403C13.817 11.9403 13.4269 13.939 13.4269 16.0004V23.82H8.51562V8.0111Z" fill="#210076"/>
</g>
<defs>
<clipPath id="clip0_2344_809">
<rect width="24" height="24" fill="white"/>
</clipPath>
</defs>
</svg>
