<svg width="40" height="40" viewBox="0 0 40 40" fill="none" xmlns="http://www.w3.org/2000/svg">
<rect width="40" height="40" fill="#D9FFF5"/>
<path d="M28.2734 24.2957V31.7756H10.6542V24.2957H8V34.4298H30.9225V24.2957H28.2734Z" fill="#210076"/>
<path d="M13.0781 29.3628H25.8527V26.9499H13.0781V29.3628ZM13.3334 23.5924L25.7427 26.1969L26.2532 23.72L13.8442 21.1156L13.3334 23.5924ZM14.9677 17.6432L26.4576 23.0051L27.5299 20.7071L16.04 15.3451L14.9677 17.6432ZM18.1592 12.0004L27.9128 20.1198L29.5471 18.1793L19.7676 10.0599L18.1592 12.0004ZM24.4404 6L22.3974 7.50637L29.9553 17.6941L31.9979 16.1877L24.4404 6Z" fill="#210076"/>
</svg>
