<svg width="24" height="24" viewBox="0 0 24 24" fill="none" xmlns="http://www.w3.org/2000/svg">
<path d="M7.58915 21.6209C16.5365 21.6209 21.4294 14.2083 21.4294 7.78071C21.4294 7.56996 21.4251 7.36052 21.4154 7.15188C22.3651 6.46536 23.1907 5.60866 23.8422 4.63316C22.9705 5.02041 22.0326 5.28121 21.0487 5.39897C22.0529 4.79675 22.824 3.8439 23.1875 2.70822C22.2473 3.26539 21.2068 3.67082 20.099 3.88894C19.2112 2.94347 17.9472 2.35205 16.5484 2.35205C13.8619 2.35205 11.6832 4.53068 11.6832 7.21616C11.6832 7.59788 11.7259 7.96906 11.8094 8.32523C7.7667 8.12186 4.18185 6.18612 1.78298 3.243C1.36491 3.96165 1.12413 4.79701 1.12413 5.68796C1.12413 7.37554 1.98293 8.86528 3.28879 9.73699C2.49084 9.71249 1.74136 9.49331 1.08567 9.12845C1.08461 9.14874 1.08461 9.16902 1.08461 9.19036C1.08461 11.5465 2.76166 13.5131 4.98717 13.9591C4.57858 14.0703 4.14865 14.1301 3.70476 14.1301C3.39127 14.1301 3.08647 14.099 2.79037 14.0424C3.40971 15.9749 5.2053 17.3812 7.33467 17.4209C5.66948 18.7257 3.57225 19.5031 1.29325 19.5031C0.900733 19.5031 0.51348 19.4808 0.132812 19.4357C2.28562 20.8156 4.84176 21.6209 7.58915 21.6209Z" fill="#210076"/>
</svg>
