<svg width="451" height="411" viewBox="0 0 451 411" fill="none" xmlns="http://www.w3.org/2000/svg">
<g filter="url(#filter0_d_1927_709)">
<path d="M272 74C272 72.8954 272.895 72 274 72H446C447.105 72 448 72.8954 448 74V87C448 100.255 437.255 111 424 111H274C272.895 111 272 110.105 272 109V74Z" fill="white"/>
<path d="M272.5 74C272.5 73.1716 273.172 72.5 274 72.5H446C446.828 72.5 447.5 73.1716 447.5 74V87C447.5 99.9787 436.979 110.5 424 110.5H274C273.172 110.5 272.5 109.828 272.5 109V74Z" stroke="#675AF9" stroke-opacity="0.5"/>
</g>
<path d="M292.932 96V88.98L291.444 89.616V88.452L293.412 87.6H294.24V96H292.932ZM295.378 97.992L296.182 94.824H297.55L296.386 97.992H295.378ZM301.67 96.132C301.062 96.132 300.522 96.028 300.05 95.82C299.586 95.612 299.218 95.324 298.946 94.956C298.682 94.58 298.55 94.156 298.55 93.684C298.55 93.364 298.626 93.068 298.778 92.796C298.93 92.516 299.142 92.276 299.414 92.076C299.686 91.868 299.998 91.72 300.35 91.632C299.902 91.48 299.538 91.236 299.258 90.9C298.978 90.564 298.838 90.188 298.838 89.772C298.838 89.332 298.962 88.94 299.21 88.596C299.458 88.244 299.794 87.968 300.218 87.768C300.65 87.568 301.134 87.468 301.67 87.468C302.214 87.468 302.698 87.568 303.122 87.768C303.554 87.968 303.89 88.244 304.13 88.596C304.378 88.94 304.502 89.332 304.502 89.772C304.502 90.188 304.362 90.564 304.082 90.9C303.802 91.236 303.438 91.48 302.99 91.632C303.518 91.768 303.95 92.024 304.286 92.4C304.622 92.776 304.79 93.204 304.79 93.684C304.79 94.156 304.658 94.58 304.394 94.956C304.13 95.324 303.762 95.612 303.29 95.82C302.818 96.028 302.278 96.132 301.67 96.132ZM301.67 91.152C301.966 91.152 302.23 91.096 302.462 90.984C302.694 90.864 302.878 90.708 303.014 90.516C303.15 90.316 303.218 90.092 303.218 89.844C303.218 89.596 303.15 89.376 303.014 89.184C302.878 88.984 302.694 88.828 302.462 88.716C302.23 88.604 301.966 88.548 301.67 88.548C301.374 88.548 301.11 88.604 300.878 88.716C300.646 88.828 300.462 88.984 300.326 89.184C300.19 89.376 300.122 89.596 300.122 89.844C300.122 90.092 300.19 90.316 300.326 90.516C300.462 90.708 300.646 90.864 300.878 90.984C301.11 91.096 301.374 91.152 301.67 91.152ZM301.67 95.052C302.022 95.052 302.33 94.992 302.594 94.872C302.866 94.744 303.078 94.568 303.23 94.344C303.39 94.12 303.47 93.876 303.47 93.612C303.47 93.332 303.39 93.084 303.23 92.868C303.078 92.644 302.866 92.472 302.594 92.352C302.33 92.224 302.022 92.16 301.67 92.16C301.326 92.16 301.018 92.224 300.746 92.352C300.474 92.472 300.258 92.64 300.098 92.856C299.946 93.072 299.87 93.32 299.87 93.6C299.87 93.88 299.946 94.132 300.098 94.356C300.258 94.572 300.474 94.744 300.746 94.872C301.018 94.992 301.326 95.052 301.67 95.052ZM308.825 96.132C308.201 96.132 307.621 96.024 307.085 95.808C306.549 95.584 306.093 95.272 305.717 94.872L306.593 94.032C306.929 94.384 307.265 94.632 307.601 94.776C307.937 94.912 308.337 94.98 308.801 94.98C309.169 94.98 309.489 94.924 309.761 94.812C310.041 94.692 310.257 94.528 310.409 94.32C310.561 94.112 310.637 93.868 310.637 93.588C310.637 93.34 310.573 93.12 310.445 92.928C310.317 92.736 310.141 92.588 309.917 92.484C309.693 92.372 309.433 92.316 309.137 92.316H308.105V91.212H309.029C309.437 91.212 309.761 91.1 310.001 90.876C310.249 90.652 310.373 90.348 310.373 89.964C310.373 89.716 310.301 89.492 310.157 89.292C310.021 89.084 309.833 88.924 309.593 88.812C309.353 88.692 309.081 88.632 308.777 88.632C308.353 88.632 307.981 88.708 307.661 88.86C307.349 89.004 307.025 89.26 306.689 89.628L305.801 88.8C306.185 88.368 306.637 88.04 307.157 87.816C307.685 87.584 308.237 87.468 308.813 87.468C309.373 87.468 309.869 87.568 310.301 87.768C310.733 87.968 311.069 88.248 311.309 88.608C311.557 88.96 311.681 89.364 311.681 89.82C311.681 90.268 311.533 90.668 311.237 91.02C310.949 91.364 310.569 91.604 310.097 91.74C310.657 91.86 311.105 92.096 311.441 92.448C311.785 92.792 311.957 93.2 311.957 93.672C311.957 94.144 311.821 94.568 311.549 94.944C311.277 95.312 310.905 95.604 310.433 95.82C309.969 96.028 309.433 96.132 308.825 96.132ZM317.59 96V93.924H313.066V92.856L317.434 87.6H318.862V92.796H319.978V93.924H318.862V96H317.59ZM314.494 92.796H317.59V89.04L314.494 92.796ZM323.938 96V89.988H325.294V91.284C325.47 90.828 325.698 90.48 325.978 90.24C326.258 90 326.582 89.88 326.95 89.88C327.062 89.888 327.162 89.9 327.25 89.916C327.338 89.924 327.434 89.952 327.538 90V91.188C327.434 91.14 327.314 91.104 327.178 91.08C327.05 91.056 326.922 91.044 326.794 91.044C326.466 91.044 326.17 91.132 325.906 91.308C325.65 91.484 325.446 91.728 325.294 92.04V96H323.938ZM331.163 96.12C330.587 96.12 330.067 95.984 329.603 95.712C329.139 95.432 328.771 95.06 328.499 94.596C328.227 94.124 328.091 93.592 328.091 93C328.091 92.408 328.219 91.88 328.475 91.416C328.731 90.952 329.079 90.584 329.519 90.312C329.967 90.032 330.463 89.892 331.007 89.892C331.567 89.892 332.059 90.028 332.483 90.3C332.915 90.572 333.251 90.94 333.491 91.404C333.739 91.868 333.863 92.4 333.863 93V93.324H329.423C329.471 93.652 329.575 93.944 329.735 94.2C329.903 94.448 330.115 94.644 330.371 94.788C330.635 94.932 330.919 95.004 331.223 95.004C331.503 95.004 331.767 94.956 332.015 94.86C332.271 94.756 332.483 94.616 332.651 94.44L333.539 95.244C333.171 95.548 332.795 95.772 332.411 95.916C332.035 96.052 331.619 96.12 331.163 96.12ZM329.435 92.484H332.579C332.531 92.196 332.431 91.94 332.279 91.716C332.135 91.492 331.951 91.316 331.727 91.188C331.511 91.06 331.271 90.996 331.007 90.996C330.743 90.996 330.499 91.06 330.275 91.188C330.059 91.308 329.879 91.48 329.735 91.704C329.591 91.928 329.491 92.188 329.435 92.484ZM335.246 98.508V89.988H336.578V90.84C336.794 90.552 337.062 90.332 337.382 90.18C337.71 90.02 338.066 89.94 338.45 89.94C338.962 89.94 339.422 90.076 339.83 90.348C340.238 90.62 340.562 90.988 340.802 91.452C341.042 91.916 341.162 92.432 341.162 93C341.162 93.568 341.038 94.084 340.79 94.548C340.542 95.012 340.206 95.38 339.782 95.652C339.358 95.924 338.886 96.06 338.366 96.06C338.006 96.06 337.674 95.996 337.37 95.868C337.074 95.732 336.818 95.54 336.602 95.292V98.508H335.246ZM338.042 94.932C338.386 94.932 338.69 94.848 338.954 94.68C339.226 94.512 339.438 94.284 339.59 93.996C339.75 93.7 339.83 93.368 339.83 93C339.83 92.632 339.75 92.304 339.59 92.016C339.438 91.728 339.226 91.5 338.954 91.332C338.69 91.164 338.386 91.08 338.042 91.08C337.746 91.08 337.474 91.14 337.226 91.26C336.978 91.372 336.77 91.536 336.602 91.752V94.26C336.778 94.468 336.99 94.632 337.238 94.752C337.486 94.872 337.754 94.932 338.042 94.932ZM345.33 96.108C344.762 96.108 344.246 95.972 343.782 95.7C343.326 95.428 342.966 95.06 342.702 94.596C342.438 94.124 342.306 93.592 342.306 93C342.306 92.408 342.438 91.88 342.702 91.416C342.966 90.944 343.326 90.572 343.782 90.3C344.238 90.028 344.754 89.892 345.33 89.892C345.906 89.892 346.418 90.028 346.866 90.3C347.322 90.572 347.682 90.944 347.946 91.416C348.21 91.88 348.342 92.408 348.342 93C348.342 93.592 348.21 94.124 347.946 94.596C347.682 95.06 347.322 95.428 346.866 95.7C346.418 95.972 345.906 96.108 345.33 96.108ZM345.33 94.956C345.658 94.956 345.946 94.872 346.194 94.704C346.45 94.536 346.65 94.304 346.794 94.008C346.938 93.704 347.01 93.368 347.01 93C347.01 92.624 346.938 92.292 346.794 92.004C346.65 91.708 346.45 91.476 346.194 91.308C345.946 91.132 345.658 91.044 345.33 91.044C345.002 91.044 344.71 91.132 344.454 91.308C344.198 91.476 343.998 91.708 343.854 92.004C343.71 92.292 343.638 92.624 343.638 93C343.638 93.376 343.71 93.712 343.854 94.008C343.998 94.304 344.198 94.536 344.454 94.704C344.71 94.872 345.002 94.956 345.33 94.956ZM349.742 96V89.988H351.098V91.284C351.274 90.828 351.502 90.48 351.782 90.24C352.062 90 352.386 89.88 352.754 89.88C352.866 89.888 352.966 89.9 353.054 89.916C353.142 89.924 353.238 89.952 353.342 90V91.188C353.238 91.14 353.118 91.104 352.982 91.08C352.854 91.056 352.726 91.044 352.598 91.044C352.27 91.044 351.974 91.132 351.71 91.308C351.454 91.484 351.25 91.728 351.098 92.04V96H349.742ZM357.045 96.12C356.437 96.12 355.977 95.98 355.665 95.7C355.353 95.412 355.197 94.992 355.197 94.44V91.068H353.997V89.988H355.197V88.332L356.553 88.044V89.988H358.221V91.068H356.553V94.14C356.553 94.436 356.617 94.648 356.745 94.776C356.873 94.896 357.089 94.956 357.393 94.956C357.529 94.956 357.653 94.948 357.765 94.932C357.885 94.908 358.033 94.868 358.209 94.812V95.952C358.041 96.008 357.849 96.048 357.633 96.072C357.425 96.104 357.229 96.12 357.045 96.12ZM361.579 96.12C361.067 96.12 360.587 96.052 360.139 95.916C359.699 95.772 359.319 95.568 358.999 95.304L359.635 94.404C360.035 94.652 360.379 94.828 360.667 94.932C360.963 95.036 361.263 95.088 361.567 95.088C361.927 95.088 362.219 95.012 362.443 94.86C362.667 94.708 362.779 94.512 362.779 94.272C362.779 94.088 362.711 93.944 362.575 93.84C362.447 93.728 362.235 93.644 361.939 93.588L360.883 93.408C360.299 93.296 359.863 93.104 359.575 92.832C359.287 92.56 359.143 92.2 359.143 91.752C359.143 91.376 359.239 91.052 359.431 90.78C359.631 90.5 359.903 90.284 360.247 90.132C360.599 89.972 361.007 89.892 361.471 89.892C361.887 89.892 362.291 89.952 362.683 90.072C363.075 90.192 363.459 90.372 363.835 90.612L363.199 91.512C362.895 91.312 362.591 91.168 362.287 91.08C361.991 90.984 361.691 90.936 361.387 90.936C361.075 90.936 360.823 91 360.631 91.128C360.447 91.248 360.355 91.416 360.355 91.632C360.355 91.824 360.415 91.972 360.535 92.076C360.663 92.172 360.883 92.244 361.195 92.292L362.263 92.496C362.863 92.6 363.307 92.792 363.595 93.072C363.891 93.344 364.039 93.708 364.039 94.164C364.039 94.532 363.931 94.864 363.715 95.16C363.499 95.456 363.207 95.692 362.839 95.868C362.471 96.036 362.051 96.12 361.579 96.12ZM367.977 98.508V89.988H369.309V90.84C369.525 90.552 369.793 90.332 370.113 90.18C370.441 90.02 370.797 89.94 371.181 89.94C371.693 89.94 372.153 90.076 372.561 90.348C372.969 90.62 373.293 90.988 373.533 91.452C373.773 91.916 373.893 92.432 373.893 93C373.893 93.568 373.769 94.084 373.521 94.548C373.273 95.012 372.937 95.38 372.513 95.652C372.089 95.924 371.617 96.06 371.097 96.06C370.737 96.06 370.405 95.996 370.101 95.868C369.805 95.732 369.549 95.54 369.333 95.292V98.508H367.977ZM370.773 94.932C371.117 94.932 371.421 94.848 371.685 94.68C371.957 94.512 372.169 94.284 372.321 93.996C372.481 93.7 372.561 93.368 372.561 93C372.561 92.632 372.481 92.304 372.321 92.016C372.169 91.728 371.957 91.5 371.685 91.332C371.421 91.164 371.117 91.08 370.773 91.08C370.477 91.08 370.205 91.14 369.957 91.26C369.709 91.372 369.501 91.536 369.333 91.752V94.26C369.509 94.468 369.721 94.632 369.969 94.752C370.217 94.872 370.485 94.932 370.773 94.932ZM375.313 96V89.988H376.669V91.284C376.845 90.828 377.073 90.48 377.353 90.24C377.633 90 377.957 89.88 378.325 89.88C378.437 89.888 378.537 89.9 378.625 89.916C378.713 89.924 378.809 89.952 378.913 90V91.188C378.809 91.14 378.689 91.104 378.553 91.08C378.425 91.056 378.297 91.044 378.169 91.044C377.841 91.044 377.545 91.132 377.281 91.308C377.025 91.484 376.821 91.728 376.669 92.04V96H375.313ZM382.538 96.12C381.962 96.12 381.442 95.984 380.978 95.712C380.514 95.432 380.146 95.06 379.874 94.596C379.602 94.124 379.466 93.592 379.466 93C379.466 92.408 379.594 91.88 379.85 91.416C380.106 90.952 380.454 90.584 380.894 90.312C381.342 90.032 381.838 89.892 382.382 89.892C382.942 89.892 383.434 90.028 383.858 90.3C384.29 90.572 384.626 90.94 384.866 91.404C385.114 91.868 385.238 92.4 385.238 93V93.324H380.798C380.846 93.652 380.95 93.944 381.11 94.2C381.278 94.448 381.49 94.644 381.746 94.788C382.01 94.932 382.294 95.004 382.598 95.004C382.878 95.004 383.142 94.956 383.39 94.86C383.646 94.756 383.858 94.616 384.026 94.44L384.914 95.244C384.546 95.548 384.17 95.772 383.786 95.916C383.41 96.052 382.994 96.12 382.538 96.12ZM380.81 92.484H383.954C383.906 92.196 383.806 91.94 383.654 91.716C383.51 91.492 383.326 91.316 383.102 91.188C382.886 91.06 382.646 90.996 382.382 90.996C382.118 90.996 381.874 91.06 381.65 91.188C381.434 91.308 381.254 91.48 381.11 91.704C380.966 91.928 380.866 92.188 380.81 92.484ZM388.185 96L385.737 89.988H387.213L388.893 94.356L390.561 89.988H391.977L389.505 96H388.185ZM395.57 96.12C394.994 96.12 394.474 95.984 394.01 95.712C393.546 95.432 393.178 95.06 392.906 94.596C392.634 94.124 392.498 93.592 392.498 93C392.498 92.408 392.626 91.88 392.882 91.416C393.138 90.952 393.486 90.584 393.926 90.312C394.374 90.032 394.87 89.892 395.414 89.892C395.974 89.892 396.466 90.028 396.89 90.3C397.322 90.572 397.658 90.94 397.898 91.404C398.146 91.868 398.27 92.4 398.27 93V93.324H393.83C393.878 93.652 393.982 93.944 394.142 94.2C394.31 94.448 394.522 94.644 394.778 94.788C395.042 94.932 395.326 95.004 395.63 95.004C395.91 95.004 396.174 94.956 396.422 94.86C396.678 94.756 396.89 94.616 397.058 94.44L397.946 95.244C397.578 95.548 397.202 95.772 396.818 95.916C396.442 96.052 396.026 96.12 395.57 96.12ZM393.842 92.484H396.986C396.938 92.196 396.838 91.94 396.686 91.716C396.542 91.492 396.358 91.316 396.134 91.188C395.918 91.06 395.678 90.996 395.414 90.996C395.15 90.996 394.906 91.06 394.682 91.188C394.466 91.308 394.286 91.48 394.142 91.704C393.998 91.928 393.898 92.188 393.842 92.484ZM399.653 96V89.988H401.009V90.972C401.241 90.612 401.517 90.344 401.837 90.168C402.157 89.984 402.513 89.892 402.905 89.892C403.321 89.892 403.685 89.984 403.997 90.168C404.309 90.344 404.553 90.592 404.729 90.912C404.913 91.232 405.005 91.608 405.005 92.04V96H403.637V92.424C403.637 91.984 403.517 91.636 403.277 91.38C403.037 91.116 402.717 90.984 402.317 90.984C402.045 90.984 401.797 91.048 401.573 91.176C401.357 91.296 401.169 91.476 401.009 91.716V96H399.653ZM409.053 96.12C408.445 96.12 407.985 95.98 407.673 95.7C407.361 95.412 407.205 94.992 407.205 94.44V91.068H406.005V89.988H407.205V88.332L408.561 88.044V89.988H410.229V91.068H408.561V94.14C408.561 94.436 408.625 94.648 408.753 94.776C408.881 94.896 409.097 94.956 409.401 94.956C409.537 94.956 409.661 94.948 409.773 94.932C409.893 94.908 410.041 94.868 410.217 94.812V95.952C410.049 96.008 409.857 96.048 409.641 96.072C409.433 96.104 409.237 96.12 409.053 96.12ZM414.132 96.12C413.556 96.12 413.036 95.984 412.572 95.712C412.108 95.432 411.74 95.06 411.468 94.596C411.196 94.124 411.06 93.592 411.06 93C411.06 92.408 411.188 91.88 411.444 91.416C411.7 90.952 412.048 90.584 412.488 90.312C412.936 90.032 413.432 89.892 413.976 89.892C414.536 89.892 415.028 90.028 415.452 90.3C415.884 90.572 416.22 90.94 416.46 91.404C416.708 91.868 416.832 92.4 416.832 93V93.324H412.392C412.44 93.652 412.544 93.944 412.704 94.2C412.872 94.448 413.084 94.644 413.34 94.788C413.604 94.932 413.888 95.004 414.192 95.004C414.472 95.004 414.736 94.956 414.984 94.86C415.24 94.756 415.452 94.616 415.62 94.44L416.508 95.244C416.14 95.548 415.764 95.772 415.38 95.916C415.004 96.052 414.588 96.12 414.132 96.12ZM412.404 92.484H415.548C415.5 92.196 415.4 91.94 415.248 91.716C415.104 91.492 414.92 91.316 414.696 91.188C414.48 91.06 414.24 90.996 413.976 90.996C413.712 90.996 413.468 91.06 413.244 91.188C413.028 91.308 412.848 91.48 412.704 91.704C412.56 91.928 412.46 92.188 412.404 92.484ZM420.674 96.06C420.17 96.06 419.714 95.924 419.306 95.652C418.898 95.372 418.57 95.004 418.322 94.548C418.082 94.084 417.962 93.568 417.962 93C417.962 92.424 418.086 91.908 418.334 91.452C418.582 90.988 418.918 90.62 419.342 90.348C419.774 90.076 420.25 89.94 420.77 89.94C421.114 89.94 421.434 90.008 421.73 90.144C422.034 90.272 422.298 90.464 422.522 90.72V87.396L423.878 87.156V96H422.534V95.208C422.318 95.48 422.05 95.692 421.73 95.844C421.41 95.988 421.058 96.06 420.674 96.06ZM421.094 94.92C421.382 94.92 421.65 94.864 421.898 94.752C422.146 94.632 422.354 94.468 422.522 94.26V91.728C422.346 91.52 422.134 91.36 421.886 91.248C421.638 91.136 421.374 91.08 421.094 91.08C420.75 91.08 420.442 91.164 420.17 91.332C419.906 91.492 419.694 91.716 419.534 92.004C419.374 92.292 419.294 92.624 419.294 93C419.294 93.36 419.374 93.688 419.534 93.984C419.694 94.272 419.906 94.5 420.17 94.668C420.442 94.836 420.75 94.92 421.094 94.92Z" fill="#675AF9"/>
<g filter="url(#filter1_d_1927_709)">
<path d="M105 2C105 0.89543 105.895 0 107 0H335.5C349.031 0 360 10.969 360 24.5C360 38.031 349.031 49 335.5 49H107C105.895 49 105 48.1046 105 47V2Z" fill="white"/>
<path d="M105.5 2C105.5 1.17157 106.172 0.5 107 0.5H335.5C348.755 0.5 359.5 11.2452 359.5 24.5C359.5 37.7548 348.755 48.5 335.5 48.5H107C106.172 48.5 105.5 47.8284 105.5 47V2Z" stroke="#675AF9"/>
</g>
<path d="M129.816 30V28.736L134.408 23.936C134.685 23.648 134.899 23.3867 135.048 23.152C135.208 22.9173 135.32 22.6933 135.384 22.48C135.459 22.256 135.496 22.0267 135.496 21.792C135.496 21.3227 135.304 20.9333 134.92 20.624C134.536 20.3147 134.051 20.16 133.464 20.16C132.952 20.16 132.472 20.2613 132.024 20.464C131.576 20.6667 131.085 21.0187 130.552 21.52L129.56 20.32C130.179 19.7547 130.813 19.3333 131.464 19.056C132.115 18.768 132.792 18.624 133.496 18.624C134.232 18.624 134.877 18.7573 135.432 19.024C135.987 19.28 136.419 19.6373 136.728 20.096C137.037 20.5547 137.192 21.088 137.192 21.696C137.192 22.0587 137.144 22.4 137.048 22.72C136.952 23.04 136.787 23.3653 136.552 23.696C136.328 24.0267 136.013 24.4053 135.608 24.832L132.04 28.512L137.4 28.496V30H129.816ZM144.733 30.176C143.922 30.176 143.165 30.032 142.461 29.744C141.757 29.4453 141.138 29.0347 140.605 28.512C140.082 27.9787 139.672 27.3653 139.373 26.672C139.085 25.968 138.941 25.2107 138.941 24.4C138.941 23.5893 139.085 22.8373 139.373 22.144C139.672 21.44 140.082 20.8267 140.605 20.304C141.138 19.7707 141.757 19.36 142.461 19.072C143.165 18.7733 143.922 18.624 144.733 18.624C145.309 18.624 145.864 18.704 146.397 18.864C146.93 19.024 147.426 19.2533 147.885 19.552C148.354 19.84 148.76 20.1973 149.101 20.624L147.821 21.872C147.426 21.3707 146.962 20.992 146.429 20.736C145.896 20.48 145.33 20.352 144.733 20.352C144.189 20.352 143.682 20.4533 143.213 20.656C142.754 20.8587 142.349 21.1467 141.997 21.52C141.656 21.8827 141.389 22.3093 141.197 22.8C141.005 23.2907 140.909 23.824 140.909 24.4C140.909 24.976 141.005 25.5093 141.197 26C141.389 26.4907 141.656 26.9227 141.997 27.296C142.349 27.6587 142.754 27.9413 143.213 28.144C143.682 28.3467 144.189 28.448 144.733 28.448C145.33 28.448 145.896 28.32 146.429 28.064C146.962 27.7973 147.426 27.4187 147.821 26.928L149.101 28.176C148.76 28.592 148.354 28.9493 147.885 29.248C147.426 29.5467 146.93 29.776 146.397 29.936C145.864 30.096 145.309 30.176 144.733 30.176ZM150.808 30V21.984H152.616V23.712C152.85 23.104 153.154 22.64 153.528 22.32C153.901 22 154.333 21.84 154.824 21.84C154.973 21.8507 155.106 21.8667 155.224 21.888C155.341 21.8987 155.469 21.936 155.608 22V23.584C155.469 23.52 155.309 23.472 155.128 23.44C154.957 23.408 154.786 23.392 154.616 23.392C154.178 23.392 153.784 23.5093 153.432 23.744C153.09 23.9787 152.818 24.304 152.616 24.72V30H150.808ZM164.363 30.144C163.605 30.144 162.917 29.9627 162.299 29.6C161.691 29.2267 161.205 28.7253 160.843 28.096C160.491 27.4667 160.315 26.768 160.315 26C160.315 25.2213 160.491 24.5227 160.843 23.904C161.205 23.2747 161.691 22.7787 162.299 22.416C162.917 22.0427 163.605 21.856 164.363 21.856C164.981 21.856 165.568 21.9733 166.123 22.208C166.688 22.4427 167.168 22.7787 167.562 23.216L166.443 24.384C166.165 24.0747 165.856 23.84 165.515 23.68C165.173 23.52 164.811 23.44 164.427 23.44C163.989 23.44 163.595 23.5573 163.243 23.792C162.901 24.016 162.629 24.32 162.427 24.704C162.224 25.088 162.123 25.52 162.123 26C162.123 26.48 162.224 26.9173 162.427 27.312C162.629 27.696 162.901 28 163.243 28.224C163.595 28.448 163.989 28.56 164.427 28.56C164.811 28.56 165.173 28.48 165.515 28.32C165.856 28.16 166.165 27.9307 166.443 27.632L167.562 28.784C167.168 29.2213 166.688 29.5573 166.123 29.792C165.568 30.0267 164.981 30.144 164.363 30.144ZM172.487 30.144C171.73 30.144 171.042 29.9627 170.423 29.6C169.815 29.2373 169.335 28.7467 168.983 28.128C168.631 27.4987 168.455 26.7893 168.455 26C168.455 25.2107 168.631 24.5067 168.983 23.888C169.335 23.2587 169.815 22.7627 170.423 22.4C171.031 22.0373 171.719 21.856 172.487 21.856C173.255 21.856 173.938 22.0373 174.535 22.4C175.143 22.7627 175.623 23.2587 175.975 23.888C176.327 24.5067 176.503 25.2107 176.503 26C176.503 26.7893 176.327 27.4987 175.975 28.128C175.623 28.7467 175.143 29.2373 174.535 29.6C173.938 29.9627 173.255 30.144 172.487 30.144ZM172.487 28.608C172.924 28.608 173.308 28.496 173.639 28.272C173.98 28.048 174.247 27.7387 174.439 27.344C174.631 26.9387 174.727 26.4907 174.727 26C174.727 25.4987 174.631 25.056 174.439 24.672C174.247 24.2773 173.98 23.968 173.639 23.744C173.308 23.5093 172.924 23.392 172.487 23.392C172.05 23.392 171.66 23.5093 171.319 23.744C170.978 23.968 170.711 24.2773 170.519 24.672C170.327 25.056 170.231 25.4987 170.231 26C170.231 26.5013 170.327 26.9493 170.519 27.344C170.711 27.7387 170.978 28.048 171.319 28.272C171.66 28.496 172.05 28.608 172.487 28.608ZM178.37 30V21.984H180.178V23.296C180.487 22.816 180.855 22.4587 181.282 22.224C181.709 21.9787 182.183 21.856 182.706 21.856C183.261 21.856 183.746 21.9787 184.162 22.224C184.578 22.4587 184.903 22.7893 185.138 23.216C185.383 23.6427 185.506 24.144 185.506 24.72V30H183.682V25.232C183.682 24.6453 183.522 24.1813 183.202 23.84C182.882 23.488 182.455 23.312 181.922 23.312C181.559 23.312 181.229 23.3973 180.93 23.568C180.642 23.728 180.391 23.968 180.178 24.288V30H178.37ZM189.643 30L186.379 21.984H188.347L190.587 27.808L192.811 21.984H194.699L191.403 30H189.643ZM199.489 30.16C198.721 30.16 198.027 29.9787 197.409 29.616C196.79 29.2427 196.299 28.7467 195.937 28.128C195.574 27.4987 195.393 26.7893 195.393 26C195.393 25.2107 195.563 24.5067 195.905 23.888C196.246 23.2693 196.71 22.7787 197.297 22.416C197.894 22.0427 198.555 21.856 199.281 21.856C200.027 21.856 200.683 22.0373 201.249 22.4C201.825 22.7627 202.273 23.2533 202.593 23.872C202.923 24.4907 203.089 25.2 203.089 26V26.432H197.169C197.233 26.8693 197.371 27.2587 197.585 27.6C197.809 27.9307 198.091 28.192 198.433 28.384C198.785 28.576 199.163 28.672 199.569 28.672C199.942 28.672 200.294 28.608 200.625 28.48C200.966 28.3413 201.249 28.1547 201.473 27.92L202.657 28.992C202.166 29.3973 201.665 29.696 201.153 29.888C200.651 30.0693 200.097 30.16 199.489 30.16ZM197.185 25.312H201.377C201.313 24.928 201.179 24.5867 200.977 24.288C200.785 23.9893 200.539 23.7547 200.241 23.584C199.953 23.4133 199.633 23.328 199.281 23.328C198.929 23.328 198.603 23.4133 198.305 23.584C198.017 23.744 197.777 23.9733 197.585 24.272C197.393 24.5707 197.259 24.9173 197.185 25.312ZM204.933 30V21.984H206.741V23.712C206.975 23.104 207.279 22.64 207.653 22.32C208.026 22 208.458 21.84 208.949 21.84C209.098 21.8507 209.231 21.8667 209.349 21.888C209.466 21.8987 209.594 21.936 209.733 22V23.584C209.594 23.52 209.434 23.472 209.253 23.44C209.082 23.408 208.911 23.392 208.741 23.392C208.303 23.392 207.909 23.5093 207.557 23.744C207.215 23.9787 206.943 24.304 206.741 24.72V30H204.933ZM213.965 30.16C213.282 30.16 212.642 30.0693 212.045 29.888C211.458 29.696 210.952 29.424 210.525 29.072L211.373 27.872C211.906 28.2027 212.365 28.4373 212.749 28.576C213.144 28.7147 213.544 28.784 213.949 28.784C214.429 28.784 214.818 28.6827 215.117 28.48C215.416 28.2773 215.565 28.016 215.565 27.696C215.565 27.4507 215.474 27.2587 215.293 27.12C215.122 26.9707 214.84 26.8587 214.445 26.784L213.037 26.544C212.258 26.3947 211.677 26.1387 211.293 25.776C210.909 25.4133 210.717 24.9333 210.717 24.336C210.717 23.8347 210.845 23.4027 211.101 23.04C211.368 22.6667 211.73 22.3787 212.189 22.176C212.658 21.9627 213.202 21.856 213.821 21.856C214.376 21.856 214.914 21.936 215.437 22.096C215.96 22.256 216.472 22.496 216.973 22.816L216.125 24.016C215.72 23.7493 215.314 23.5573 214.909 23.44C214.514 23.312 214.114 23.248 213.709 23.248C213.293 23.248 212.957 23.3333 212.701 23.504C212.456 23.664 212.333 23.888 212.333 24.176C212.333 24.432 212.413 24.6293 212.573 24.768C212.744 24.896 213.037 24.992 213.453 25.056L214.877 25.328C215.677 25.4667 216.269 25.7227 216.653 26.096C217.048 26.4587 217.245 26.944 217.245 27.552C217.245 28.0427 217.101 28.4853 216.813 28.88C216.525 29.2747 216.136 29.5893 215.645 29.824C215.154 30.048 214.594 30.16 213.965 30.16ZM221.411 30.144C220.857 30.144 220.361 30.0427 219.923 29.84C219.497 29.6267 219.161 29.3387 218.915 28.976C218.681 28.6027 218.563 28.176 218.563 27.696C218.563 27.216 218.686 26.8 218.931 26.448C219.187 26.096 219.545 25.824 220.003 25.632C220.462 25.44 221.006 25.344 221.635 25.344C222.009 25.344 222.377 25.3867 222.739 25.472C223.102 25.5467 223.454 25.6747 223.795 25.856V24.96C223.795 24.4267 223.641 24.0267 223.331 23.76C223.033 23.4933 222.574 23.36 221.955 23.36C221.625 23.36 221.267 23.4133 220.883 23.52C220.51 23.616 220.089 23.7707 219.619 23.984L218.979 22.672C220.153 22.128 221.262 21.856 222.307 21.856C223.353 21.856 224.158 22.112 224.723 22.624C225.299 23.1253 225.587 23.84 225.587 24.768V30H223.795V29.168C223.454 29.4987 223.086 29.744 222.691 29.904C222.297 30.064 221.87 30.144 221.411 30.144ZM220.259 27.664C220.259 28.0373 220.409 28.3307 220.707 28.544C221.006 28.7573 221.406 28.864 221.907 28.864C222.27 28.864 222.606 28.8107 222.915 28.704C223.235 28.5867 223.529 28.416 223.795 28.192V26.896C223.518 26.768 223.23 26.672 222.931 26.608C222.633 26.544 222.307 26.512 221.955 26.512C221.433 26.512 221.017 26.6133 220.707 26.816C220.409 27.0187 220.259 27.3013 220.259 27.664ZM230.998 30.16C230.187 30.16 229.574 29.9733 229.158 29.6C228.742 29.216 228.534 28.656 228.534 27.92V23.424H226.934V21.984H228.534V19.776L230.342 19.392V21.984H232.566V23.424H230.342V27.52C230.342 27.9147 230.427 28.1973 230.598 28.368C230.769 28.528 231.057 28.608 231.462 28.608C231.643 28.608 231.809 28.5973 231.958 28.576C232.118 28.544 232.315 28.4907 232.55 28.416V29.936C232.326 30.0107 232.07 30.064 231.782 30.096C231.505 30.1387 231.243 30.16 230.998 30.16ZM234.151 30V21.984H235.959V30H234.151ZM235.063 20.352C234.754 20.352 234.487 20.2453 234.263 20.032C234.05 19.808 233.943 19.5467 233.943 19.248C233.943 18.9387 234.05 18.6773 234.263 18.464C234.487 18.24 234.754 18.128 235.063 18.128C235.372 18.128 235.634 18.24 235.847 18.464C236.071 18.6773 236.183 18.9333 236.183 19.232C236.183 19.5413 236.071 19.808 235.847 20.032C235.634 20.2453 235.372 20.352 235.063 20.352ZM241.862 30.144C241.105 30.144 240.417 29.9627 239.798 29.6C239.19 29.2373 238.71 28.7467 238.358 28.128C238.006 27.4987 237.83 26.7893 237.83 26C237.83 25.2107 238.006 24.5067 238.358 23.888C238.71 23.2587 239.19 22.7627 239.798 22.4C240.406 22.0373 241.094 21.856 241.862 21.856C242.63 21.856 243.313 22.0373 243.91 22.4C244.518 22.7627 244.998 23.2587 245.35 23.888C245.702 24.5067 245.878 25.2107 245.878 26C245.878 26.7893 245.702 27.4987 245.35 28.128C244.998 28.7467 244.518 29.2373 243.91 29.6C243.313 29.9627 242.63 30.144 241.862 30.144ZM241.862 28.608C242.299 28.608 242.683 28.496 243.014 28.272C243.355 28.048 243.622 27.7387 243.814 27.344C244.006 26.9387 244.102 26.4907 244.102 26C244.102 25.4987 244.006 25.056 243.814 24.672C243.622 24.2773 243.355 23.968 243.014 23.744C242.683 23.5093 242.299 23.392 241.862 23.392C241.425 23.392 241.035 23.5093 240.694 23.744C240.353 23.968 240.086 24.2773 239.894 24.672C239.702 25.056 239.606 25.4987 239.606 26C239.606 26.5013 239.702 26.9493 239.894 27.344C240.086 27.7387 240.353 28.048 240.694 28.272C241.035 28.496 241.425 28.608 241.862 28.608ZM247.745 30V21.984H249.553V23.296C249.862 22.816 250.23 22.4587 250.657 22.224C251.084 21.9787 251.558 21.856 252.081 21.856C252.636 21.856 253.121 21.9787 253.537 22.224C253.953 22.4587 254.278 22.7893 254.513 23.216C254.758 23.6427 254.881 24.144 254.881 24.72V30H253.057V25.232C253.057 24.6453 252.897 24.1813 252.577 23.84C252.257 23.488 251.83 23.312 251.297 23.312C250.934 23.312 250.604 23.3973 250.305 23.568C250.017 23.728 249.766 23.968 249.553 24.288V30H247.745ZM259.778 30.16C259.095 30.16 258.455 30.0693 257.858 29.888C257.271 29.696 256.764 29.424 256.338 29.072L257.186 27.872C257.719 28.2027 258.178 28.4373 258.562 28.576C258.956 28.7147 259.356 28.784 259.762 28.784C260.242 28.784 260.631 28.6827 260.93 28.48C261.228 28.2773 261.378 28.016 261.378 27.696C261.378 27.4507 261.287 27.2587 261.106 27.12C260.935 26.9707 260.652 26.8587 260.258 26.784L258.85 26.544C258.071 26.3947 257.49 26.1387 257.106 25.776C256.722 25.4133 256.53 24.9333 256.53 24.336C256.53 23.8347 256.658 23.4027 256.914 23.04C257.18 22.6667 257.543 22.3787 258.002 22.176C258.471 21.9627 259.015 21.856 259.634 21.856C260.188 21.856 260.727 21.936 261.25 22.096C261.772 22.256 262.284 22.496 262.786 22.816L261.938 24.016C261.532 23.7493 261.127 23.5573 260.722 23.44C260.327 23.312 259.927 23.248 259.522 23.248C259.106 23.248 258.77 23.3333 258.514 23.504C258.268 23.664 258.146 23.888 258.146 24.176C258.146 24.432 258.226 24.6293 258.386 24.768C258.556 24.896 258.85 24.992 259.266 25.056L260.69 25.328C261.49 25.4667 262.082 25.7227 262.466 26.096C262.86 26.4587 263.058 26.944 263.058 27.552C263.058 28.0427 262.914 28.4853 262.626 28.88C262.338 29.2747 261.948 29.5893 261.458 29.824C260.967 30.048 260.407 30.16 259.778 30.16ZM271.988 30.144C271.23 30.144 270.542 29.9627 269.924 29.6C269.316 29.2267 268.83 28.7253 268.468 28.096C268.116 27.4667 267.94 26.768 267.94 26C267.94 25.2213 268.116 24.5227 268.468 23.904C268.83 23.2747 269.316 22.7787 269.924 22.416C270.542 22.0427 271.23 21.856 271.988 21.856C272.606 21.856 273.193 21.9733 273.748 22.208C274.313 22.4427 274.793 22.7787 275.188 23.216L274.068 24.384C273.79 24.0747 273.481 23.84 273.14 23.68C272.798 23.52 272.436 23.44 272.052 23.44C271.614 23.44 271.22 23.5573 270.868 23.792C270.526 24.016 270.254 24.32 270.052 24.704C269.849 25.088 269.748 25.52 269.748 26C269.748 26.48 269.849 26.9173 270.052 27.312C270.254 27.696 270.526 28 270.868 28.224C271.22 28.448 271.614 28.56 272.052 28.56C272.436 28.56 272.798 28.48 273.14 28.32C273.481 28.16 273.79 27.9307 274.068 27.632L275.188 28.784C274.793 29.2213 274.313 29.5573 273.748 29.792C273.193 30.0267 272.606 30.144 271.988 30.144ZM276.683 30V18.528L278.491 18.208V23.296C278.8 22.816 279.168 22.4587 279.595 22.224C280.021 21.9787 280.496 21.856 281.019 21.856C281.573 21.856 282.059 21.9787 282.475 22.224C282.891 22.4587 283.216 22.7893 283.451 23.216C283.696 23.6427 283.819 24.144 283.819 24.72V30H281.995V25.232C281.995 24.6453 281.835 24.1813 281.515 23.84C281.195 23.488 280.768 23.312 280.235 23.312C279.872 23.312 279.541 23.3973 279.243 23.568C278.955 23.728 278.704 23.968 278.491 24.288V30H276.683ZM289.723 30.16C288.955 30.16 288.262 29.9787 287.643 29.616C287.024 29.2427 286.534 28.7467 286.171 28.128C285.808 27.4987 285.627 26.7893 285.627 26C285.627 25.2107 285.798 24.5067 286.139 23.888C286.48 23.2693 286.944 22.7787 287.531 22.416C288.128 22.0427 288.79 21.856 289.515 21.856C290.262 21.856 290.918 22.0373 291.483 22.4C292.059 22.7627 292.507 23.2533 292.827 23.872C293.158 24.4907 293.323 25.2 293.323 26V26.432H287.403C287.467 26.8693 287.606 27.2587 287.819 27.6C288.043 27.9307 288.326 28.192 288.667 28.384C289.019 28.576 289.398 28.672 289.803 28.672C290.176 28.672 290.528 28.608 290.859 28.48C291.2 28.3413 291.483 28.1547 291.707 27.92L292.891 28.992C292.4 29.3973 291.899 29.696 291.387 29.888C290.886 30.0693 290.331 30.16 289.723 30.16ZM287.419 25.312H291.611C291.547 24.928 291.414 24.5867 291.211 24.288C291.019 23.9893 290.774 23.7547 290.475 23.584C290.187 23.4133 289.867 23.328 289.515 23.328C289.163 23.328 288.838 23.4133 288.539 23.584C288.251 23.744 288.011 23.9733 287.819 24.272C287.627 24.5707 287.494 24.9173 287.419 25.312ZM298.878 30.144C298.121 30.144 297.433 29.9627 296.814 29.6C296.206 29.2267 295.721 28.7253 295.358 28.096C295.006 27.4667 294.83 26.768 294.83 26C294.83 25.2213 295.006 24.5227 295.358 23.904C295.721 23.2747 296.206 22.7787 296.814 22.416C297.433 22.0427 298.121 21.856 298.878 21.856C299.497 21.856 300.083 21.9733 300.638 22.208C301.203 22.4427 301.683 22.7787 302.078 23.216L300.958 24.384C300.681 24.0747 300.371 23.84 300.03 23.68C299.689 23.52 299.326 23.44 298.942 23.44C298.505 23.44 298.11 23.5573 297.758 23.792C297.417 24.016 297.145 24.32 296.942 24.704C296.739 25.088 296.638 25.52 296.638 26C296.638 26.48 296.739 26.9173 296.942 27.312C297.145 27.696 297.417 28 297.758 28.224C298.11 28.448 298.505 28.56 298.942 28.56C299.326 28.56 299.689 28.48 300.03 28.32C300.371 28.16 300.681 27.9307 300.958 27.632L302.078 28.784C301.683 29.2213 301.203 29.5573 300.638 29.792C300.083 30.0267 299.497 30.144 298.878 30.144ZM303.573 30V18.496L305.381 18.192V25.392L308.709 21.984H310.789L307.093 25.696L310.981 30H308.677L305.381 26.304V30H303.573ZM315.317 30.16C314.549 30.16 313.855 29.9787 313.237 29.616C312.618 29.2427 312.127 28.7467 311.765 28.128C311.402 27.4987 311.221 26.7893 311.221 26C311.221 25.2107 311.391 24.5067 311.733 23.888C312.074 23.2693 312.538 22.7787 313.125 22.416C313.722 22.0427 314.383 21.856 315.109 21.856C315.855 21.856 316.511 22.0373 317.077 22.4C317.653 22.7627 318.101 23.2533 318.421 23.872C318.751 24.4907 318.917 25.2 318.917 26V26.432H312.997C313.061 26.8693 313.199 27.2587 313.413 27.6C313.637 27.9307 313.919 28.192 314.261 28.384C314.613 28.576 314.991 28.672 315.397 28.672C315.77 28.672 316.122 28.608 316.453 28.48C316.794 28.3413 317.077 28.1547 317.301 27.92L318.485 28.992C317.994 29.3973 317.493 29.696 316.981 29.888C316.479 30.0693 315.925 30.16 315.317 30.16ZM313.013 25.312H317.205C317.141 24.928 317.007 24.5867 316.805 24.288C316.613 23.9893 316.367 23.7547 316.069 23.584C315.781 23.4133 315.461 23.328 315.109 23.328C314.757 23.328 314.431 23.4133 314.133 23.584C313.845 23.744 313.605 23.9733 313.413 24.272C313.221 24.5707 313.087 24.9173 313.013 25.312ZM324.04 30.08C323.368 30.08 322.76 29.8987 322.216 29.536C321.672 29.1627 321.235 28.672 320.904 28.064C320.584 27.4453 320.424 26.7573 320.424 26C320.424 25.232 320.589 24.544 320.92 23.936C321.251 23.3173 321.699 22.8267 322.264 22.464C322.84 22.1013 323.475 21.92 324.168 21.92C324.627 21.92 325.053 22.0107 325.448 22.192C325.853 22.3627 326.205 22.6187 326.504 22.96V18.528L328.312 18.208V30H326.52V28.944C326.232 29.3067 325.875 29.5893 325.448 29.792C325.021 29.984 324.552 30.08 324.04 30.08ZM324.6 28.56C324.984 28.56 325.341 28.4853 325.672 28.336C326.003 28.176 326.28 27.9573 326.504 27.68V24.304C326.269 24.0267 325.987 23.8133 325.656 23.664C325.325 23.5147 324.973 23.44 324.6 23.44C324.141 23.44 323.731 23.552 323.368 23.776C323.016 23.9893 322.733 24.288 322.52 24.672C322.307 25.056 322.2 25.4987 322.2 26C322.2 26.48 322.307 26.9173 322.52 27.312C322.733 27.696 323.016 28 323.368 28.224C323.731 28.448 324.141 28.56 324.6 28.56Z" fill="#675AF9"/>
<g filter="url(#filter2_d_1927_709)">
<path d="M0 73C0 70.7909 1.79086 69 4 69H180C182.209 69 184 70.7909 184 73V104C184 106.209 182.209 108 180 108H24C10.7452 108 0 97.2548 0 84V73Z" fill="white"/>
<path d="M0.5 73C0.5 71.067 2.067 69.5 4 69.5H180C181.933 69.5 183.5 71.067 183.5 73V104C183.5 105.933 181.933 107.5 180 107.5H24C11.0213 107.5 0.5 96.9787 0.5 84V73Z" stroke="#675AF9" stroke-opacity="0.5"/>
</g>
<path d="M22.612 93V92.052L26.056 88.452C26.264 88.236 26.424 88.04 26.536 87.864C26.656 87.688 26.74 87.52 26.788 87.36C26.844 87.192 26.872 87.02 26.872 86.844C26.872 86.492 26.728 86.2 26.44 85.968C26.152 85.736 25.788 85.62 25.348 85.62C24.964 85.62 24.604 85.696 24.268 85.848C23.932 86 23.564 86.264 23.164 86.64L22.42 85.74C22.884 85.316 23.36 85 23.848 84.792C24.336 84.576 24.844 84.468 25.372 84.468C25.924 84.468 26.408 84.568 26.824 84.768C27.24 84.96 27.564 85.228 27.796 85.572C28.028 85.916 28.144 86.316 28.144 86.772C28.144 87.044 28.108 87.3 28.036 87.54C27.964 87.78 27.84 88.024 27.664 88.272C27.496 88.52 27.26 88.804 26.956 89.124L24.28 91.884L28.3 91.872V93H22.612ZM32.2158 93.132C31.0798 93.132 30.0958 92.752 29.2638 91.992L30.0558 91.092C30.4158 91.412 30.7678 91.644 31.1118 91.788C31.4638 91.932 31.8478 92.004 32.2638 92.004C32.6238 92.004 32.9358 91.936 33.1998 91.8C33.4718 91.664 33.6798 91.472 33.8238 91.224C33.9758 90.968 34.0518 90.68 34.0518 90.36C34.0518 89.888 33.8798 89.508 33.5358 89.22C33.1998 88.924 32.7638 88.776 32.2278 88.776C31.9478 88.776 31.6718 88.812 31.3998 88.884C31.1278 88.956 30.8478 89.068 30.5598 89.22L29.6478 88.944L29.8398 84.6H34.9398V85.728H30.9558L30.8358 88.164C31.1318 88.02 31.4198 87.916 31.6998 87.852C31.9878 87.788 32.2878 87.756 32.5998 87.756C33.1598 87.756 33.6478 87.864 34.0638 88.08C34.4798 88.288 34.8038 88.584 35.0358 88.968C35.2678 89.344 35.3838 89.784 35.3838 90.288C35.3838 90.856 35.2518 91.352 34.9878 91.776C34.7238 92.2 34.3518 92.532 33.8718 92.772C33.3998 93.012 32.8478 93.132 32.2158 93.132ZM37.6898 93V85.98L36.2018 86.616V85.452L38.1698 84.6H38.9978V93H37.6898ZM46.1547 93.108C45.5867 93.108 45.0707 92.972 44.6067 92.7C44.1507 92.42 43.7867 92.044 43.5147 91.572C43.2507 91.1 43.1187 90.576 43.1187 90C43.1187 89.416 43.2507 88.892 43.5147 88.428C43.7867 87.956 44.1507 87.584 44.6067 87.312C45.0707 87.032 45.5867 86.892 46.1547 86.892C46.6187 86.892 47.0587 86.98 47.4747 87.156C47.8987 87.332 48.2587 87.584 48.5547 87.912L47.7147 88.788C47.5067 88.556 47.2747 88.38 47.0187 88.26C46.7627 88.14 46.4907 88.08 46.2027 88.08C45.8747 88.08 45.5787 88.168 45.3147 88.344C45.0587 88.512 44.8547 88.74 44.7027 89.028C44.5507 89.316 44.4747 89.64 44.4747 90C44.4747 90.36 44.5507 90.688 44.7027 90.984C44.8547 91.272 45.0587 91.5 45.3147 91.668C45.5787 91.836 45.8747 91.92 46.2027 91.92C46.4907 91.92 46.7627 91.86 47.0187 91.74C47.2747 91.62 47.5067 91.448 47.7147 91.224L48.5547 92.088C48.2587 92.416 47.8987 92.668 47.4747 92.844C47.0587 93.02 46.6187 93.108 46.1547 93.108ZM52.2482 93.108C51.6802 93.108 51.1642 92.972 50.7002 92.7C50.2442 92.428 49.8842 92.06 49.6202 91.596C49.3562 91.124 49.2242 90.592 49.2242 90C49.2242 89.408 49.3562 88.88 49.6202 88.416C49.8842 87.944 50.2442 87.572 50.7002 87.3C51.1562 87.028 51.6722 86.892 52.2482 86.892C52.8242 86.892 53.3362 87.028 53.7842 87.3C54.2402 87.572 54.6002 87.944 54.8642 88.416C55.1282 88.88 55.2602 89.408 55.2602 90C55.2602 90.592 55.1282 91.124 54.8642 91.596C54.6002 92.06 54.2402 92.428 53.7842 92.7C53.3362 92.972 52.8242 93.108 52.2482 93.108ZM52.2482 91.956C52.5762 91.956 52.8642 91.872 53.1122 91.704C53.3682 91.536 53.5682 91.304 53.7122 91.008C53.8562 90.704 53.9282 90.368 53.9282 90C53.9282 89.624 53.8562 89.292 53.7122 89.004C53.5682 88.708 53.3682 88.476 53.1122 88.308C52.8642 88.132 52.5762 88.044 52.2482 88.044C51.9202 88.044 51.6282 88.132 51.3722 88.308C51.1162 88.476 50.9162 88.708 50.7722 89.004C50.6282 89.292 50.5562 89.624 50.5562 90C50.5562 90.376 50.6282 90.712 50.7722 91.008C50.9162 91.304 51.1162 91.536 51.3722 91.704C51.6282 91.872 51.9202 91.956 52.2482 91.956ZM56.6603 93V86.988H58.0163V87.972C58.2483 87.612 58.5243 87.344 58.8443 87.168C59.1643 86.984 59.5203 86.892 59.9123 86.892C60.3283 86.892 60.6923 86.984 61.0043 87.168C61.3163 87.344 61.5603 87.592 61.7363 87.912C61.9203 88.232 62.0123 88.608 62.0123 89.04V93H60.6443V89.424C60.6443 88.984 60.5243 88.636 60.2843 88.38C60.0443 88.116 59.7243 87.984 59.3243 87.984C59.0523 87.984 58.8043 88.048 58.5803 88.176C58.3643 88.296 58.1763 88.476 58.0163 88.716V93H56.6603ZM65.1152 93L62.6672 86.988H64.1432L65.8232 91.356L67.4912 86.988H68.9072L66.4352 93H65.1152ZM72.4993 93.12C71.9233 93.12 71.4033 92.984 70.9393 92.712C70.4753 92.432 70.1073 92.06 69.8353 91.596C69.5633 91.124 69.4273 90.592 69.4273 90C69.4273 89.408 69.5553 88.88 69.8113 88.416C70.0673 87.952 70.4153 87.584 70.8553 87.312C71.3033 87.032 71.7993 86.892 72.3433 86.892C72.9033 86.892 73.3953 87.028 73.8193 87.3C74.2513 87.572 74.5873 87.94 74.8273 88.404C75.0753 88.868 75.1993 89.4 75.1993 90V90.324H70.7593C70.8073 90.652 70.9113 90.944 71.0713 91.2C71.2393 91.448 71.4513 91.644 71.7073 91.788C71.9713 91.932 72.2553 92.004 72.5593 92.004C72.8393 92.004 73.1033 91.956 73.3513 91.86C73.6073 91.756 73.8193 91.616 73.9873 91.44L74.8753 92.244C74.5073 92.548 74.1313 92.772 73.7473 92.916C73.3713 93.052 72.9553 93.12 72.4993 93.12ZM70.7713 89.484H73.9153C73.8673 89.196 73.7673 88.94 73.6153 88.716C73.4713 88.492 73.2873 88.316 73.0633 88.188C72.8473 88.06 72.6073 87.996 72.3433 87.996C72.0793 87.996 71.8353 88.06 71.6113 88.188C71.3953 88.308 71.2153 88.48 71.0713 88.704C70.9273 88.928 70.8273 89.188 70.7713 89.484ZM76.5822 93V86.988H77.9382V88.284C78.1142 87.828 78.3422 87.48 78.6222 87.24C78.9022 87 79.2262 86.88 79.5942 86.88C79.7062 86.888 79.8062 86.9 79.8942 86.916C79.9822 86.924 80.0782 86.952 80.1822 87V88.188C80.0782 88.14 79.9582 88.104 79.8222 88.08C79.6942 88.056 79.5662 88.044 79.4382 88.044C79.1102 88.044 78.8142 88.132 78.5502 88.308C78.2942 88.484 78.0902 88.728 77.9382 89.04V93H76.5822ZM83.3566 93.12C82.8446 93.12 82.3646 93.052 81.9166 92.916C81.4766 92.772 81.0966 92.568 80.7766 92.304L81.4126 91.404C81.8126 91.652 82.1566 91.828 82.4446 91.932C82.7406 92.036 83.0406 92.088 83.3446 92.088C83.7046 92.088 83.9966 92.012 84.2206 91.86C84.4446 91.708 84.5566 91.512 84.5566 91.272C84.5566 91.088 84.4886 90.944 84.3526 90.84C84.2246 90.728 84.0126 90.644 83.7166 90.588L82.6606 90.408C82.0766 90.296 81.6406 90.104 81.3526 89.832C81.0646 89.56 80.9206 89.2 80.9206 88.752C80.9206 88.376 81.0166 88.052 81.2086 87.78C81.4086 87.5 81.6806 87.284 82.0246 87.132C82.3766 86.972 82.7846 86.892 83.2486 86.892C83.6646 86.892 84.0686 86.952 84.4606 87.072C84.8526 87.192 85.2366 87.372 85.6126 87.612L84.9766 88.512C84.6726 88.312 84.3686 88.168 84.0646 88.08C83.7686 87.984 83.4686 87.936 83.1646 87.936C82.8526 87.936 82.6006 88 82.4086 88.128C82.2246 88.248 82.1326 88.416 82.1326 88.632C82.1326 88.824 82.1926 88.972 82.3126 89.076C82.4406 89.172 82.6606 89.244 82.9726 89.292L84.0406 89.496C84.6406 89.6 85.0846 89.792 85.3726 90.072C85.6686 90.344 85.8166 90.708 85.8166 91.164C85.8166 91.532 85.7086 91.864 85.4926 92.16C85.2766 92.456 84.9846 92.692 84.6166 92.868C84.2486 93.036 83.8286 93.12 83.3566 93.12ZM88.9413 93.108C88.5253 93.108 88.1533 93.032 87.8253 92.88C87.5053 92.72 87.2533 92.504 87.0693 92.232C86.8933 91.952 86.8053 91.632 86.8053 91.272C86.8053 90.912 86.8973 90.6 87.0813 90.336C87.2733 90.072 87.5413 89.868 87.8853 89.724C88.2293 89.58 88.6373 89.508 89.1093 89.508C89.3893 89.508 89.6653 89.54 89.9373 89.604C90.2093 89.66 90.4733 89.756 90.7293 89.892V89.22C90.7293 88.82 90.6133 88.52 90.3813 88.32C90.1573 88.12 89.8133 88.02 89.3493 88.02C89.1013 88.02 88.8333 88.06 88.5453 88.14C88.2653 88.212 87.9493 88.328 87.5973 88.488L87.1173 87.504C87.9973 87.096 88.8293 86.892 89.6133 86.892C90.3973 86.892 91.0013 87.084 91.4253 87.468C91.8573 87.844 92.0733 88.38 92.0733 89.076V93H90.7293V92.376C90.4733 92.624 90.1973 92.808 89.9013 92.928C89.6053 93.048 89.2853 93.108 88.9413 93.108ZM88.0773 91.248C88.0773 91.528 88.1893 91.748 88.4133 91.908C88.6373 92.068 88.9373 92.148 89.3133 92.148C89.5853 92.148 89.8373 92.108 90.0693 92.028C90.3093 91.94 90.5293 91.812 90.7293 91.644V90.672C90.5213 90.576 90.3053 90.504 90.0813 90.456C89.8573 90.408 89.6133 90.384 89.3493 90.384C88.9573 90.384 88.6453 90.46 88.4133 90.612C88.1893 90.764 88.0773 90.976 88.0773 91.248ZM96.1312 93.12C95.5232 93.12 95.0632 92.98 94.7512 92.7C94.4392 92.412 94.2832 91.992 94.2832 91.44V88.068H93.0832V86.988H94.2832V85.332L95.6392 85.044V86.988H97.3072V88.068H95.6392V91.14C95.6392 91.436 95.7032 91.648 95.8312 91.776C95.9592 91.896 96.1752 91.956 96.4792 91.956C96.6152 91.956 96.7392 91.948 96.8512 91.932C96.9712 91.908 97.1192 91.868 97.2952 91.812V92.952C97.1272 93.008 96.9352 93.048 96.7192 93.072C96.5112 93.104 96.3152 93.12 96.1312 93.12ZM98.496 93V86.988H99.852V93H98.496ZM99.18 85.764C98.948 85.764 98.748 85.684 98.58 85.524C98.42 85.356 98.34 85.16 98.34 84.936C98.34 84.704 98.42 84.508 98.58 84.348C98.748 84.18 98.948 84.096 99.18 84.096C99.412 84.096 99.608 84.18 99.768 84.348C99.936 84.508 100.02 84.7 100.02 84.924C100.02 85.156 99.936 85.356 99.768 85.524C99.608 85.684 99.412 85.764 99.18 85.764ZM104.279 93.108C103.711 93.108 103.195 92.972 102.731 92.7C102.275 92.428 101.915 92.06 101.651 91.596C101.387 91.124 101.255 90.592 101.255 90C101.255 89.408 101.387 88.88 101.651 88.416C101.915 87.944 102.275 87.572 102.731 87.3C103.187 87.028 103.703 86.892 104.279 86.892C104.855 86.892 105.367 87.028 105.815 87.3C106.271 87.572 106.631 87.944 106.895 88.416C107.159 88.88 107.291 89.408 107.291 90C107.291 90.592 107.159 91.124 106.895 91.596C106.631 92.06 106.271 92.428 105.815 92.7C105.367 92.972 104.855 93.108 104.279 93.108ZM104.279 91.956C104.607 91.956 104.895 91.872 105.143 91.704C105.399 91.536 105.599 91.304 105.743 91.008C105.887 90.704 105.959 90.368 105.959 90C105.959 89.624 105.887 89.292 105.743 89.004C105.599 88.708 105.399 88.476 105.143 88.308C104.895 88.132 104.607 88.044 104.279 88.044C103.951 88.044 103.659 88.132 103.403 88.308C103.147 88.476 102.947 88.708 102.803 89.004C102.659 89.292 102.587 89.624 102.587 90C102.587 90.376 102.659 90.712 102.803 91.008C102.947 91.304 103.147 91.536 103.403 91.704C103.659 91.872 103.951 91.956 104.279 91.956ZM108.692 93V86.988H110.048V87.972C110.28 87.612 110.556 87.344 110.876 87.168C111.196 86.984 111.552 86.892 111.944 86.892C112.36 86.892 112.724 86.984 113.036 87.168C113.348 87.344 113.592 87.592 113.768 87.912C113.952 88.232 114.044 88.608 114.044 89.04V93H112.676V89.424C112.676 88.984 112.556 88.636 112.316 88.38C112.076 88.116 111.756 87.984 111.356 87.984C111.084 87.984 110.836 88.048 110.612 88.176C110.396 88.296 110.208 88.476 110.048 88.716V93H108.692ZM117.716 93.12C117.204 93.12 116.724 93.052 116.276 92.916C115.836 92.772 115.456 92.568 115.136 92.304L115.772 91.404C116.172 91.652 116.516 91.828 116.804 91.932C117.1 92.036 117.4 92.088 117.704 92.088C118.064 92.088 118.356 92.012 118.58 91.86C118.804 91.708 118.916 91.512 118.916 91.272C118.916 91.088 118.848 90.944 118.712 90.84C118.584 90.728 118.372 90.644 118.076 90.588L117.02 90.408C116.436 90.296 116 90.104 115.712 89.832C115.424 89.56 115.28 89.2 115.28 88.752C115.28 88.376 115.376 88.052 115.568 87.78C115.768 87.5 116.04 87.284 116.384 87.132C116.736 86.972 117.144 86.892 117.608 86.892C118.024 86.892 118.428 86.952 118.82 87.072C119.212 87.192 119.596 87.372 119.972 87.612L119.336 88.512C119.032 88.312 118.728 88.168 118.424 88.08C118.128 87.984 117.828 87.936 117.524 87.936C117.212 87.936 116.96 88 116.768 88.128C116.584 88.248 116.492 88.416 116.492 88.632C116.492 88.824 116.552 88.972 116.672 89.076C116.8 89.172 117.02 89.244 117.332 89.292L118.4 89.496C119 89.6 119.444 89.792 119.732 90.072C120.028 90.344 120.176 90.708 120.176 91.164C120.176 91.532 120.068 91.864 119.852 92.16C119.636 92.456 119.344 92.692 118.976 92.868C118.608 93.036 118.188 93.12 117.716 93.12ZM124.929 93V88.068H123.633V86.988H124.929V85.956C124.929 85.308 125.105 84.812 125.457 84.468C125.817 84.116 126.333 83.94 127.005 83.94C127.173 83.94 127.337 83.948 127.497 83.964C127.657 83.98 127.793 84.008 127.905 84.048V85.2C127.753 85.168 127.625 85.148 127.521 85.14C127.417 85.124 127.305 85.116 127.185 85.116C126.873 85.116 126.645 85.184 126.501 85.32C126.357 85.456 126.285 85.676 126.285 85.98V86.988H127.905V88.068H126.285V93H124.929ZM129.047 93V84.396L130.403 84.156V93H129.047ZM133.894 93.108C133.478 93.108 133.106 93.032 132.778 92.88C132.458 92.72 132.206 92.504 132.022 92.232C131.846 91.952 131.758 91.632 131.758 91.272C131.758 90.912 131.85 90.6 132.034 90.336C132.226 90.072 132.494 89.868 132.838 89.724C133.182 89.58 133.59 89.508 134.062 89.508C134.342 89.508 134.618 89.54 134.89 89.604C135.162 89.66 135.426 89.756 135.682 89.892V89.22C135.682 88.82 135.566 88.52 135.334 88.32C135.11 88.12 134.766 88.02 134.302 88.02C134.054 88.02 133.786 88.06 133.498 88.14C133.218 88.212 132.902 88.328 132.55 88.488L132.07 87.504C132.95 87.096 133.782 86.892 134.566 86.892C135.35 86.892 135.954 87.084 136.378 87.468C136.81 87.844 137.026 88.38 137.026 89.076V93H135.682V92.376C135.426 92.624 135.15 92.808 134.854 92.928C134.558 93.048 134.238 93.108 133.894 93.108ZM133.03 91.248C133.03 91.528 133.142 91.748 133.366 91.908C133.59 92.068 133.89 92.148 134.266 92.148C134.538 92.148 134.79 92.108 135.022 92.028C135.262 91.94 135.482 91.812 135.682 91.644V90.672C135.474 90.576 135.258 90.504 135.034 90.456C134.81 90.408 134.566 90.384 134.302 90.384C133.91 90.384 133.598 90.46 133.366 90.612C133.142 90.764 133.03 90.976 133.03 91.248ZM141.476 95.628C141.052 95.628 140.632 95.576 140.216 95.472C139.8 95.368 139.416 95.224 139.064 95.04L139.532 94.044C139.892 94.212 140.22 94.336 140.516 94.416C140.82 94.504 141.12 94.548 141.416 94.548C141.92 94.548 142.3 94.436 142.556 94.212C142.82 93.988 142.952 93.656 142.952 93.216V92.196C142.736 92.46 142.468 92.668 142.148 92.82C141.828 92.964 141.48 93.036 141.104 93.036C140.6 93.036 140.144 92.9 139.736 92.628C139.328 92.348 139 91.98 138.752 91.524C138.512 91.06 138.392 90.544 138.392 89.976C138.392 89.408 138.516 88.896 138.764 88.44C139.012 87.984 139.348 87.62 139.772 87.348C140.204 87.076 140.68 86.94 141.2 86.94C141.552 86.94 141.88 87.008 142.184 87.144C142.488 87.28 142.748 87.48 142.964 87.744V86.988H144.308V93.216C144.308 93.992 144.064 94.588 143.576 95.004C143.088 95.42 142.388 95.628 141.476 95.628ZM141.524 91.908C141.812 91.908 142.08 91.852 142.328 91.74C142.576 91.62 142.784 91.456 142.952 91.248V88.728C142.776 88.52 142.564 88.36 142.316 88.248C142.068 88.136 141.804 88.08 141.524 88.08C141.18 88.08 140.872 88.164 140.6 88.332C140.336 88.492 140.124 88.716 139.964 89.004C139.804 89.284 139.724 89.612 139.724 89.988C139.724 90.348 139.804 90.676 139.964 90.972C140.124 91.26 140.336 91.488 140.6 91.656C140.872 91.824 141.18 91.908 141.524 91.908ZM148.789 95.628C148.365 95.628 147.945 95.576 147.529 95.472C147.113 95.368 146.729 95.224 146.377 95.04L146.845 94.044C147.205 94.212 147.533 94.336 147.829 94.416C148.133 94.504 148.433 94.548 148.729 94.548C149.233 94.548 149.613 94.436 149.869 94.212C150.133 93.988 150.265 93.656 150.265 93.216V92.196C150.049 92.46 149.781 92.668 149.461 92.82C149.141 92.964 148.793 93.036 148.417 93.036C147.913 93.036 147.457 92.9 147.049 92.628C146.641 92.348 146.313 91.98 146.065 91.524C145.825 91.06 145.705 90.544 145.705 89.976C145.705 89.408 145.829 88.896 146.077 88.44C146.325 87.984 146.661 87.62 147.085 87.348C147.517 87.076 147.993 86.94 148.513 86.94C148.865 86.94 149.193 87.008 149.497 87.144C149.801 87.28 150.061 87.48 150.277 87.744V86.988H151.621V93.216C151.621 93.992 151.377 94.588 150.889 95.004C150.401 95.42 149.701 95.628 148.789 95.628ZM148.837 91.908C149.125 91.908 149.393 91.852 149.641 91.74C149.889 91.62 150.097 91.456 150.265 91.248V88.728C150.089 88.52 149.877 88.36 149.629 88.248C149.381 88.136 149.117 88.08 148.837 88.08C148.493 88.08 148.185 88.164 147.913 88.332C147.649 88.492 147.437 88.716 147.277 89.004C147.117 89.284 147.037 89.612 147.037 89.988C147.037 90.348 147.117 90.676 147.277 90.972C147.437 91.26 147.649 91.488 147.913 91.656C148.185 91.824 148.493 91.908 148.837 91.908ZM156.089 93.12C155.513 93.12 154.993 92.984 154.529 92.712C154.065 92.432 153.697 92.06 153.425 91.596C153.153 91.124 153.017 90.592 153.017 90C153.017 89.408 153.145 88.88 153.401 88.416C153.657 87.952 154.005 87.584 154.445 87.312C154.893 87.032 155.389 86.892 155.933 86.892C156.493 86.892 156.985 87.028 157.409 87.3C157.841 87.572 158.177 87.94 158.417 88.404C158.665 88.868 158.789 89.4 158.789 90V90.324H154.349C154.397 90.652 154.501 90.944 154.661 91.2C154.829 91.448 155.041 91.644 155.297 91.788C155.561 91.932 155.845 92.004 156.149 92.004C156.429 92.004 156.693 91.956 156.941 91.86C157.197 91.756 157.409 91.616 157.577 91.44L158.465 92.244C158.097 92.548 157.721 92.772 157.337 92.916C156.961 93.052 156.545 93.12 156.089 93.12ZM154.361 89.484H157.505C157.457 89.196 157.357 88.94 157.205 88.716C157.061 88.492 156.877 88.316 156.653 88.188C156.437 88.06 156.197 87.996 155.933 87.996C155.669 87.996 155.425 88.06 155.201 88.188C154.985 88.308 154.805 88.48 154.661 88.704C154.517 88.928 154.417 89.188 154.361 89.484ZM162.631 93.06C162.127 93.06 161.671 92.924 161.263 92.652C160.855 92.372 160.527 92.004 160.279 91.548C160.039 91.084 159.919 90.568 159.919 90C159.919 89.424 160.043 88.908 160.291 88.452C160.539 87.988 160.875 87.62 161.299 87.348C161.731 87.076 162.207 86.94 162.727 86.94C163.071 86.94 163.391 87.008 163.687 87.144C163.991 87.272 164.255 87.464 164.479 87.72V84.396L165.835 84.156V93H164.491V92.208C164.275 92.48 164.007 92.692 163.687 92.844C163.367 92.988 163.015 93.06 162.631 93.06ZM163.051 91.92C163.339 91.92 163.607 91.864 163.855 91.752C164.103 91.632 164.311 91.468 164.479 91.26V88.728C164.303 88.52 164.091 88.36 163.843 88.248C163.595 88.136 163.331 88.08 163.051 88.08C162.707 88.08 162.399 88.164 162.127 88.332C161.863 88.492 161.651 88.716 161.491 89.004C161.331 89.292 161.251 89.624 161.251 90C161.251 90.36 161.331 90.688 161.491 90.984C161.651 91.272 161.863 91.5 162.127 91.668C162.399 91.836 162.707 91.92 163.051 91.92Z" fill="#675AF9"/>
<rect x="145" y="130" width="176" height="176" rx="88" fill="#675AF9" fill-opacity="0.2"/>
<rect x="169" y="154" width="128" height="128" rx="64" fill="#675AF9"/>
<path d="M199.994 193.725C196.308 205.272 192.724 219.761 184 225.222H254C243.822 220.813 242.16 207.69 235.306 189.947C228.451 172.205 221.598 170 217.546 170C212.249 170 205.96 175.038 199.994 193.725Z" fill="url(#paint0_linear_1927_709)"/>
<path d="M261.355 242.956C264.041 234.662 266.652 224.254 273.008 220.331H222.008C229.423 223.499 230.634 232.925 235.628 245.67C240.622 258.414 245.615 259.998 248.567 259.998C252.426 259.998 257.008 256.379 261.355 242.956Z" fill="url(#paint1_linear_1927_709)"/>
<line x1="183" y1="222.5" x2="283" y2="222.5" stroke="white" stroke-opacity="0.4"/>
<rect x="97" y="347" width="64" height="64" rx="32" fill="#08CA97"/>
<path d="M136.5 374.667H135.25V372.19C135.25 368.773 132.45 366 129 366C125.55 366 122.75 368.773 122.75 372.19V374.667H121.5C120.125 374.667 119 375.781 119 377.143V389.524C119 390.886 120.125 392 121.5 392H136.5C137.875 392 139 390.886 139 389.524V377.143C139 375.781 137.875 374.667 136.5 374.667ZM129 385.81C127.625 385.81 126.5 384.695 126.5 383.333C126.5 381.971 127.625 380.857 129 380.857C130.375 380.857 131.5 381.971 131.5 383.333C131.5 384.695 130.375 385.81 129 385.81ZM132.875 374.667H125.125V372.19C125.125 370.073 126.863 368.352 129 368.352C131.137 368.352 132.875 370.073 132.875 372.19V374.667Z" fill="white"/>
<rect x="304" y="347" width="64" height="64" rx="32" fill="#08CA97"/>
<g clip-path="url(#clip0_1927_709)">
<path d="M335.455 365.225C334.33 365.804 332.607 366.567 331.516 366.97C330.265 367.429 329.003 367.78 327.685 368.037C327.415 368.09 325.988 368.328 324.692 368.54C324.381 368.589 324.098 368.646 324.065 368.664L324 368.698V369.147C324 369.931 324.134 372.996 324.234 374.55C324.272 375.111 324.392 376.596 324.414 376.743C324.472 377.159 324.739 378.422 324.915 379.121C325.305 380.668 325.652 381.71 326.262 383.159C326.576 383.905 326.87 384.457 327.558 385.592C328.065 386.425 328.435 386.97 329.054 387.796C329.837 388.838 330.715 389.746 331.986 390.826C333.426 392.053 333.622 392.206 334.259 392.585C334.484 392.721 334.758 392.89 334.871 392.963C335.109 393.121 335.744 393.437 335.891 393.473C335.989 393.497 336.004 393.493 336.214 393.406C336.623 393.233 336.968 393.059 337.191 392.912C337.314 392.834 337.601 392.656 337.83 392.518C338.384 392.186 338.761 391.892 340.019 390.815C340.862 390.091 340.963 389.996 341.604 389.326C342.443 388.448 342.588 388.275 343.334 387.244C343.935 386.414 344.275 385.879 344.941 384.735C345.498 383.773 346.032 382.547 346.535 381.073C346.916 379.953 347.443 377.703 347.586 376.587C347.74 375.394 347.918 372.159 347.991 369.25C348.004 368.704 348.002 368.678 347.964 368.664C347.833 368.626 346.873 368.453 346.152 368.339C345.168 368.181 344.211 368.01 343.714 367.903C342.289 367.591 340.905 367.153 339.484 366.563C338.609 366.2 337.458 365.675 336.599 365.245C335.969 364.929 336.029 364.929 335.455 365.225Z" fill="white"/>
</g>
<path d="M277.974 314.998C280.257 323.853 286.154 334.336 301.552 343.509" stroke="url(#paint2_linear_1927_709)" stroke-width="3" stroke-linecap="round"/>
<path d="M191.475 314.998C189.192 323.853 183.296 334.336 167.898 343.509" stroke="url(#paint3_linear_1927_709)" stroke-width="3" stroke-linecap="round"/>
<defs>
<filter id="filter0_d_1927_709" x="272" y="72" width="179" height="42" filterUnits="userSpaceOnUse" color-interpolation-filters="sRGB">
<feFlood flood-opacity="0" result="BackgroundImageFix"/>
<feColorMatrix in="SourceAlpha" type="matrix" values="0 0 0 0 0 0 0 0 0 0 0 0 0 0 0 0 0 0 127 0" result="hardAlpha"/>
<feOffset dx="3" dy="3"/>
<feComposite in2="hardAlpha" operator="out"/>
<feColorMatrix type="matrix" values="0 0 0 0 1 0 0 0 0 0.788235 0 0 0 0 0.835294 0 0 0 1 0"/>
<feBlend mode="normal" in2="BackgroundImageFix" result="effect1_dropShadow_1927_709"/>
<feBlend mode="normal" in="SourceGraphic" in2="effect1_dropShadow_1927_709" result="shape"/>
</filter>
<filter id="filter1_d_1927_709" x="105" y="0" width="259" height="53" filterUnits="userSpaceOnUse" color-interpolation-filters="sRGB">
<feFlood flood-opacity="0" result="BackgroundImageFix"/>
<feColorMatrix in="SourceAlpha" type="matrix" values="0 0 0 0 0 0 0 0 0 0 0 0 0 0 0 0 0 0 127 0" result="hardAlpha"/>
<feOffset dx="4" dy="4"/>
<feComposite in2="hardAlpha" operator="out"/>
<feColorMatrix type="matrix" values="0 0 0 0 0.403922 0 0 0 0 0.352941 0 0 0 0 0.976471 0 0 0 1 0"/>
<feBlend mode="normal" in2="BackgroundImageFix" result="effect1_dropShadow_1927_709"/>
<feBlend mode="normal" in="SourceGraphic" in2="effect1_dropShadow_1927_709" result="shape"/>
</filter>
<filter id="filter2_d_1927_709" x="0" y="69" width="187" height="42" filterUnits="userSpaceOnUse" color-interpolation-filters="sRGB">
<feFlood flood-opacity="0" result="BackgroundImageFix"/>
<feColorMatrix in="SourceAlpha" type="matrix" values="0 0 0 0 0 0 0 0 0 0 0 0 0 0 0 0 0 0 127 0" result="hardAlpha"/>
<feOffset dx="3" dy="3"/>
<feComposite in2="hardAlpha" operator="out"/>
<feColorMatrix type="matrix" values="0 0 0 0 1 0 0 0 0 0.788235 0 0 0 0 0.835294 0 0 0 1 0"/>
<feBlend mode="normal" in2="BackgroundImageFix" result="effect1_dropShadow_1927_709"/>
<feBlend mode="normal" in="SourceGraphic" in2="effect1_dropShadow_1927_709" result="shape"/>
</filter>
<linearGradient id="paint0_linear_1927_709" x1="219" y1="170" x2="219" y2="225.222" gradientUnits="userSpaceOnUse">
<stop stop-color="white"/>
<stop offset="1" stop-color="white" stop-opacity="0"/>
</linearGradient>
<linearGradient id="paint1_linear_1927_709" x1="247.508" y1="259.998" x2="247.508" y2="220.331" gradientUnits="userSpaceOnUse">
<stop stop-color="white"/>
<stop offset="1" stop-color="white" stop-opacity="0"/>
</linearGradient>
<linearGradient id="paint2_linear_1927_709" x1="285.599" y1="312.501" x2="296.103" y2="344.567" gradientUnits="userSpaceOnUse">
<stop stop-color="#B3ACFC"/>
<stop offset="1" stop-color="#B3ACFC" stop-opacity="0.3"/>
</linearGradient>
<linearGradient id="paint3_linear_1927_709" x1="183.851" y1="312.501" x2="173.347" y2="344.567" gradientUnits="userSpaceOnUse">
<stop stop-color="#B3ACFC"/>
<stop offset="1" stop-color="#B3ACFC" stop-opacity="0.3"/>
</linearGradient>
<clipPath id="clip0_1927_709">
<rect width="24" height="28.4952" fill="white" transform="translate(324 365)"/>
</clipPath>
</defs>
</svg>