<svg width="448" height="401" viewBox="0 0 448 401" fill="none" xmlns="http://www.w3.org/2000/svg">
<circle cx="204.5" cy="308.5" r="29.5" fill="#BFB9FF" fill-opacity="0.5"/>
<rect x="195.172" y="305.927" width="23.5833" height="10.0625" fill="#15B776" stroke="#564CC8"/>
<circle cx="206.966" cy="310.958" r="1.95833" fill="white" stroke="#564CC8"/>
<rect x="192.719" y="303.469" width="23.5833" height="10.0625" fill="#15B776" stroke="#564CC8"/>
<circle cx="204.513" cy="308.5" r="1.95833" fill="white" stroke="#564CC8"/>
<rect x="190.266" y="301.01" width="23.5833" height="10.0625" fill="#15B776" stroke="#564CC8"/>
<circle cx="202.06" cy="306.042" r="1.95833" fill="white" stroke="#564CC8"/>
<circle cx="290.5" cy="126.5" r="17.5" fill="#BFB9FF" fill-opacity="0.6"/>
<circle cx="290.497" cy="126.5" r="7.52083" fill="white" stroke="#564CC8"/>
<path d="M290.271 121.153L290.271 127.391L293.836 129.842" stroke="#08CA97" stroke-width="2"/>
<circle cx="225.504" cy="354.504" r="2.50411" fill="#BFB9FF"/>
<circle cx="315.504" cy="32.5041" r="2.50411" fill="#BFB9FF"/>
<circle cx="198.504" cy="67.5041" r="2.50411" fill="#BFB9FF"/>
<path fill-rule="evenodd" clip-rule="evenodd" d="M330.667 18.3333L336 21L330.667 23.6667L328 29L325.333 23.6667L320 21L325.333 18.3333L328 13L330.667 18.3333Z" fill="#8D83FF" fill-opacity="0.6"/>
<circle cx="206.504" cy="360.504" r="2.50411" fill="#BFB9FF"/>
<circle cx="346.504" cy="2.50411" r="2.50411" fill="#DCDDFF"/>
<circle cx="186.504" cy="90.5041" r="2.50411" fill="#DCDDFF"/>
<circle cx="288.504" cy="197.504" r="2.50411" fill="#BFB9FF"/>
<circle cx="306.504" cy="220.504" r="2.50411" fill="#DCDDFF"/>
<circle cx="214.504" cy="380.504" r="2.50411" fill="#DCDDFF"/>
<g clip-path="url(#clip0_1927_405)">
<path d="M243.208 185.625L246.906 177.49L255.042 173.792L246.906 170.094L243.208 161.958L239.51 170.094L231.375 173.792L239.51 177.49L243.208 185.625ZM221.021 187.104L213.625 170.833L206.229 187.104L189.958 194.5L206.229 201.896L213.625 218.167L221.021 201.896L237.292 194.5L221.021 187.104ZM243.208 203.375L239.51 211.51L231.375 215.208L239.51 218.906L243.208 227.042L246.906 218.906L255.042 215.208L246.906 211.51L243.208 203.375Z" fill="#FFCA54"/>
</g>
<path d="M77 2L77 288L70 288C31.3401 288 4.12725e-06 256.66 5.81713e-06 218L1.52588e-05 2L77 2Z" fill="url(#paint0_linear_1927_405)"/>
<path d="M0 222H152V223C152 264.421 118.421 298 77 298H75C33.5786 298 0 264.421 0 223V222Z" fill="#FFD2DC"/>
<path d="M107.424 204.766C107.451 206.535 107.473 208.361 107.473 210.209C107.473 210.209 108.26 218.117 104.682 221.427C104.288 221.81 103.823 222.089 103.43 222.333C102.607 222.821 101.891 223.03 101.891 223.03C101.891 223.03 101.855 223.064 101.82 223.064C96.0944 224.597 91.4069 224.145 88.9379 224.214C80.9943 224.388 74.5534 224.354 68.9714 224.179C65.5721 224.075 51.1519 225.015 49.327 222.368C49.2912 222.298 49.2554 222.228 49.2196 222.159C48.8976 221.427 48.6471 220.521 48.4682 219.441C48.4324 219.337 48.3966 219.197 48.3966 219.093C47.8053 215.576 47.7493 210.468 48.3497 204.35L31.1667 202.94C30.0419 202.847 29.1806 201.9 29.1955 200.771C29.2721 194.976 29.586 191.007 30.1373 188.862C32.6857 178.948 37.5557 174.659 37.9859 173.123C40.4311 164.255 42.8617 161.108 43.8445 160.159C44.9736 159.033 46.0606 158.265 46.7849 157.777C51.6729 154.534 56.7977 154.122 59.4106 154.096C59.4828 154.062 59.5544 154.063 59.6259 154.064L72.3298 154.107C73.3636 154.081 73.5737 154.041 73.37 154.275C74.9234 154.062 76.6993 153.848 78.6326 153.664C81.5088 153.707 84.1187 153.864 86.4624 154.133L97.1462 154.284C97.2178 154.284 97.2893 154.284 97.3609 154.319C99.973 154.391 105.09 154.892 109.92 158.22C110.636 158.721 111.71 159.508 112.819 160.653C113.785 161.619 116.16 164.808 118.45 173.718C118.854 175.261 123.648 179.634 126.023 189.591C126.537 191.745 126.781 195.719 126.757 201.515C126.752 202.644 125.874 203.576 124.748 203.648L107.424 204.766Z" fill="#08CA97"/>
<path d="M42.4585 224.587L112.67 225.788C112.672 225.788 112.673 225.788 112.674 225.788C116.205 225.787 118.698 225.089 120.451 223.919C122.197 222.754 123.262 221.087 123.873 219.042C124.487 216.986 124.639 214.561 124.558 211.918C124.483 209.501 124.215 206.935 123.944 204.332C123.937 204.272 123.931 204.211 123.925 204.15C123.801 204.163 123.661 204.175 123.509 204.185C122.982 204.222 122.259 204.251 121.406 204.278C120.894 204.294 120.334 204.31 119.738 204.327C118.339 204.366 116.742 204.412 115.105 204.481C112.772 204.58 110.376 204.728 108.39 204.977C107.397 205.101 106.517 205.249 105.803 205.426C105.075 205.607 104.573 205.805 104.295 206.002L104.205 206.067L104.096 206.087C95.822 207.624 84.4865 210.071 75.2149 212.136C70.5801 213.168 66.4628 214.104 63.5042 214.782C62.025 215.121 60.8354 215.395 60.0157 215.585C59.6059 215.68 59.2885 215.754 59.0737 215.804L58.8295 215.86L58.8103 215.865L46.9885 222.167L46.9861 222.169L46.3094 222.525L46.3063 222.526L42.4585 224.587Z" stroke="#564CC8"/>
<path d="M57.4169 193.351C58.1325 191.025 61.5676 180.326 62.3906 178.108" stroke="#564CC8" stroke-width="3" stroke-linecap="round" stroke-linejoin="round"/>
<path d="M99.3269 178.108L104.258 204.504" stroke="#564CC8" stroke-width="3" stroke-linecap="round" stroke-linejoin="round"/>
<path d="M74.6126 141.402L74.6214 141.423L74.6321 141.443L77.3814 146.535L77.4536 146.669L77.5881 146.74L83.4166 149.815L83.2798 156.019H83.2796V156.03C83.2796 156.093 83.2152 156.175 83.1574 156.189L83.1462 156.192L83.135 156.195C81.7537 156.61 79.3059 157.091 76.4485 156.437L76.4485 156.437L76.4432 156.436C74.864 156.093 73.5924 155.474 72.6987 154.924L72.68 154.913L72.6611 154.904C72.6587 154.902 72.6515 154.894 72.6424 154.876C72.6279 154.847 72.6157 154.803 72.6147 154.749L72.9956 143.566L73.0029 143.351L72.852 143.198C71.8297 142.161 70.4198 140.65 69.5944 139.433L69.5944 139.433L69.5921 139.43C69.474 139.258 69.3193 139.056 69.1399 138.821C68.1701 137.551 66.4796 135.338 65.954 132.02C65.9511 131.998 65.9481 131.975 65.9449 131.951C65.752 130.493 65.1866 126.219 67.8178 122.922C68.7571 121.748 69.8318 121.143 70.2987 120.91L70.2987 120.91L70.3104 120.904C71.5601 120.237 72.6744 120.049 74.1599 120.005C74.7623 119.988 75.4159 119.994 76.1646 120.001C76.3514 120.003 76.5441 120.005 76.7434 120.007C77.7364 120.014 78.8771 120.014 80.2215 119.96L80.2323 119.96L80.2429 119.959C80.4103 119.945 80.626 119.937 80.8986 119.927C80.9522 119.924 81.0081 119.922 81.0663 119.92C81.4118 119.907 81.8211 119.889 82.2772 119.852C83.7438 119.756 84.8175 119.632 85.2663 119.58C85.3243 119.574 85.3719 119.568 85.4085 119.564C86.6764 119.427 88.7157 119.478 90.7662 120.029C92.8109 120.578 94.8111 121.608 96.0977 123.382C96.1474 123.468 96.2005 123.553 96.2558 123.637C96.2183 123.656 96.1808 123.674 96.1434 123.693C95.5974 123.965 95.0575 124.233 94.441 124.376C91.8993 124.925 89.6969 124.548 88.3134 124.167L88.0219 124.087L87.8155 124.308C85.2748 127.027 82.7354 129.746 80.1961 132.428L80.1724 132.453L80.1524 132.481C80.0433 132.634 79.8541 132.791 79.5632 132.957C79.2748 133.121 78.9227 133.275 78.5183 133.44C78.3983 133.489 78.2737 133.539 78.1457 133.59C77.4356 133.874 76.6216 134.199 75.9123 134.646C75.0601 135.182 74.2989 135.929 73.987 137.062C73.678 138.183 73.8358 139.592 74.6126 141.402Z" stroke="#564CC8"/>
<path d="M84.5 149.589L78.8822 147.55L83.7486 153.49L84.5 149.589Z" fill="#564CC8"/>
<path d="M98.0289 128.789L98.029 128.788C98.0624 127.45 97.7289 126.137 97.0821 124.878L97.0821 124.878L97.0797 124.873C96.8038 124.321 96.5414 123.901 96.2266 123.554L96.2138 123.54L96.2022 123.525C94.4078 121.223 91.8929 120.227 89.6402 119.833C87.4132 119.443 85.4872 119.651 84.8826 119.738C84.7912 119.759 84.7049 119.77 84.644 119.777L84.6357 119.778C84.5622 119.787 84.5207 119.793 84.4841 119.802C83.1087 120.173 81.8143 120.282 80.5446 120.319L80.5375 120.319H80.5303C80.2559 120.319 79.9931 120.573 79.9927 120.891C79.9927 120.892 79.9927 120.892 79.9927 120.892L80.0284 130.05L80.0321 130.989L79.2511 130.468C78.9674 130.279 78.4808 130.019 77.8626 129.856L77.8625 129.856L77.8524 129.853C77.3614 129.713 75.7573 129.309 74.341 130.127C72.9081 130.969 72.5419 132.611 72.398 133.366L72.3981 133.366L72.3964 133.374C72.0473 135.056 72.685 136.427 73.3992 137.962L73.4324 138.033C73.4327 138.034 73.4329 138.034 73.4331 138.035C74.6332 140.576 76.042 143.465 77.6941 146.633C77.7251 146.649 77.769 146.671 77.8289 146.697L77.8601 146.71L77.8892 146.728C78.2192 146.926 78.8753 147.273 80.1501 147.804L80.1502 147.804L80.163 147.81C80.8607 148.124 81.7762 148.476 82.9555 148.905L82.9555 148.905L82.9608 148.907C84.4813 149.479 85.1914 149.737 85.5467 149.859C85.7233 149.921 85.8082 149.947 85.859 149.962C85.8692 149.965 85.8809 149.968 85.8938 149.972C85.9242 149.98 85.9613 149.991 86.001 150.004C87.0854 150.278 88.0933 150.398 88.8728 150.441C89.6729 150.485 90.1936 150.446 90.3082 150.423L90.3362 150.418L90.3647 150.415C91.4181 150.327 92.6623 149.419 93.8547 147.63L93.8566 147.628C95.4522 145.269 96.8995 141.548 97.6783 137.052L97.6803 137.04L97.6829 137.029C97.8152 136.434 97.85 135.833 97.886 135.186L98.0289 128.789Z" stroke="#564CC8"/>
<path d="M97.0237 123.826C96.308 124.148 95.485 124.649 94.5189 124.864C91.8353 125.436 89.4736 125.043 88.0423 124.649C85.466 127.369 81.9594 130.983 79.3473 133.702C74.4809 133.917 70.5448 133.201 65.6784 133.416C65.6784 133.416 65.2133 132.915 64.9628 132.163C64.605 131.09 63.8535 126.474 66.9666 122.681C67.9685 121.429 69.1493 120.785 69.6503 120.534C72.3697 119.103 74.5167 119.747 79.9556 119.532C80.3849 119.496 81.1006 119.496 82.0309 119.425C83.7127 119.318 84.8577 119.174 85.2155 119.139C87.8992 118.852 93.7675 119.353 96.5585 123.182C96.6659 123.361 96.8448 123.611 97.0237 123.826Z" fill="#564CC8"/>
<path d="M80.2812 137.28L79.8161 132.7C79.8161 132.7 79.6014 131.412 78.6353 130.196C78.5637 130.124 77.9196 129.373 76.9535 129.051C75.236 128.478 73.089 129.373 71.944 130.983C70.7632 132.629 70.8705 134.74 71.6577 136.314C72.4449 137.889 73.8047 138.533 74.2698 138.748L76.1663 139.141L80.2812 137.28Z" fill="#564CC8"/>
<path d="M94.4828 135.706C94.4828 135.276 94.769 134.883 95.1984 134.811C95.4847 134.775 95.7351 134.847 95.9141 135.312C96.3792 136.421 95.592 138.21 94.9837 137.674C94.6259 137.316 94.5186 136.314 94.4828 135.706Z" fill="#564CC8"/>
<path d="M88.0779 135.634C88.1137 135.205 88.4715 134.847 88.9009 134.847C89.1872 134.847 89.4377 134.955 89.5808 135.42C89.9386 136.565 88.9367 138.282 88.4 137.674C88.0422 137.245 88.0422 136.243 88.0779 135.634Z" fill="#564CC8"/>
<path d="M91.0101 143.005C90.7596 142.934 90.1513 142.755 90.044 142.361C90.044 142.29 90.0082 142.182 90.044 142.111C90.1871 141.86 90.6165 142.003 91.2606 142.039C92.4056 142.111 93.3359 142.003 93.3359 142.003C93.3359 142.003 93.0855 142.719 92.9066 142.934C92.5129 143.47 91.3679 143.113 91.0101 143.005Z" fill="#564CC8"/>
<path d="M97.2738 133.201C97.6316 133.129 97.739 132.664 97.4885 132.414C97.1665 132.128 96.5939 131.841 95.8783 131.841C94.4112 131.841 92.8368 132.807 94.4828 133.237C95.4489 133.523 96.5939 133.344 97.2738 133.201Z" fill="#564CC8"/>
<path d="M89.9073 133.452C90.2651 133.38 90.3724 132.915 90.0862 132.664C89.7641 132.378 89.1916 132.092 88.4402 132.092C86.9731 132.092 85.3987 133.094 87.0447 133.487C88.0824 133.774 89.1916 133.595 89.9073 133.452Z" fill="#564CC8"/>
<path d="M93.0837 133.666V135.777L93.6204 139.606C93.6562 139.821 93.4773 140.035 93.2626 140.071C92.7974 140.107 92.368 140.143 91.545 140.143" stroke="#564CC8" stroke-width="2" stroke-linecap="round" stroke-linejoin="round"/>
<path d="M70.8277 132.879C70.6488 134.024 70.8635 135.241 71.3645 136.207C72.1517 137.781 73.5114 138.425 73.9766 138.64" stroke="#564CC8" stroke-width="2" stroke-linecap="round" stroke-linejoin="round"/>
<path d="M67.3611 185.43L67.4674 185.329L67.5019 185.186C69.0457 178.813 70.3361 173.742 71.3734 169.97C72.4145 166.185 73.1918 163.743 73.7072 162.603C73.8807 162.219 74.0137 161.985 74.1086 161.848C74.1629 161.939 74.2199 162.047 74.2884 162.179L74.3037 162.209C74.4318 162.456 74.5953 162.771 74.8035 163.044C74.863 163.122 74.9678 163.246 75.1255 163.313C75.217 163.352 75.333 163.375 75.4606 163.351C75.5858 163.328 75.6797 163.267 75.743 163.21C75.8528 163.111 75.9086 162.987 75.932 162.933C75.9571 162.875 75.9805 162.809 75.9978 162.761C76.0002 162.754 76.0025 162.747 76.0046 162.741C76.0232 162.69 76.0381 162.651 76.0503 162.622C76.4803 162.717 76.8007 162.908 77.039 163.181C77.3025 163.484 77.498 163.925 77.5919 164.547L77.6278 164.784L77.8356 164.905C78.3024 165.175 78.5928 165.459 78.7535 165.74C78.9089 166.012 78.9621 166.312 78.8995 166.667C78.8732 166.817 78.8798 166.964 78.8912 167.094C78.8986 167.178 78.9107 167.278 78.9233 167.382C78.9296 167.435 78.9361 167.488 78.9422 167.542C78.9805 167.878 79.0229 168.348 79.0098 169.049C78.9835 170.458 78.7329 172.821 77.7546 176.909C77.3854 178.452 77.6784 180.244 77.9545 181.932C77.9608 181.97 77.9671 182.009 77.9734 182.048C78.2639 183.826 78.5241 185.503 78.1911 186.953L78.0728 187.468L78.0781 187.469C76.1735 194.036 70.4734 204.016 60.9051 217.442C53.6011 227.691 46.9357 230.02 41.7694 229.623C37.1103 229.266 33.5468 226.698 31.6058 225.299C31.368 225.127 31.1545 224.973 30.9664 224.843C30.5558 224.56 30.1758 223.947 29.9058 222.861C29.6393 221.788 29.5 220.336 29.5 218.486C29.5 214.875 30.0304 209.84 31.0997 203.37L46.9246 204.691L47.1487 204.71L47.3114 204.555L67.3611 185.43ZM75.0082 162.548C75.0082 162.548 75.0093 162.545 75.0118 162.541C75.0095 162.546 75.0083 162.548 75.0082 162.548ZM75.6144 162.456C75.6144 162.457 75.6127 162.455 75.6093 162.451C75.6127 162.454 75.6144 162.456 75.6144 162.456Z" stroke="#564CC8"/>
<path d="M46.7119 204.193L43.1875 206.281" stroke="#564CC8" stroke-width="3" stroke-linecap="round" stroke-linejoin="round"/>
<path d="M64.2815 213.465L55.3359 224.558" stroke="#564CC8" stroke-width="3" stroke-linecap="round" stroke-linejoin="round"/>
<path d="M448 57L448 325C448 361.451 418.451 391 382 391L371 391L371 247.5L374 224L371 210.5L371 57L448 57Z" fill="url(#paint1_linear_1927_405)"/>
<path d="M296 325H448V326C448 367.421 414.421 401 373 401H371C329.579 401 296 367.421 296 326V325Z" fill="#FFD2DC"/>
<path d="M359.13 242.036L369.169 239.042C383.768 236.878 396.617 243.095 400.301 256.542L416.379 324.516L416.512 325.078H394.63H356.418L342.275 277.312C338.544 263.819 345.867 245.812 359.13 242.036Z" fill="#08CA97"/>
<path d="M409.043 294.073L389.106 275.067C388.277 274.883 389.617 272.823 389.802 271.994L390.585 268.54C390.769 267.711 391.598 267.204 392.427 267.389L411.737 273.053C412.566 273.237 413.072 274.066 412.888 274.895L412.105 278.349C411.921 279.132 409.872 294.257 409.043 294.073Z" fill="#09BD8E"/>
<path d="M351.253 246.841C351.253 246.841 350.378 250.341 355.029 249.374C359.681 248.406 361.016 247.946 361.016 247.946L359.819 244.768L351.253 246.841Z" fill="#374E52"/>
<path d="M386.111 285.064L386.594 285.193L386.594 285.193L386.595 285.192L386.595 285.189L386.598 285.178L386.61 285.134L386.657 284.958L386.845 284.252L387.597 281.43L390.511 270.485L413.306 268.856C411.352 281.913 409.742 292.563 408.18 300.817C406.591 309.218 405.063 315.073 403.306 318.452C400.7 323.464 397.618 326.87 394.085 328.736C390.561 330.597 386.532 330.957 381.962 329.772C379.505 329.135 377.292 327.785 375.601 325.892C370.179 319.821 366.421 311.323 364.36 300.357C362.662 290.585 362.18 280.52 361.696 270.419L361.695 270.403C361.227 260.624 360.757 250.812 359.171 241.256C359.207 241.273 359.245 241.29 359.283 241.308C359.544 241.432 359.845 241.576 360.169 241.731L360.244 241.768C360.596 241.936 360.973 242.117 361.351 242.296C362.106 242.653 362.875 243.008 363.476 243.258C363.774 243.382 364.044 243.486 364.255 243.549C364.358 243.581 364.467 243.609 364.568 243.621C364.617 243.627 364.686 243.632 364.762 243.623C364.824 243.615 364.96 243.59 365.08 243.479C367.556 241.279 369.904 239.64 371.876 239.041C372.855 238.744 373.7 238.715 374.411 238.959C375.097 239.195 375.722 239.707 376.243 240.617L385.622 285.167L386.594 285.193L386.111 285.064Z" stroke="#564CC8"/>
<path d="M386.302 285.111L390.861 300.492" stroke="#564CC8" stroke-width="3" stroke-linecap="round" stroke-linejoin="round"/>
<path d="M375.566 245.317L375.547 245.325L375.528 245.334C375.463 245.367 375.384 245.398 375.308 245.416C375.228 245.435 375.179 245.433 375.159 245.429L375.104 245.418L375.048 245.42L363.03 245.742L363.028 245.742L354.603 245.926L354.511 245.928L354.427 245.963C353.006 246.535 350.86 247.279 349.012 247.389C348.087 247.444 347.297 247.336 346.718 247.023C346.252 246.771 345.888 246.368 345.703 245.716C345.929 245.622 346.248 245.49 346.643 245.327C347.473 244.983 348.638 244.499 349.976 243.94C352.654 242.823 356.029 241.406 358.818 240.208L358.892 240.176L358.952 240.122L359.365 239.755C359.683 239.477 359.943 239.33 360.33 239.214L360.371 239.202L360.394 239.191C360.397 239.19 360.402 239.19 360.409 239.19C360.423 239.189 360.438 239.189 360.462 239.189H360.499L360.535 239.184L362.744 238.862L362.745 238.862L367.534 238.171L367.535 238.171L370.663 237.711L370.667 237.71L372.966 237.388L372.966 237.389L372.972 237.388C374.777 237.113 376.397 238.568 376.357 240.382L376.357 240.385L376.311 243.194L376.31 243.276L376.335 243.354C376.594 244.17 376.196 245.065 375.566 245.317Z" fill="#564CC8" stroke="#564CC8"/>
<path d="M416.817 261.18C416.32 271.705 414.324 275.414 404.224 274.815C399.02 274.516 389.302 277.249 386.127 273.442C384.673 271.688 375.478 239.442 385.579 240.04C395.756 240.597 417.315 250.613 416.817 261.18Z" fill="#08CA97"/>
<path d="M364.286 244.578C364.286 244.578 365.755 247.873 361.007 247.728C356.258 247.584 354.863 247.362 354.863 247.362L355.49 244.025L364.286 244.578Z" fill="#374E52"/>
<path d="M334.321 275.385L334.319 275.396L334.316 275.406C330.78 289.427 328.777 300.373 328.295 308.257C328.054 312.2 328.196 315.353 328.704 317.73C329.214 320.116 330.076 321.65 331.215 322.461C338.058 327.335 345.007 329.003 352.09 327.529C356.836 326.541 360.449 322.677 361.116 317.876C361.864 312.493 362.288 305.537 362.384 297.002C362.359 287.083 361.086 277.087 359.809 267.055L359.807 267.039C358.57 257.328 357.329 247.583 357.231 237.897C357.198 237.92 357.165 237.944 357.13 237.968C356.894 238.135 356.623 238.33 356.331 238.539C356.309 238.555 356.286 238.571 356.263 238.587C355.946 238.815 355.606 239.058 355.265 239.3C354.584 239.782 353.888 240.266 353.34 240.616C353.067 240.79 352.82 240.939 352.623 241.039C352.527 241.087 352.424 241.134 352.327 241.164C352.279 241.178 352.212 241.195 352.137 241.199C352.074 241.202 351.936 241.201 351.798 241.113C350.388 240.245 349.166 239.541 348.101 239.041C347.03 238.537 346.152 238.255 345.428 238.2C344.723 238.146 344.173 238.307 343.711 238.693C343.24 239.086 342.815 239.751 342.447 240.795L339.756 274.025C341.17 278.495 340.972 281.469 340.357 283.367C340.04 284.344 339.616 285.024 339.262 285.466C339.084 285.686 338.925 285.847 338.806 285.955C338.746 286.009 338.697 286.05 338.66 286.079C338.652 286.085 338.645 286.09 338.638 286.096C338.629 286.102 338.622 286.108 338.615 286.113L338.6 286.124L338.595 286.128L338.593 286.129L338.592 286.13C338.591 286.13 338.591 286.13 338.308 285.718L338.591 286.13L337.724 286.726L337.809 285.678L338.744 274.142C338.718 274.064 338.693 273.986 338.667 273.907C338.156 272.373 337.677 271.298 337.238 270.646C337.018 270.32 336.829 270.133 336.681 270.04C336.548 269.956 336.469 269.958 336.41 269.975C336.33 269.999 336.194 270.078 336.016 270.307C335.84 270.533 335.652 270.868 335.458 271.328C335.07 272.249 334.69 273.595 334.321 275.385ZM339.406 283.058C339.818 281.785 340.049 279.86 339.51 277.071L338.936 284.156C339.1 283.858 339.264 283.495 339.406 283.058ZM338.021 285.309C338.021 285.309 338.021 285.308 338.023 285.307L338.022 285.308L338.021 285.309Z" stroke="#564CC8"/>
<path d="M338.135 285.796L336.316 301.735" stroke="#564CC8" stroke-width="3" stroke-linecap="round" stroke-linejoin="round"/>
<path d="M342.6 247.338L342.62 247.342L342.64 247.348C342.71 247.369 342.793 247.386 342.871 247.39C342.954 247.395 343.002 247.385 343.02 247.378L343.073 247.357L343.128 247.349L355.019 245.58L355.022 245.579L363.351 244.298L363.441 244.284L363.53 244.303C365.029 244.62 367.272 244.98 369.111 244.767C370.031 244.661 370.791 244.417 371.307 244.008C371.721 243.679 372.01 243.219 372.079 242.545C371.84 242.492 371.503 242.417 371.085 242.325C370.208 242.13 368.977 241.856 367.562 241.538C364.731 240.903 361.161 240.094 358.207 239.398L358.128 239.379L358.059 239.337L357.589 239.047C357.228 238.829 356.946 238.729 356.545 238.682L356.502 238.677L356.478 238.67C356.474 238.67 356.469 238.671 356.463 238.672C356.449 238.674 356.434 238.676 356.41 238.68L356.375 238.687L356.338 238.688L354.106 238.754L354.105 238.754L349.269 238.906L349.268 238.906L346.108 238.996L346.104 238.996L343.784 239.078L343.784 239.078L343.778 239.078C341.953 239.121 340.61 240.835 340.964 242.616L340.964 242.618L341.498 245.377L341.513 245.457L341.502 245.538C341.388 246.387 341.936 247.199 342.6 247.338Z" fill="#564CC8" stroke="#564CC8"/>
<path d="M339.102 276.397C336.315 276.397 331.436 275.357 329.752 273.842C327.973 272.25 329.838 249.311 341.487 246.416L339.102 276.397Z" fill="#08CA97"/>
<path d="M388.152 216.407C393.435 221.78 398.472 229.852 396.331 233.569C394.8 236.258 391.569 237.108 388.204 237.923C385.04 238.697 378.857 239.71 370.788 237.262C368.49 236.407 366.115 235.485 363.829 234.586" fill="#564CC8"/>
<path d="M346.075 214.906C341.473 217.487 336.44 221.86 337.128 224.809C337.618 226.895 339.63 228.102 341.688 229.321C343.623 230.459 342.235 229.731 346.075 231.27C347.544 231.859 344.318 223.107 346.075 222.958" fill="#564CC8"/>
<path d="M373.041 228.601L373.041 228.601L373.028 228.602C372.338 228.662 371.709 229.056 371.415 229.652L371.394 229.695L371.381 229.741L369.341 237.181C369.227 237.177 369.096 237.174 368.96 237.171C368.756 237.167 368.539 237.165 368.351 237.168C368.18 237.171 367.985 237.178 367.855 237.204L367.843 237.207L367.832 237.21C367.038 237.413 365.077 237.878 360.778 238.34L360.778 238.34L360.77 238.341C358.699 238.596 357.734 238.705 357.252 238.752C356.918 238.784 356.836 238.786 356.755 238.788C356.723 238.788 356.691 238.789 356.642 238.792C353.708 238.795 351.384 238.121 351.006 237.977L350.999 237.975L350.992 237.973C350.212 237.703 349.444 237.057 348.737 236.022C348.033 234.99 347.412 233.603 346.919 231.914C345.931 228.536 345.468 224.014 345.804 218.88L345.804 218.88L345.805 218.869C345.831 218.266 345.926 217.692 346.027 217.084C346.061 216.879 346.096 216.669 346.129 216.454L347.903 208.412L347.904 208.409C348.274 206.686 349.068 205.088 350.26 203.83L350.26 203.83L350.263 203.828C350.797 203.257 351.291 202.762 351.778 202.411L351.788 202.404L351.796 202.398C354.78 200.044 358.267 199.558 361.223 199.746C364.18 199.933 366.56 200.792 367.266 201.074L367.293 201.084L367.322 201.092C367.376 201.106 367.433 201.129 367.524 201.166L367.533 201.17C367.6 201.197 367.687 201.232 367.783 201.262C369.386 202.121 370.889 202.668 372.523 203.058C372.956 203.177 373.238 203.635 373.147 204.112L370.321 215.548L370.321 215.548L370.318 215.559C369.994 217.007 371.421 218.234 372.798 217.71C372.8 217.71 372.801 217.71 372.803 217.709C372.861 217.697 372.933 217.673 373.004 217.623C373.327 217.516 374.201 217.262 375.137 217.44L375.137 217.44L375.142 217.441C377.054 217.787 378.702 219.845 378.904 222.069L378.904 222.073C379.141 224.458 377.898 226.499 376.236 227.599C375.067 228.342 373.861 228.552 373.041 228.601Z" stroke="#564CC8"/>
<path d="M347.299 217.284C347.353 216.726 347.016 216.206 346.482 216.063C346.126 215.968 345.767 216.062 345.467 216.649C344.774 217.99 345.605 220.405 346.397 219.76C346.985 219.345 347.186 218.064 347.299 217.284Z" fill="#564CC8"/>
<path d="M355.29 219.138C355.344 218.58 355.007 218.061 354.473 217.918C354.117 217.822 353.758 217.917 353.458 218.504C352.765 219.844 353.595 222.26 354.388 221.614C354.988 221.155 355.233 219.886 355.29 219.138Z" fill="#564CC8"/>
<path d="M350.659 227.528C350.994 227.522 351.822 227.458 352.087 227.005C352.111 226.916 352.191 226.794 352.17 226.693C352.064 226.379 351.45 226.357 350.625 226.232C349.166 225.984 348.045 225.54 348.045 225.54C348.045 225.54 348.163 226.525 348.325 226.807C348.58 227.638 350.134 227.53 350.659 227.528Z" fill="#564CC8"/>
<path d="M344.886 212.964C344.465 212.756 344.43 212.175 344.825 211.947C345.321 211.698 346.107 211.432 347.009 211.626C348.856 212.026 350.572 213.63 348.448 213.728C347.083 213.839 345.696 213.324 344.886 212.964Z" fill="#564CC8"/>
<path d="M388.603 210.471C387.719 208.613 386.465 207.419 385.926 206.941C382.953 204.333 380.091 204.519 373.365 202.574C371.986 202.204 369.919 201.555 367.455 200.609C367.265 200.606 367.099 200.514 366.921 200.466C365.456 199.883 357.435 197.257 351.523 202.061C351.499 202.15 350.552 202.659 350.617 202.772C350.617 202.772 350.626 202.917 350.712 203.131C350.691 203.03 350.682 202.885 350.662 202.784C351.456 203.378 352.357 204.287 353.498 204.831C356.712 206.36 359.747 206.601 361.624 206.532C361.872 207.743 362.262 209.134 362.886 210.541C364.67 214.738 367.497 217.355 369.373 218.716C368.838 220.003 368.302 221.29 367.779 222.532C368.001 222.592 368.179 222.639 368.413 222.654C368.413 222.654 372.012 222.57 372.787 224.303C372.959 224.73 372.94 225.155 372.869 225.422C372.283 229.031 368.775 233.05 369.491 234.29C370.216 235.677 376.311 234.64 381.26 231.293C382.605 230.367 396.514 226.742 398.596 221.817C399.138 220.151 391.151 215.731 388.603 210.471Z" fill="#564CC8"/>
<path d="M353.509 215.277C353.088 215.069 353.053 214.487 353.493 214.271C353.988 214.022 354.775 213.756 355.721 213.962C357.568 214.362 359.272 216.01 357.16 216.064C355.751 216.163 354.363 215.649 353.509 215.277Z" fill="#564CC8"/>
<path d="M350.576 215.73L349.961 218.378L348.152 222.995C348.081 223.262 348.187 223.577 348.442 223.693C349.008 223.892 349.542 224.035 350.565 224.309" stroke="#564CC8" stroke-width="2" stroke-linecap="round" stroke-linejoin="round"/>
<path d="M375.751 234.586L375.364 238.344L369.811 237.714C369.019 237.645 368.507 236.888 368.621 236.108L368.916 234.471L370.208 231.432L375.751 234.586Z" fill="#564CC8"/>
<path d="M355.955 240.523C351.207 240.378 349.017 238.072 349.429 238.295L362.704 238.295C361.371 239.877 359.121 240.619 355.955 240.523Z" fill="#374E52"/>
<defs>
<linearGradient id="paint0_linear_1927_405" x1="39" y1="223.274" x2="39" y2="-5.52632" gradientUnits="userSpaceOnUse">
<stop stop-color="#FFD2DC"/>
<stop offset="1" stop-color="#FFD2DC" stop-opacity="0"/>
</linearGradient>
<linearGradient id="paint1_linear_1927_405" x1="410" y1="315.411" x2="410" y2="48.2105" gradientUnits="userSpaceOnUse">
<stop stop-color="#FFD2DC"/>
<stop offset="1" stop-color="#FFD2DC" stop-opacity="0"/>
</linearGradient>
<clipPath id="clip0_1927_405">
<rect width="71" height="71" fill="white" transform="translate(187 159)"/>
</clipPath>
</defs>
</svg>
