<svg width="510" height="366" viewBox="0 0 510 366" fill="none" xmlns="http://www.w3.org/2000/svg">
<path d="M147.703 41.1348C237.785 35.0844 394.252 24.496 451.226 169.201" stroke="#FFD2DC" stroke-width="10"/>
<path d="M147.703 106.681C237.785 100.631 336.775 61.3022 445.68 168.193" stroke="#FFD2DC" stroke-width="10"/>
<path d="M148.75 231.794C238.832 237.844 337.822 277.172 446.727 170.282" stroke="#FFD2DC" stroke-width="10"/>
<path d="M147.703 296.26C237.785 302.31 394.252 317.94 451.226 173.235" stroke="#FFD2DC" stroke-width="10"/>
<path d="M273.941 166.987C273.941 236.517 217.577 292.882 148.048 292.882C78.5202 292.882 22.1562 236.517 22.1562 166.987C22.1562 97.4571 78.5202 41.0923 148.048 41.0923C217.577 41.0923 273.941 97.4571 273.941 166.987Z" fill="#F3F9FF" stroke="#FFD2DC" stroke-width="10"/>
<rect x="115.969" y="135" width="64.5364" height="64.5377" rx="32.2682" fill="#675AF9"/>
<rect x="126.938" y="160.827" width="42.6184" height="12.1769" rx="6.08846" fill="#FBFBFF"/>
<ellipse cx="134.845" cy="166.915" rx="7.91485" ry="7.915" fill="#08CA97"/>
<g clip-path="url(#clip0_1927_645)">
<path d="M133.197 169.224L130.888 166.916L130.119 167.685L133.197 170.763L139.793 164.167L139.023 163.398L133.197 169.224Z" fill="#FBFBFF"/>
</g>
<path d="M220.316 146V164.479C215.631 164.017 212 160.053 212 155.24C212 150.426 215.631 146.462 220.316 146ZM222.191 146V154.306H230.479C230.045 149.927 226.561 146.434 222.191 146ZM222.191 156.173V164.479C226.571 164.045 230.045 160.552 230.479 156.173H222.191Z" fill="#BFB9FF"/>
<rect x="116" y="228" width="18.3253" height="18.3253" rx="2" fill="#BFB9FF"/>
<path d="M119.119 242.055L122.419 233.655H124.087L127.339 242.055H125.791L124.927 239.703H121.483L120.619 242.055H119.119ZM121.903 238.575H124.531L123.211 235.023L121.903 238.575ZM128.362 242.055V233.655H129.802V242.055H128.362Z" fill="#FBFBFF"/>
<path d="M88.5327 118.799L86.654 116.65L86.9158 113.809L84.1363 113.178L82.6811 110.714L80.0632 111.838L77.4454 110.714L75.9902 113.17L73.2107 113.794L73.4724 116.643L71.5938 118.799L73.4724 120.947L73.2107 123.796L75.9902 124.427L77.4454 126.883L80.0632 125.751L82.6811 126.876L84.1363 124.419L86.9158 123.788L86.654 120.947L88.5327 118.799ZM78.5926 122.433L75.6668 119.499L76.8063 118.36L78.5926 120.154L83.0969 115.634L84.2364 116.774L78.5926 122.433Z" fill="#BFB9FF"/>
<rect x="227.523" y="68.1182" width="36.9578" height="36.9585" rx="4" fill="#FFCA54"/>
<path d="M252.14 78.8979H239.821C238.974 78.8979 238.289 79.5909 238.289 80.4379L238.281 94.2973L241.361 91.2174H252.14C252.987 91.2174 253.68 90.5245 253.68 89.6775V80.4379C253.68 79.5909 252.987 78.8979 252.14 78.8979ZM243.671 85.8277H242.131V84.2877H243.671V85.8277ZM246.751 85.8277H245.211V84.2877H246.751V85.8277ZM249.831 85.8277H248.291V84.2877H249.831V85.8277Z" fill="#675AF9"/>
<rect x="79.2969" y="25" width="49.277" height="49.278" rx="24.6385" fill="#08CA97"/>
<g clip-path="url(#clip1_1927_645)">
<path d="M91.6831 61.9588L93.415 55.6317C92.3463 53.7797 91.7847 51.6803 91.7858 49.5274C91.7888 42.7969 97.2658 37.3198 103.995 37.3198C107.261 37.3209 110.326 38.5928 112.632 40.9007C114.937 43.2085 116.206 46.2761 116.205 49.5387C116.202 56.2703 110.725 61.7473 103.995 61.7473C101.952 61.7463 99.9391 61.234 98.1558 60.2608L91.6831 61.9588ZM98.4556 58.0505C100.176 59.072 101.819 59.6838 103.991 59.6848C109.584 59.6848 114.14 55.1328 114.143 49.5367C114.145 43.9292 109.611 39.3833 103.999 39.3813C98.4022 39.3813 93.8492 43.9333 93.8472 49.5284C93.8462 51.8127 94.5155 53.523 95.6396 55.3125L94.6141 59.0576L98.4556 58.0505ZM110.146 52.441C110.07 52.3137 109.866 52.2377 109.56 52.0847C109.255 51.9318 107.756 51.1936 107.475 51.092C107.196 50.9904 106.993 50.939 106.789 51.245C106.585 51.5499 106 52.2377 105.823 52.441C105.645 52.6443 105.466 52.6699 105.161 52.517C104.856 52.364 103.873 52.0427 102.708 51.0027C101.801 50.1937 101.188 49.1948 101.011 48.8889C100.833 48.584 100.992 48.4187 101.144 48.2667C101.282 48.1302 101.449 47.9105 101.602 47.7319C101.757 47.5553 101.807 47.428 101.91 47.2237C102.012 47.0204 101.961 46.8418 101.884 46.6888C101.807 46.5369 101.198 45.0349 100.944 44.4241C100.696 43.8297 100.444 43.9097 100.257 43.9005L99.6721 43.8902C99.4689 43.8902 99.1383 43.9662 98.8591 44.2721C98.5798 44.5781 97.7914 45.3152 97.7914 46.8171C97.7914 48.3191 98.8847 49.7697 99.0367 49.973C99.1896 50.1762 101.187 53.2582 104.248 54.5794C104.976 54.8936 105.544 55.0815 105.987 55.2221C106.718 55.4541 107.383 55.4213 107.909 55.3432C108.495 55.256 109.713 54.6051 109.968 53.8926C110.223 53.1791 110.223 52.5683 110.146 52.441Z" fill="#FBFBFF"/>
</g>
<rect x="120.117" y="277.549" width="36.9578" height="36.9585" rx="4" fill="#08CA97"/>
<path d="M146.791 299.499C145.528 299.499 144.306 299.293 143.167 298.924C142.807 298.801 142.407 298.893 142.13 299.17L140.518 301.193C137.613 299.807 134.892 297.189 133.445 294.181L135.447 292.477C135.724 292.189 135.806 291.789 135.693 291.429C135.313 290.29 135.118 289.068 135.118 287.805C135.118 287.251 134.656 286.789 134.102 286.789H130.55C129.995 286.789 129.328 287.035 129.328 287.805C129.328 297.343 137.264 305.268 146.791 305.268C147.52 305.268 147.807 304.622 147.807 304.057V300.515C147.807 299.961 147.345 299.499 146.791 299.499Z" fill="white"/>
<rect x="236.797" y="214.413" width="36.9578" height="36.9585" rx="18.4789" fill="#08CA97"/>
<path d="M252.599 230.903V227.612C252.599 226.398 253.585 225.412 254.799 225.412C256.013 225.412 256.999 226.398 256.999 227.612V230.903C258.064 230.19 258.759 228.985 258.759 227.612C258.759 225.421 256.99 223.652 254.799 223.652C252.608 223.652 250.839 225.421 250.839 227.612C250.839 228.985 251.534 230.19 252.599 230.903ZM261.258 234.977L257.263 232.989C257.113 232.927 256.955 232.892 256.788 232.892H256.119V227.612C256.119 226.882 255.529 226.292 254.799 226.292C254.069 226.292 253.479 226.882 253.479 227.612V237.063C250.311 236.394 250.364 236.403 250.25 236.403C249.977 236.403 249.731 236.517 249.555 236.693L248.859 237.397L253.206 241.744C253.444 241.982 253.778 242.132 254.139 242.132H260.114C260.774 242.132 261.284 241.648 261.381 241.005L262.041 236.368C262.05 236.306 262.059 236.245 262.059 236.192C262.059 235.646 261.724 235.171 261.258 234.977Z" fill="#FBFBFF"/>
<ellipse cx="26.1784" cy="213.643" rx="26.1784" ry="26.1789" fill="#FFCA54"/>
<path d="M32.968 212.274C33.4334 212.274 33.8851 212.329 34.3368 212.398V205.8L24.0707 201.324L13.8047 205.8V212.521C13.8047 218.735 18.1849 224.553 24.0707 225.963C24.8236 225.785 25.5491 225.525 26.2608 225.21C25.3164 223.868 24.7551 222.24 24.7551 220.487C24.7551 215.957 28.4372 212.274 32.968 212.274Z" fill="#675AF9"/>
<path d="M32.983 215.013C29.958 215.013 27.5078 217.463 27.5078 220.488C27.5078 223.513 29.958 225.963 32.983 225.963C36.0081 225.963 38.4583 223.513 38.4583 220.488C38.4583 217.463 36.0081 215.013 32.983 215.013ZM32.983 216.902C33.8317 216.902 34.5161 217.6 34.5161 218.435C34.5161 219.27 33.818 219.968 32.983 219.968C32.1481 219.968 31.45 219.27 31.45 218.435C31.45 217.6 32.1344 216.902 32.983 216.902ZM32.983 224.252C31.71 224.252 30.6013 223.623 29.9169 222.651C29.9854 221.665 31.9838 221.172 32.983 221.172C33.9823 221.172 35.9807 221.665 36.0492 222.651C35.3648 223.623 34.256 224.252 32.983 224.252Z" fill="#675AF9"/>
<rect x="382" y="103" width="128" height="128" rx="64" fill="#C6B9FA" fill-opacity="0.2"/>
<rect x="398" y="119" width="96" height="96" rx="48" fill="#C6B9FA" fill-opacity="0.6"/>
<rect x="415.469" y="134.916" width="64.5364" height="64.5377" rx="32" fill="#675AF9"/>
<path d="M447.116 153.276C447.478 152.997 447.983 152.997 448.345 153.276L461.457 163.36C461.799 163.623 461.936 164.075 461.797 164.484C461.658 164.893 461.274 165.168 460.842 165.168H434.619C434.187 165.168 433.803 164.893 433.664 164.484C433.525 164.075 433.662 163.623 434.004 163.36L447.116 153.276ZM447.728 161.134C448.563 161.134 449.24 160.457 449.24 159.622C449.24 158.786 448.563 158.109 447.728 158.109C446.892 158.109 446.215 158.786 446.215 159.622C446.215 160.457 446.892 161.134 447.728 161.134ZM453.778 168.185C453.778 167.632 454.226 167.185 454.778 167.185H456.812C457.364 167.185 457.812 167.632 457.812 168.185V174.252C457.812 174.804 457.364 175.252 456.812 175.252H454.778C454.226 175.252 453.778 174.804 453.778 174.252V168.185ZM448.745 175.252C449.297 175.252 449.745 174.804 449.745 174.252V168.185C449.745 167.632 449.297 167.185 448.745 167.185H446.711C446.159 167.185 445.711 167.632 445.711 168.185V174.252C445.711 174.804 446.159 175.252 446.711 175.252H448.745ZM440.678 175.252C441.23 175.252 441.678 174.804 441.678 174.252V168.185C441.678 167.632 441.23 167.185 440.678 167.185H438.644C438.092 167.185 437.644 167.632 437.644 168.185V174.252C437.644 174.804 438.092 175.252 438.644 175.252H440.678ZM435.371 177.269C435.124 177.348 434.912 177.522 434.788 177.759L433.726 179.776C433.562 180.088 433.573 180.464 433.756 180.766C433.938 181.069 434.266 181.254 434.619 181.254H460.842C461.195 181.254 461.523 181.069 461.705 180.767C461.888 180.465 461.899 180.089 461.735 179.777L460.677 177.76C460.552 177.522 460.34 177.348 460.093 177.269H435.371Z" fill="#FBFBFF"/>
<path fill-rule="evenodd" clip-rule="evenodd" d="M479.333 5.33333L474 8L479.333 10.6667L482 16L484.667 10.6667L490 8L484.667 5.33333L482 0L479.333 5.33333Z" fill="#8D83FF" fill-opacity="0.6"/>
<path fill-rule="evenodd" clip-rule="evenodd" d="M441 27L429 33L441 39L447 51L453 39L465 33L453 27L447 15L441 27Z" fill="#8D83FF"/>
<path fill-rule="evenodd" clip-rule="evenodd" d="M29.6667 355.333L35 358L29.6667 360.667L27 366L24.3333 360.667L19 358L24.3333 355.333L27 350L29.6667 355.333Z" fill="#8D83FF" fill-opacity="0.6"/>
<path fill-rule="evenodd" clip-rule="evenodd" d="M50 323L58 327L50 331L46 339L42 331L34 327L42 323L46 315L50 323Z" fill="#8D83FF"/>
<defs>
<clipPath id="clip0_1927_645">
<rect width="13.1914" height="13.1917" fill="white" transform="translate(128.25 160.32)"/>
</clipPath>
<clipPath id="clip1_1927_645">
<rect width="24.6385" height="24.639" fill="white" transform="translate(91.625 37.3198)"/>
</clipPath>
</defs>
</svg>
