<svg width="140" height="64" viewBox="0 0 140 64" fill="none" xmlns="http://www.w3.org/2000/svg">
<g id="better-capital 1" clip-path="url(#clip0_2361_1073)">
<g id="Clip path group">
<mask id="mask0_2361_1073" style="mask-type:luminance" maskUnits="userSpaceOnUse" x="0" y="0" width="140" height="64">
<g id="clip0">
<path id="Vector" d="M139.077 0H0V64H139.077V0Z" fill="white"/>
</g>
</mask>
<g mask="url(#mask0_2361_1073)">
<g id="Group">
<path id="Vector_2" d="M139.077 0H0V64H139.077V0Z" fill="black"/>
<g id="Clip path group_2">
<mask id="mask1_2361_1073" style="mask-type:luminance" maskUnits="userSpaceOnUse" x="18" y="18" width="103" height="28">
<g id="clip1">
<path id="Vector_3" d="M120.258 18.4614H18.4615V45.4891H120.258V18.4614Z" fill="white"/>
</g>
</mask>
<g mask="url(#mask1_2361_1073)">
<g id="Group_2">
<path id="Vector_4" d="M18.4615 44.9722H29.6862C35.1139 44.9722 36.5539 44.0491 38.0677 42.5722C38.7911 41.8576 39.3659 41.0068 39.7588 40.0688C40.1516 39.1308 40.355 38.1244 40.3569 37.1076C40.3569 34.486 39.5077 31.9014 36.2585 30.683C37.3124 30.2487 38.1978 29.4859 38.7833 28.5081C39.3687 27.5301 39.6228 26.3892 39.5077 25.2553C39.5077 22.523 37.8462 18.4614 31.3477 18.4614H18.4615V44.9722ZM23.7785 33.3045H30.8308C32.8246 33.3045 34.8185 34.1907 34.8185 36.5168C34.8185 39.2122 33.2677 40.3937 30.5723 40.3937H23.7785V33.3045ZM23.7785 23.0399H30.1292C32.64 23.0399 34.1908 23.7045 34.1908 25.883C34.1908 27.9876 32.4554 28.8368 30.2769 28.8368H23.7785V23.0399ZM55.9754 39.2122C55.7238 39.8779 55.2651 40.4453 54.667 40.8309C54.0687 41.2164 53.3625 41.3996 52.6523 41.3537C48.48 41.3537 48.1846 38.0307 48.0369 36.5537H61.5139V35.6307C61.5139 26.6583 56.16 24.8122 52.2831 24.8122C43.68 24.8122 42.8677 32.3814 42.8677 34.7445C42.8677 42.8307 47.1139 45.4891 52.6523 45.4891C54.5927 45.5867 56.5081 45.0172 58.08 43.8753C59.6518 42.7334 60.7855 41.0878 61.2923 39.2122H55.9754ZM48.1846 33.1937C48.48 30.6091 49.7723 29.0583 52.2092 29.0583C53.8708 29.0583 55.9015 30.0183 56.1969 33.1937H48.1846ZM73.6825 25.8251V29.8633H70.2215V37.5802C70.1898 38.4918 70.2231 39.4044 70.3212 40.3113C70.3886 40.5723 70.5487 40.7999 70.7717 40.9513C71.0244 41.1257 71.3264 41.2142 71.6332 41.2036C72.3342 41.1498 73.022 40.9835 73.6702 40.7113L74.1034 44.6411C72.8347 45.1635 71.4727 45.4211 70.1009 45.398C69.2551 45.4107 68.4153 45.2542 67.6308 44.9377C66.9913 44.7016 66.4318 44.2889 66.0172 43.7476C65.6345 43.1531 65.3909 42.48 65.3046 41.7783C65.1638 40.5941 65.1095 39.4012 65.1422 38.2091V29.862H62.816V25.8239H65.1323V22.0196L70.2166 19.0657V25.8263L73.6825 25.8251ZM85.6825 25.8251V29.8633H82.2215V37.5802C82.1898 38.4918 82.2231 39.4044 82.3212 40.3113C82.3886 40.5723 82.5487 40.7999 82.7717 40.9513C83.0244 41.1257 83.3264 41.2142 83.6332 41.2036C84.3342 41.1498 85.022 40.9835 85.6702 40.7113L86.1034 44.6411C84.8347 45.1635 83.4727 45.4211 82.1009 45.398C81.2551 45.4107 80.4153 45.2542 79.6308 44.9377C78.9913 44.7016 78.4318 44.2889 78.0172 43.7476C77.6345 43.1531 77.3909 42.48 77.3046 41.7783C77.1638 40.5941 77.1095 39.4012 77.1422 38.2091V29.862H74.816V25.8239H77.1422V22.0196L82.2265 19.0657V25.8263L85.6825 25.8251ZM100.209 39.2122C99.9577 39.8779 99.499 40.4453 98.9008 40.8309C98.3025 41.2164 97.5963 41.3996 96.8862 41.3537C92.7139 41.3537 92.4185 38.0307 92.2708 36.5537H105.748V35.6307C105.748 26.6583 100.394 24.8122 96.5169 24.8122C87.9138 24.8122 87.1015 32.3814 87.1015 34.7445C87.1015 42.8307 91.3477 45.4891 96.8862 45.4891C98.8266 45.5867 100.742 45.0172 102.314 43.8753C103.886 42.7334 105.019 41.0878 105.526 39.2122H100.209ZM92.4185 33.1937C92.7138 30.6091 94.0062 29.0583 96.4431 29.0583C98.1046 29.0583 100.135 30.0183 100.431 33.1937H92.4185ZM108.849 44.9722H114.018V34.7445C114.018 32.566 114.757 30.0553 118.782 30.0553C119.275 30.0421 119.769 30.0667 120.258 30.1291V24.886C119.928 24.8431 119.595 24.8185 119.262 24.8122C116.123 24.8122 114.942 26.7322 113.871 28.726H113.797V25.3291H108.849V44.9722Z" fill="white"/>
</g>
</g>
</g>
</g>
</g>
</g>
</g>
<defs>
<clipPath id="clip0_2361_1073">
<rect width="139.077" height="64" fill="white"/>
</clipPath>
</defs>
</svg>
