<svg width="145" height="40" viewBox="0 0 145 40" fill="none" xmlns="http://www.w3.org/2000/svg">
<g id="logo-blume-reversed 1" clip-path="url(#clip0_2361_1086)">
<path id="Vector" d="M31.5566 31.875V8.11133H44.043C48.5631 8.11133 50.8742 10.9954 50.8742 14.1659C50.8742 17.1568 49.0262 19.1522 46.7877 19.6204C49.3145 20.0113 51.3419 22.4704 51.3419 25.4613C51.3419 29.0227 48.9581 31.8727 44.4403 31.8727L31.5566 31.875ZM36.6034 17.6568H42.9374C44.6446 17.6568 45.7116 16.5522 45.7116 15.0204C45.7116 13.5591 44.6446 12.4204 42.9374 12.4204H36.6034V17.6568ZM36.6034 27.5591H43.1145C45.0351 27.5591 46.1748 26.4545 46.1748 24.7454C46.1748 23.2477 45.1077 21.9659 43.1145 21.9659H36.6034V27.5591ZM54.7836 31.875V8.11133H59.8372V27.4295H69.8694V31.8818L54.7836 31.875ZM72.1942 8.11133H77.3182V22.2159C77.3182 25.5272 79.1344 27.8068 82.8326 27.8068C86.465 27.8068 88.2812 25.5341 88.2812 22.2159V8.11133H93.4052V22.3568C93.4052 28.2659 90.0248 32.2954 82.8372 32.2954C75.5723 32.2954 72.1987 28.2341 72.1987 22.3931L72.1942 8.11133ZM118.367 31.875V14.7772L111.676 31.875H109.472L102.781 14.7772V31.875H97.73V8.11133H104.811L110.573 22.9272L116.337 8.11133H123.454V31.875H118.367ZM127.795 31.875V8.11133H144.595V12.4568H132.846V17.6204H144.338V21.975H132.846V27.4954H144.588V31.8772L127.795 31.875Z" fill="black"/>
<path id="Vector_2" d="M22.748 0H17.9351C16.2687 0 15.381 1.26818 15.5694 2.69773L16.5661 10.3114L20.5685 14.8386L25.134 10.8386V2.38864C25.134 1.06591 24.2918 0 22.748 0ZM16.5729 29.6818L15.5763 37.2932C15.3878 38.725 16.2755 39.9932 17.9419 39.9932H22.748C24.2918 39.9932 25.134 38.9227 25.134 37.6045V29.15L20.5776 25.1568L16.5729 29.6818Z" fill="#78AAB9"/>
<path id="Vector_3" d="M9.91878 15.8068L2.77882 15.2386C1.39169 15.1295 0.204346 16.0023 0.204346 17.6204V22.3727C0.204346 23.9909 1.39169 24.8727 2.77882 24.7523L9.91878 24.1864L14.6977 19.9954L9.91878 15.8068Z" fill="#649BC8"/>
<path id="Vector_4" d="M9.91875 24.1862L4.2976 29.1158C4.05186 29.3313 3.85298 29.5951 3.71329 29.8907C3.57359 30.1863 3.49607 30.5076 3.48553 30.8344C3.47485 31.1613 3.53135 31.4868 3.65151 31.7909C3.77168 32.095 3.95295 32.3711 4.18408 32.6022L7.58947 36.0112C7.81967 36.2417 8.09459 36.4225 8.39726 36.5426C8.69994 36.6626 9.02397 36.7193 9.34937 36.7092C9.67469 36.699 9.9945 36.6223 10.2892 36.4839C10.5838 36.3455 10.8471 36.1483 11.063 35.9044L16.5729 29.6817L17.3697 23.5953L9.91875 24.1862ZM16.5729 10.3112L11.0675 4.0817C10.8518 3.8377 10.5884 3.64047 10.2937 3.50213C9.99902 3.36378 9.67915 3.28725 9.3538 3.27725C9.02846 3.26724 8.7045 3.32397 8.40187 3.44395C8.09923 3.56392 7.82431 3.7446 7.59401 3.97488L4.18863 7.38397C3.9575 7.61508 3.77624 7.89122 3.65608 8.19531C3.53591 8.4994 3.4794 8.82496 3.49004 9.1518C3.50069 9.47865 3.57826 9.79983 3.71795 10.0954C3.85764 10.391 4.05647 10.6548 4.30214 10.8703L9.92329 15.7999L17.3765 16.3908L16.5729 10.3112Z" fill="#6EAAC8"/>
<path id="Vector_5" d="M17.5196 22.4726L14.6977 19.9954L9.91876 24.1863L17.372 23.5954L17.5196 22.4726ZM18.682 16.4999L20.5776 14.8386L16.5752 10.3113L17.372 16.3976L18.682 16.4999ZM20.5776 25.1545L25.134 29.1499V22.9795L22.2985 23.2045L20.5776 25.1545Z" fill="#416482"/>
<path id="Vector_6" d="M22.2985 16.7885L25.134 17.0113V10.8408L20.5776 14.8385L22.2985 16.7885ZM18.682 23.4908L17.372 23.5954L16.5752 29.6817L20.5776 25.1545L18.682 23.4908ZM17.5196 17.5204L17.372 16.3976L9.91876 15.8067L14.6977 19.9954L17.5196 17.5204Z" fill="#285082"/>
<path id="Vector_7" d="M25.134 19.9954V17.0113L22.2985 16.7886L25.134 19.9954ZM18.6819 23.4909L17.5196 22.4727L17.372 23.5954L18.6819 23.4909ZM22.2985 16.7886L20.5776 14.8386L18.6819 16.5L22.2985 16.7886Z" fill="#254164"/>
<path id="Vector_8" d="M22.2985 23.2045L18.6819 23.4909L20.5776 25.1545L22.2985 23.2045ZM17.5196 17.5204L18.6819 16.5L17.372 16.3977L17.5196 17.5204ZM25.134 22.9795V19.9954L22.2985 23.2045L25.134 22.9795Z" fill="#254164"/>
<path id="Vector_9" d="M17.5196 22.4728L17.8442 19.9955L17.5196 17.5205L14.6976 19.9955L17.5196 22.4728Z" fill="#254164"/>
<path id="Vector_10" d="M22.2985 16.7886L18.682 16.5L17.5196 17.5205L17.8442 19.9955L17.5196 22.4727L18.682 23.4909L22.2985 23.2045L25.134 19.9955L22.2985 16.7886Z" fill="#14305A"/>
</g>
<defs>
<clipPath id="clip0_2361_1086">
<rect width="144.615" height="40" fill="white"/>
</clipPath>
</defs>
</svg>
